<svg width="42" height="42" viewBox="0 0 42 42" fill="none" xmlns="http://www.w3.org/2000/svg">
  <g clip-path="url(#clip0_1485_129)">
    <path
      d="M14 12.25C14 14.1065 14.7375 15.887 16.0503 17.1997C17.363 18.5125 19.1435 19.25 21 19.25C22.8565 19.25 24.637 18.5125 25.9497 17.1997C27.2625 15.887 28 14.1065 28 12.25C28 10.3935 27.2625 8.61301 25.9497 7.30025C24.637 5.9875 22.8565 5.25 21 5.25C19.1435 5.25 17.363 5.9875 16.0503 7.30025C14.7375 8.61301 14 10.3935 14 12.25Z"
      stroke="white" stroke-width="2" stroke-linecap="round" stroke-linejoin="round"/>
    <path
      d="M10.5 36.75V33.25C10.5 31.3935 11.2375 29.613 12.5503 28.3003C13.863 26.9875 15.6435 26.25 17.5 26.25H18.375"
      stroke="white" stroke-width="2" stroke-linecap="round" stroke-linejoin="round"/>
    <path
      d="M31.1499 36.4298L27.3489 38.4213C27.2361 38.48 27.1092 38.5062 26.9824 38.497C26.8556 38.4878 26.7338 38.4435 26.6307 38.369C26.5276 38.2946 26.4472 38.193 26.3985 38.0755C26.3498 37.9581 26.3347 37.8294 26.3549 37.7038L27.0812 33.4846L24.0064 30.4973C23.9147 30.4086 23.8497 30.2959 23.8189 30.172C23.7881 30.0481 23.7928 29.9181 23.8324 29.7967C23.872 29.6754 23.9449 29.5676 24.0429 29.4857C24.1408 29.4038 24.2597 29.3511 24.3862 29.3336L28.6352 28.7176L30.5357 24.8798C30.5925 24.7655 30.6801 24.6694 30.7886 24.6021C30.8972 24.5349 31.0223 24.4993 31.1499 24.4993C31.2776 24.4993 31.4027 24.5349 31.5112 24.6021C31.6197 24.6694 31.7073 24.7655 31.7642 24.8798L33.6647 28.7176L37.9137 29.3336C38.0398 29.3517 38.1582 29.4048 38.2557 29.4867C38.3532 29.5687 38.4258 29.6763 38.4653 29.7974C38.5048 29.9185 38.5097 30.0482 38.4793 30.1719C38.4489 30.2956 38.3845 30.4083 38.2934 30.4973L35.2187 33.4846L35.9432 37.7021C35.9649 37.8278 35.951 37.9572 35.9029 38.0754C35.8548 38.1937 35.7746 38.296 35.6712 38.3709C35.5679 38.4459 35.4456 38.4903 35.3183 38.4992C35.191 38.5081 35.0637 38.4811 34.9509 38.4213L31.1499 36.4298Z"
      stroke="white" stroke-width="2" stroke-linecap="round" stroke-linejoin="round"/>
  </g>
  <defs>
    <clipPath id="clip0_1485_129">
      <rect width="42" height="42" fill="white"/>
    </clipPath>
  </defs>
</svg>
