<svg width="42" height="42" xmlns="http://www.w3.org/2000/svg" xmlns:xlink="http://www.w3.org/1999/xlink" overflow="hidden"><defs><clipPath id="clip0"><rect x="490" y="219" width="42" height="42"/></clipPath></defs><g clip-path="url(#clip0)" transform="translate(-490 -219)"><path d="M504 231.25C504 233.107 504.737 234.887 506.05 236.2 507.363 237.512 509.143 238.25 511 238.25 512.857 238.25 514.637 237.512 515.95 236.2 517.263 234.887 518 233.107 518 231.25 518 229.393 517.263 227.613 515.95 226.3 514.637 224.988 512.857 224.25 511 224.25 509.143 224.25 507.363 224.988 506.05 226.3 504.737 227.613 504 229.393 504 231.25Z" fill="#0D47A1"/><path d="M500.5 255.75 500.5 252.25C500.5 250.393 501.237 248.613 502.55 247.3 503.863 245.988 505.643 245.25 507.5 245.25L508.375 245.25" fill="#0D47A1"/><path d="M521.15 255.43 517.349 257.421C517.236 257.48 517.109 257.506 516.982 257.497 516.856 257.488 516.734 257.444 516.631 257.369 516.528 257.295 516.447 257.193 516.398 257.076 516.35 256.958 516.335 256.829 516.355 256.704L517.081 252.485 514.006 249.497C513.915 249.409 513.85 249.296 513.819 249.172 513.788 249.048 513.793 248.918 513.832 248.797 513.872 248.675 513.945 248.568 514.043 248.486 514.141 248.404 514.26 248.351 514.386 248.334L518.635 247.718 520.536 243.88C520.593 243.766 520.68 243.669 520.789 243.602 520.897 243.535 521.022 243.499 521.15 243.499 521.278 243.499 521.403 243.535 521.511 243.602 521.62 243.669 521.707 243.766 521.764 243.88L523.665 247.718 527.914 248.334C528.04 248.352 528.158 248.405 528.256 248.487 528.353 248.569 528.426 248.676 528.465 248.797 528.505 248.919 528.51 249.048 528.479 249.172 528.449 249.296 528.385 249.408 528.293 249.497L525.219 252.485 525.943 256.702C525.965 256.828 525.951 256.957 525.903 257.075 525.855 257.194 525.775 257.296 525.671 257.371 525.568 257.446 525.446 257.49 525.318 257.499 525.191 257.508 525.064 257.481 524.951 257.421L521.15 255.43Z" fill="#0D47A1"/></g></svg>