<svg xmlns="http://www.w3.org/2000/svg" width="42" height="42" viewBox="0 0 42 42" fill="none">
  <g clip-path="url(#clip0_1301_5670)">
    <path d="M10.5 21H17.5" stroke="#0D47A1" stroke-width="2" stroke-linecap="round" stroke-linejoin="round"/>
    <path d="M24.5 21H31.5" stroke="#0D47A1" stroke-width="2" stroke-linecap="round" stroke-linejoin="round"/>
    <path d="M26.25 12.25L22.75 17.5" stroke="#0D47A1" stroke-width="2" stroke-linecap="round" stroke-linejoin="round"/>
    <path d="M15.75 12.25L19.25 17.5" stroke="#0D47A1" stroke-width="2" stroke-linecap="round" stroke-linejoin="round"/>
    <path d="M19.25 24.5L15.75 29.75" stroke="#0D47A1" stroke-width="2" stroke-linecap="round" stroke-linejoin="round"/>
    <path d="M22.75 24.5L26.25 29.75" stroke="#0D47A1" stroke-width="2" stroke-linecap="round" stroke-linejoin="round"/>
    <path d="M17.5 33.25C17.5 32.3217 17.1313 31.4315 16.4749 30.7751C15.8185 30.1187 14.9283 29.75 14 29.75C13.0717 29.75 12.1815 30.1187 11.5251 30.7751C10.8687 31.4315 10.5 32.3217 10.5 33.25C10.5 34.1783 10.8687 35.0685 11.5251 35.7249C12.1815 36.3813 13.0717 36.75 14 36.75C14.9283 36.75 15.8185 36.3813 16.4749 35.7249C17.1313 35.0685 17.5 34.1783 17.5 33.25Z" stroke="#0D47A1" stroke-width="2" stroke-linecap="round" stroke-linejoin="round"/>
    <path d="M31.5 8.75C31.5 7.82174 31.1313 6.9315 30.4749 6.27513C29.8185 5.61875 28.9283 5.25 28 5.25C27.0717 5.25 26.1815 5.61875 25.5251 6.27513C24.8687 6.9315 24.5 7.82174 24.5 8.75C24.5 9.67826 24.8687 10.5685 25.5251 11.2249C26.1815 11.8813 27.0717 12.25 28 12.25C28.9283 12.25 29.8185 11.8813 30.4749 11.2249C31.1313 10.5685 31.5 9.67826 31.5 8.75Z" stroke="#0D47A1" stroke-width="2" stroke-linecap="round" stroke-linejoin="round"/>
    <path d="M17.5 8.75C17.5 7.82174 17.1313 6.9315 16.4749 6.27513C15.8185 5.61875 14.9283 5.25 14 5.25C13.0717 5.25 12.1815 5.61875 11.5251 6.27513C10.8687 6.9315 10.5 7.82174 10.5 8.75C10.5 9.67826 10.8687 10.5685 11.5251 11.2249C12.1815 11.8813 13.0717 12.25 14 12.25C14.9283 12.25 15.8185 11.8813 16.4749 11.2249C17.1313 10.5685 17.5 9.67826 17.5 8.75Z" stroke="#0D47A1" stroke-width="2" stroke-linecap="round" stroke-linejoin="round"/>
    <path d="M10.5 21C10.5 20.0717 10.1313 19.1815 9.47487 18.5251C8.8185 17.8687 7.92826 17.5 7 17.5C6.07174 17.5 5.1815 17.8687 4.52513 18.5251C3.86875 19.1815 3.5 20.0717 3.5 21C3.5 21.9283 3.86875 22.8185 4.52513 23.4749C5.1815 24.1313 6.07174 24.5 7 24.5C7.92826 24.5 8.8185 24.1313 9.47487 23.4749C10.1313 22.8185 10.5 21.9283 10.5 21Z" stroke="#0D47A1" stroke-width="2" stroke-linecap="round" stroke-linejoin="round"/>
    <path d="M31.5 33.25C31.5 32.3217 31.1313 31.4315 30.4749 30.7751C29.8185 30.1187 28.9283 29.75 28 29.75C27.0717 29.75 26.1815 30.1187 25.5251 30.7751C24.8687 31.4315 24.5 32.3217 24.5 33.25C24.5 34.1783 24.8687 35.0685 25.5251 35.7249C26.1815 36.3813 27.0717 36.75 28 36.75C28.9283 36.75 29.8185 36.3813 30.4749 35.7249C31.1313 35.0685 31.5 34.1783 31.5 33.25Z" stroke="#0D47A1" stroke-width="2" stroke-linecap="round" stroke-linejoin="round"/>
    <path d="M24.5 21C24.5 20.0717 24.1313 19.1815 23.4749 18.5251C22.8185 17.8687 21.9283 17.5 21 17.5C20.0717 17.5 19.1815 17.8687 18.5251 18.5251C17.8687 19.1815 17.5 20.0717 17.5 21C17.5 21.9283 17.8687 22.8185 18.5251 23.4749C19.1815 24.1313 20.0717 24.5 21 24.5C21.9283 24.5 22.8185 24.1313 23.4749 23.4749C24.1313 22.8185 24.5 21.9283 24.5 21Z" stroke="#0D47A1" stroke-width="2" stroke-linecap="round" stroke-linejoin="round"/>
    <path d="M38.5 21C38.5 20.0717 38.1313 19.1815 37.4749 18.5251C36.8185 17.8687 35.9283 17.5 35 17.5C34.0717 17.5 33.1815 17.8687 32.5251 18.5251C31.8687 19.1815 31.5 20.0717 31.5 21C31.5 21.9283 31.8687 22.8185 32.5251 23.4749C33.1815 24.1313 34.0717 24.5 35 24.5C35.9283 24.5 36.8185 24.1313 37.4749 23.4749C38.1313 22.8185 38.5 21.9283 38.5 21Z" stroke="#0D47A1" stroke-width="2" stroke-linecap="round" stroke-linejoin="round"/>
    <path d="M17.5 8.75H24.5" stroke="#0D47A1" stroke-width="2" stroke-linecap="round" stroke-linejoin="round"/>
    <path d="M17.5 33.25H24.5" stroke="#0D47A1" stroke-width="2" stroke-linecap="round" stroke-linejoin="round"/>
    <path d="M29.75 29.75L33.25 24.5" stroke="#0D47A1" stroke-width="2" stroke-linecap="round" stroke-linejoin="round"/>
    <path d="M33.25 17.5L29.75 12.25" stroke="#0D47A1" stroke-width="2" stroke-linecap="round" stroke-linejoin="round"/>
    <path d="M12.25 12.25L8.75 17.5" stroke="#0D47A1" stroke-width="2" stroke-linecap="round" stroke-linejoin="round"/>
    <path d="M8.75 24.5L12.25 29.75" stroke="#0D47A1" stroke-width="2" stroke-linecap="round" stroke-linejoin="round"/>
  </g>
  <defs>
    <clipPath id="clip0_1301_5670">
      <rect width="42" height="42" fill="white"/>
    </clipPath>
  </defs>
</svg>
