<svg width="100" height="88" viewBox="0 0 100 88" fill="none" xmlns="http://www.w3.org/2000/svg">
  <path d="M8.7959 43.594C8.7959 54.2027 13.0102 64.3768 20.5116 71.8783C28.0131 79.3797 38.1872 83.594 48.7959 83.594C59.4046 83.594 69.5787 79.3797 77.0802 71.8783C84.5816 64.3768 88.7959 54.2027 88.7959 43.594C88.7959 32.9853 84.5816 22.8112 77.0802 15.3097C69.5787 7.80827 59.4046 3.59399 48.7959 3.59399C38.1872 3.59399 28.0131 7.80827 20.5116 15.3097C13.0102 22.8112 8.7959 32.9853 8.7959 43.594Z" fill="#D9EDFF" fill-opacity="0.16"/>
  <path d="M23.9608 20.375L10.1768 51.465" stroke="#020064" stroke-width="1.5" stroke-linecap="round" stroke-linejoin="round"/>
  <path d="M36.6058 71.9911L10.1768 51.4651" stroke="#020064" stroke-width="1.5" stroke-linecap="round" stroke-linejoin="round"/>
  <path d="M77.844 41.251L64.146 65.287" stroke="#00AED9" stroke-width="1.5" stroke-linecap="round" stroke-linejoin="round"/>
  <path d="M23.9609 20.3752L59.8119 12.7422" stroke="#020064" stroke-width="1.5" stroke-linecap="round" stroke-linejoin="round"/>
  <path d="M77.844 41.2512L59.812 12.7422" stroke="#020064" stroke-width="1.5" stroke-linecap="round" stroke-linejoin="round"/>
  <path d="M77.8438 41.251L48.5088 47.811L10.1768 51.465" stroke="#020064" stroke-width="1.5" stroke-linecap="round" stroke-linejoin="round"/>
  <path d="M23.9609 20.375L36.6059 71.991" stroke="#020064" stroke-width="1.5" stroke-linecap="round" stroke-linejoin="round"/>
  <path d="M59.8118 12.7422L48.5088 47.8112" stroke="#020064" stroke-width="1.5" stroke-linecap="round" stroke-linejoin="round"/>
  <path d="M23.9609 20.375L64.1459 65.287" stroke="#020064" stroke-width="1.5" stroke-linecap="round" stroke-linejoin="round"/>
  <path d="M64.146 65.2871L36.606 71.9911" stroke="#020064" stroke-width="1.5" stroke-linecap="round" stroke-linejoin="round"/>
  <path d="M10.1768 51.4652L59.8118 12.7422" stroke="#020064" stroke-width="1.5" stroke-linecap="round" stroke-linejoin="round"/>
  <path d="M0.292969 49.6131C0.292969 51.0605 0.578061 52.4937 1.13197 53.831C1.68588 55.1683 2.49775 56.3833 3.52124 57.4068C4.54473 58.4303 5.75978 59.2422 7.09703 59.7961C8.43428 60.35 9.86754 60.6351 11.315 60.6351C12.7624 60.6351 14.1957 60.35 15.5329 59.7961C16.8702 59.2422 18.0852 58.4303 19.1087 57.4068C20.1322 56.3833 20.9441 55.1683 21.498 53.831C22.0519 52.4937 22.337 51.0605 22.337 49.6131C22.337 48.1656 22.0519 46.7324 21.498 45.3951C20.9441 44.0579 20.1322 42.8428 19.1087 41.8193C18.0852 40.7958 16.8702 39.984 15.5329 39.4301C14.1957 38.8762 12.7624 38.5911 11.315 38.5911C9.86754 38.5911 8.43428 38.8762 7.09703 39.4301C5.75978 39.984 4.54473 40.7958 3.52124 41.8193C2.49775 42.8428 1.68588 44.0579 1.13197 45.3951C0.578061 46.7324 0.292969 48.1656 0.292969 49.6131Z" fill="white" stroke="#020064" stroke-width="1.5" stroke-linecap="round" stroke-linejoin="round"/>
  <path d="M17.1997 52.4202C17.1976 52.1808 17.1127 51.9495 16.9594 51.7656C16.8061 51.5816 16.5939 51.4564 16.3587 51.4112V50.7382C16.3682 50.0694 16.2445 49.4053 15.9951 48.7847C15.7457 48.164 15.3754 47.5992 14.9057 47.1229C14.4361 46.6466 13.8765 46.2684 13.2594 46.0102C12.6424 45.7521 11.9801 45.6191 11.3112 45.6191C10.6423 45.6191 9.98012 45.7521 9.36305 46.0102C8.74598 46.2684 8.18637 46.6466 7.71673 47.1229C7.24709 47.5992 6.8768 48.164 6.62736 48.7847C6.37793 49.4053 6.25432 50.0694 6.26374 50.7382V51.4112C6.01852 51.4571 5.79831 51.5905 5.644 51.7865C5.48969 51.9825 5.41178 52.2279 5.42473 52.4771C5.43768 52.7262 5.54062 52.9622 5.71442 53.1412C5.88823 53.3201 6.12108 53.4299 6.36974 53.4502C6.6067 54.5854 7.22732 55.6045 8.12725 56.3359C9.02718 57.0674 10.1515 57.4667 11.3112 57.4667C12.471 57.4667 13.5953 57.0674 14.4952 56.3359C15.3952 55.6045 16.0158 54.5854 16.2527 53.4502C16.5104 53.4271 16.7502 53.3087 16.9253 53.1182C17.1005 52.9278 17.1983 52.6789 17.1997 52.4202Z" fill="white" stroke="#020064" stroke-width="1.5" stroke-linecap="round" stroke-linejoin="round"/>
  <path d="M7.95117 53.0512C7.95117 53.2185 8.01765 53.379 8.13599 53.4974C8.25432 53.6157 8.41482 53.6822 8.58217 53.6822C8.74952 53.6822 8.91002 53.6157 9.02836 53.4974C9.14669 53.379 9.21317 53.2185 9.21317 53.0512C9.21317 52.8838 9.14669 52.7233 9.02836 52.605C8.91002 52.4866 8.74952 52.4202 8.58217 52.4202C8.41482 52.4202 8.25432 52.4866 8.13599 52.605C8.01765 52.7233 7.95117 52.8838 7.95117 53.0512Z" fill="#B0D9FF"/>
  <path d="M13.418 53.0512C13.418 53.134 13.4343 53.2161 13.466 53.2926C13.4977 53.3692 13.5442 53.4388 13.6028 53.4974C13.6614 53.5559 13.7309 53.6024 13.8075 53.6341C13.8841 53.6658 13.9661 53.6822 14.049 53.6822C14.1318 53.6822 14.2139 53.6658 14.2904 53.6341C14.367 53.6024 14.4366 53.5559 14.4952 53.4974C14.5537 53.4388 14.6002 53.3692 14.6319 53.2926C14.6636 53.2161 14.68 53.134 14.68 53.0512C14.68 52.9683 14.6636 52.8863 14.6319 52.8097C14.6002 52.7331 14.5537 52.6636 14.4952 52.605C14.4366 52.5464 14.367 52.4999 14.2904 52.4682C14.2139 52.4365 14.1318 52.4202 14.049 52.4202C13.9661 52.4202 13.8841 52.4365 13.8075 52.4682C13.7309 52.4999 13.6614 52.5464 13.6028 52.605C13.5442 52.6636 13.4977 52.7331 13.466 52.8097C13.4343 52.8863 13.418 52.9683 13.418 53.0512Z" fill="#B0D9FF"/>
  <path d="M10.0542 54.561C10.4276 54.8105 10.8666 54.9436 11.3157 54.9436C11.7648 54.9436 12.2038 54.8105 12.5772 54.561" stroke="#020064" stroke-width="1.5" stroke-linecap="round" stroke-linejoin="round"/>
  <path d="M16.7832 49.476C16.793 48.7518 16.6588 48.0329 16.3884 47.3609C16.118 46.689 15.7168 46.0775 15.2082 45.5619C14.6995 45.0463 14.0935 44.6368 13.4252 44.3574C12.757 44.078 12.0399 43.9341 11.3157 43.9341C10.5914 43.9341 9.87429 44.078 9.20608 44.3574C8.53786 44.6368 7.93182 45.0463 7.42314 45.5619C6.91446 46.0775 6.51329 46.689 6.24292 47.3609C5.97255 48.0329 5.83836 48.7518 5.84816 49.476V50.738C5.84816 50.8494 5.89241 50.9562 5.97117 51.035C6.04994 51.1138 6.15677 51.158 6.26816 51.158H7.11016C7.22155 51.158 7.32838 51.1138 7.40714 51.035C7.48591 50.9562 7.53016 50.8494 7.53016 50.738C7.53056 50.2372 7.63159 49.7415 7.82725 49.2804C8.02291 48.8194 8.30921 48.4023 8.66916 48.054C8.76111 47.9637 8.87263 47.8958 8.99507 47.8556C9.11751 47.8154 9.24756 47.8039 9.37516 47.822C9.9059 47.8881 10.399 48.1308 10.7752 48.511C11.2722 49.0235 11.9276 49.3534 12.6353 49.4472C13.3431 49.541 14.0618 49.3933 14.6752 49.028C14.8863 49.4378 15.0217 49.8822 15.0752 50.34C15.0872 50.4496 15.1391 50.5509 15.2209 50.6246C15.3028 50.6984 15.409 50.7395 15.5192 50.74H16.3602C16.4716 50.7398 16.5785 50.6953 16.6572 50.6164C16.7359 50.5374 16.7802 50.4305 16.7802 50.319L16.7832 49.476Z" fill="white" stroke="#020064" stroke-width="1.5" stroke-linecap="round" stroke-linejoin="round"/>
  <path d="M16.7832 49.476C16.793 48.7518 16.6588 48.0329 16.3884 47.3609C16.118 46.689 15.7168 46.0775 15.2082 45.5619C14.6995 45.0463 14.0935 44.6368 13.4252 44.3574C12.757 44.078 12.0399 43.9341 11.3157 43.9341C10.5914 43.9341 9.87429 44.078 9.20608 44.3574C8.53786 44.6368 7.93182 45.0463 7.42314 45.5619C6.91446 46.0775 6.51329 46.689 6.24292 47.3609C5.97255 48.0329 5.83836 48.7518 5.84816 49.476V50.738C5.84816 50.8494 5.89241 50.9562 5.97117 51.035C6.04994 51.1138 6.15677 51.158 6.26816 51.158H7.11016C7.22155 51.158 7.32838 51.1138 7.40714 51.035C7.48591 50.9562 7.53016 50.8494 7.53016 50.738C7.53056 50.2372 7.63159 49.7415 7.82725 49.2804C8.02291 48.8194 8.30921 48.4023 8.66916 48.054C8.76111 47.9637 8.87263 47.8958 8.99507 47.8556C9.11751 47.8154 9.24756 47.8039 9.37516 47.822C9.9059 47.8881 10.399 48.1308 10.7752 48.511C11.2722 49.0235 11.9276 49.3534 12.6353 49.4472C13.3431 49.541 14.0618 49.3933 14.6752 49.028C14.8863 49.4378 15.0217 49.8822 15.0752 50.34C15.0872 50.4496 15.1391 50.5509 15.2209 50.6246C15.3028 50.6984 15.409 50.7395 15.5192 50.74H16.3602C16.4716 50.7398 16.5785 50.6953 16.6572 50.6164C16.7359 50.5374 16.7802 50.4305 16.7802 50.319L16.7832 49.476Z" stroke="#020064" stroke-width="1.5" stroke-linecap="round" stroke-linejoin="round"/>
  <path d="M14.675 49.028C14.7194 49.0017 14.7551 48.9628 14.7776 48.9163C14.8001 48.8698 14.8085 48.8177 14.8015 48.7665C14.7946 48.7153 14.7727 48.6673 14.7387 48.6284C14.7046 48.5896 14.6599 48.5616 14.61 48.548C13.9499 48.3619 13.3785 47.945 13 47.373" fill="#FFDF3D"/>
  <path d="M14.675 49.028C14.7194 49.0017 14.7551 48.9628 14.7776 48.9163C14.8001 48.8698 14.8085 48.8177 14.8015 48.7665C14.7946 48.7153 14.7727 48.6673 14.7387 48.6284C14.7046 48.5896 14.6599 48.5616 14.61 48.548C13.9499 48.3619 13.3785 47.945 13 47.373" stroke="#020064" stroke-width="1.5" stroke-linecap="round" stroke-linejoin="round"/>
  <path d="M8.79199 51.3681C8.79199 51.4509 8.80831 51.533 8.84002 51.6095C8.87173 51.6861 8.91821 51.7557 8.97681 51.8142C9.0354 51.8728 9.10496 51.9193 9.18152 51.951C9.25808 51.9827 9.34013 51.9991 9.42299 51.9991C9.50586 51.9991 9.58791 51.9827 9.66447 51.951C9.74102 51.9193 9.81058 51.8728 9.86918 51.8142C9.92777 51.7557 9.97425 51.6861 10.006 51.6095C10.0377 51.533 10.054 51.4509 10.054 51.3681C10.054 51.2852 10.0377 51.2031 10.006 51.1266C9.97425 51.05 9.92777 50.9805 9.86918 50.9219C9.81058 50.8633 9.74102 50.8168 9.66447 50.7851C9.58791 50.7534 9.50586 50.7371 9.42299 50.7371C9.34013 50.7371 9.25808 50.7534 9.18152 50.7851C9.10496 50.8168 9.0354 50.8633 8.97681 50.9219C8.91821 50.9805 8.87173 51.05 8.84002 51.1266C8.80831 51.2031 8.79199 51.2852 8.79199 51.3681Z" fill="#020064"/>
  <path d="M12.5771 51.3681C12.5771 51.5354 12.6436 51.6959 12.762 51.8142C12.8803 51.9326 13.0408 51.9991 13.2081 51.9991C13.3755 51.9991 13.536 51.9326 13.6543 51.8142C13.7727 51.6959 13.8391 51.5354 13.8391 51.3681C13.8391 51.2007 13.7727 51.0402 13.6543 50.9219C13.536 50.8035 13.3755 50.7371 13.2081 50.7371C13.0408 50.7371 12.8803 50.8035 12.762 50.9219C12.6436 51.0402 12.5771 51.2007 12.5771 51.3681Z" fill="#020064"/>
  <path d="M11.3147 44.0082C12.031 44.007 12.7405 44.147 13.4027 44.4202C14.0648 44.6934 14.6666 45.0943 15.1737 45.6002C15.3974 45.2496 15.5176 44.843 15.5207 44.4272C15.5207 42.8012 13.6377 41.4822 11.3147 41.4822C8.99175 41.4822 7.11475 42.8012 7.11475 44.4272C7.11636 44.8425 7.23488 45.249 7.45675 45.6002C7.96372 45.0944 8.56538 44.6935 9.22735 44.4203C9.88932 44.1472 10.5986 44.0071 11.3147 44.0082Z" fill="white" stroke="#020064" stroke-width="1.5" stroke-linecap="round" stroke-linejoin="round"/>
  <path d="M48.2388 12.5391C48.2388 15.4623 49.4 18.2658 51.467 20.3328C53.5341 22.3998 56.3376 23.5611 59.2608 23.5611C62.184 23.5611 64.9875 22.3998 67.0545 20.3328C69.1215 18.2658 70.2828 15.4623 70.2828 12.5391C70.2828 9.61587 69.1215 6.81238 67.0545 4.74536C64.9875 2.67833 62.184 1.51709 59.2608 1.51709C56.3376 1.51709 53.5341 2.67833 51.467 4.74536C49.4 6.81238 48.2388 9.61587 48.2388 12.5391Z" fill="white" stroke="#020064" stroke-width="1.5" stroke-linecap="round" stroke-linejoin="round"/>
  <path d="M66.4102 15.4001C66.4076 15.1288 66.3112 14.8666 66.1373 14.6583C65.9634 14.4499 65.7227 14.3082 65.4562 14.2571V13.4941C65.4562 11.9774 64.8536 10.5227 63.7811 9.4502C62.7086 8.37768 61.254 7.77515 59.7372 7.77515C58.2204 7.77515 56.7658 8.37768 55.6932 9.4502C54.6207 10.5227 54.0182 11.9774 54.0182 13.4941V14.2571C53.7397 14.3085 53.4894 14.4594 53.314 14.6817C53.1385 14.904 53.0499 15.1825 53.0646 15.4653C53.0792 15.7481 53.1963 16.0159 53.3938 16.2188C53.5913 16.4217 53.8559 16.5459 54.1382 16.5681C54.4061 17.8552 55.1091 19.0108 56.129 19.8403C57.149 20.6698 58.4235 21.1226 59.7382 21.1226C61.0528 21.1226 62.3274 20.6698 63.3473 19.8403C64.3672 19.0108 65.0703 17.8552 65.3382 16.5681C65.63 16.5413 65.9014 16.4069 66.0995 16.191C66.2977 15.9751 66.4084 15.6932 66.4102 15.4001Z" fill="white" stroke="#020064" stroke-width="1.5" stroke-linecap="round" stroke-linejoin="round"/>
  <path d="M66.4102 15.4001C66.4076 15.1288 66.3112 14.8666 66.1373 14.6583C65.9634 14.4499 65.7227 14.3082 65.4562 14.2571V13.4941C65.4562 11.9774 64.8536 10.5227 63.7811 9.4502C62.7086 8.37768 61.254 7.77515 59.7372 7.77515C58.2204 7.77515 56.7658 8.37768 55.6932 9.4502C54.6207 10.5227 54.0182 11.9774 54.0182 13.4941V14.2571C53.7397 14.3085 53.4894 14.4594 53.314 14.6817C53.1385 14.904 53.0499 15.1825 53.0646 15.4653C53.0792 15.7481 53.1963 16.0159 53.3938 16.2188C53.5913 16.4217 53.8559 16.5459 54.1382 16.5681C54.4061 17.8552 55.1091 19.0108 56.129 19.8403C57.149 20.6698 58.4235 21.1226 59.7382 21.1226C61.0528 21.1226 62.3274 20.6698 63.3473 19.8403C64.3672 19.0108 65.0703 17.8552 65.3382 16.5681C65.63 16.5413 65.9014 16.4069 66.0995 16.191C66.2977 15.9751 66.4084 15.6932 66.4102 15.4001V15.4001Z" stroke="#020064" stroke-width="1.5" stroke-linecap="round" stroke-linejoin="round"/>
  <path d="M56.8779 14.2072C56.8779 14.3968 56.9533 14.5787 57.0873 14.7128C57.2214 14.8469 57.4033 14.9222 57.5929 14.9222C57.7826 14.9222 57.9644 14.8469 58.0985 14.7128C58.2326 14.5787 58.3079 14.3968 58.3079 14.2072C58.3079 14.0176 58.2326 13.8357 58.0985 13.7016C57.9644 13.5675 57.7826 13.4922 57.5929 13.4922C57.4033 13.4922 57.2214 13.5675 57.0873 13.7016C56.9533 13.8357 56.8779 14.0176 56.8779 14.2072Z" fill="#020064"/>
  <path d="M61.167 14.2072C61.167 14.3968 61.2423 14.5787 61.3764 14.7128C61.5105 14.8469 61.6924 14.9222 61.882 14.9222C62.0716 14.9222 62.2535 14.8469 62.3876 14.7128C62.5217 14.5787 62.597 14.3968 62.597 14.2072C62.597 14.0176 62.5217 13.8357 62.3876 13.7016C62.2535 13.5675 62.0716 13.4922 61.882 13.4922C61.6924 13.4922 61.5105 13.5675 61.3764 13.7016C61.2423 13.8357 61.167 14.0176 61.167 14.2072Z" fill="#020064"/>
  <path d="M55.9248 16.1132C55.9248 16.3028 56.0001 16.4847 56.1342 16.6188C56.2683 16.7529 56.4502 16.8282 56.6398 16.8282C56.8294 16.8282 57.0113 16.7529 57.1454 16.6188C57.2795 16.4847 57.3548 16.3028 57.3548 16.1132C57.3548 15.9236 57.2795 15.7417 57.1454 15.6076C57.0113 15.4735 56.8294 15.3982 56.6398 15.3982C56.4502 15.3982 56.2683 15.4735 56.1342 15.6076C56.0001 15.7417 55.9248 15.9236 55.9248 16.1132Z" fill="#B0D9FF"/>
  <path d="M62.1201 16.1132C62.1201 16.3028 62.1954 16.4847 62.3295 16.6188C62.4636 16.7529 62.6455 16.8282 62.8351 16.8282C63.0247 16.8282 63.2066 16.7529 63.3407 16.6188C63.4748 16.4847 63.5501 16.3028 63.5501 16.1132C63.5501 15.9236 63.4748 15.7417 63.3407 15.6076C63.2066 15.4735 63.0247 15.3982 62.8351 15.3982C62.6455 15.3982 62.4636 15.4735 62.3295 15.6076C62.1954 15.7417 62.1201 15.9236 62.1201 16.1132Z" fill="#B0D9FF"/>
  <path d="M58.3081 17.8252C58.7314 18.1074 59.2288 18.258 59.7376 18.258C60.2464 18.258 60.7438 18.1074 61.1671 17.8252" stroke="#020064" stroke-width="1.5" stroke-linecap="round" stroke-linejoin="round"/>
  <path d="M53.542 9.2002V13.4892C53.542 13.6155 53.5921 13.7367 53.6813 13.8261C53.7706 13.9156 53.8917 13.9659 54.018 13.9662H54.5L56.4 9.2002H53.542Z" fill="white" stroke="#020064" stroke-width="1.5" stroke-linecap="round" stroke-linejoin="round"/>
  <path d="M65.9328 9.67915C65.9325 8.66805 65.5307 7.69846 64.8157 6.9836C64.1006 6.26874 63.1309 5.86715 62.1198 5.86715H57.8308C57.6487 5.86719 57.4705 5.81502 57.3172 5.71682C57.1639 5.61863 57.0419 5.47854 56.9658 5.31315C56.9156 5.20231 56.8369 5.10683 56.7376 5.03653C56.6383 4.96622 56.522 4.92364 56.4008 4.91315H55.5908C54.8608 4.89904 54.1514 5.15548 53.5992 5.6331C53.047 6.11073 52.691 6.77576 52.5998 7.50015C52.5286 8.24799 52.7544 8.99382 53.2286 9.5765C53.7027 10.1592 54.3871 10.5319 55.1338 10.6142C55.2687 11.1201 55.5522 11.5739 55.9478 11.9169C56.3434 12.2599 56.8329 12.4764 57.3528 12.5382H58.3068C58.3445 12.5378 58.381 12.5252 58.4108 12.5022C58.4406 12.4793 58.4621 12.4472 58.4721 12.4109C58.482 12.3746 58.4799 12.336 58.4659 12.3011C58.452 12.2661 58.427 12.2366 58.3948 12.2171C57.9617 11.9586 57.6464 11.5414 57.5158 11.0542C57.501 11.0051 57.4978 10.9533 57.5066 10.9029C57.5154 10.8524 57.5359 10.8048 57.5664 10.7636C57.5969 10.7225 57.6366 10.6891 57.6824 10.6661C57.7281 10.6431 57.7786 10.6311 57.8298 10.6312H61.7238C61.8491 10.6311 61.9731 10.6559 62.0887 10.7039C62.2044 10.752 62.3094 10.8224 62.3978 10.9111L64.9788 13.4911H65.4548C65.5175 13.4913 65.5796 13.479 65.6375 13.4551C65.6954 13.4312 65.7481 13.3961 65.7924 13.3517C65.8367 13.3074 65.8718 13.2548 65.8958 13.1968C65.9197 13.1389 65.9319 13.0768 65.9318 13.0142L65.9328 9.67915Z" fill="white"/>
  <path d="M65.9328 9.67915C65.9325 8.66805 65.5307 7.69846 64.8157 6.9836C64.1006 6.26874 63.1309 5.86715 62.1198 5.86715H57.8308C57.6487 5.86719 57.4705 5.81502 57.3172 5.71682C57.1639 5.61863 57.0419 5.47854 56.9658 5.31315C56.9156 5.20231 56.8369 5.10683 56.7376 5.03653C56.6383 4.96622 56.522 4.92364 56.4008 4.91315H55.5908C54.8608 4.89904 54.1514 5.15548 53.5992 5.6331C53.047 6.11073 52.691 6.77576 52.5998 7.50015C52.5286 8.24799 52.7544 8.99382 53.2286 9.5765C53.7027 10.1592 54.3871 10.5319 55.1338 10.6142C55.2687 11.1201 55.5522 11.5739 55.9478 11.9169C56.3434 12.2599 56.8329 12.4764 57.3528 12.5382H58.3068C58.3445 12.5378 58.381 12.5252 58.4108 12.5022C58.4406 12.4793 58.4621 12.4472 58.4721 12.4109C58.482 12.3746 58.4799 12.336 58.4659 12.3011C58.452 12.2661 58.427 12.2366 58.3948 12.2171C57.9617 11.9586 57.6464 11.5414 57.5158 11.0542C57.501 11.0051 57.4978 10.9533 57.5066 10.9029C57.5154 10.8524 57.5359 10.8048 57.5664 10.7636C57.5969 10.7225 57.6366 10.6891 57.6824 10.6661C57.7281 10.6431 57.7786 10.6311 57.8298 10.6312H61.7238C61.8491 10.6311 61.9731 10.6559 62.0887 10.7039C62.2044 10.752 62.3094 10.8224 62.3978 10.9111L64.9788 13.4911H65.4548C65.5175 13.4913 65.5796 13.479 65.6375 13.4551C65.6954 13.4312 65.7481 13.3961 65.7924 13.3517C65.8367 13.3074 65.8718 13.2548 65.8958 13.1968C65.9197 13.1389 65.9319 13.0768 65.9318 13.0142L65.9328 9.67915Z" stroke="#020064" stroke-width="1.5" stroke-linecap="round" stroke-linejoin="round"/>
  <path d="M73.8926 64.679L77.8942 60.6775L84.8965 67.6801L80.8949 71.6816L73.8926 64.679Z" fill="white" stroke="#020064" stroke-width="1.5" stroke-linecap="round" stroke-linejoin="round"/>
  <path d="M98.5 85.1L98.309 85.291C97.536 86.0578 96.4913 86.4881 95.4025 86.4881C94.3137 86.4881 93.269 86.0578 92.496 85.291L79.861 72.651C79.6053 72.3933 79.4619 72.045 79.4619 71.682C79.4619 71.319 79.6053 70.9707 79.861 70.713L83.927 66.647C84.1845 66.3915 84.5326 66.248 84.8955 66.248C85.2583 66.248 85.6064 66.3915 85.864 66.647L98.5 79.282C98.8837 79.6631 99.1882 80.1163 99.396 80.6156C99.6038 81.1148 99.7107 81.6502 99.7107 82.191C99.7107 82.7318 99.6038 83.2672 99.396 83.7665C99.1882 84.2657 98.8837 84.7189 98.5 85.1Z" fill="#B0D9FF"/>
  <path d="M98.5 85.1L98.309 85.291C97.536 86.0578 96.4913 86.4881 95.4025 86.4881C94.3137 86.4881 93.269 86.0578 92.496 85.291L79.861 72.651C79.6053 72.3933 79.4619 72.045 79.4619 71.682C79.4619 71.319 79.6053 70.9707 79.861 70.713L83.927 66.647C84.1845 66.3915 84.5326 66.248 84.8955 66.248C85.2583 66.248 85.6064 66.3915 85.864 66.647L98.5 79.282C98.8837 79.6631 99.1882 80.1163 99.396 80.6156C99.6038 81.1148 99.7107 81.6502 99.7107 82.191C99.7107 82.7318 99.6038 83.2672 99.396 83.7665C99.1882 84.2657 98.8837 84.7189 98.5 85.1Z" stroke="#020064" stroke-width="1.5" stroke-linecap="round" stroke-linejoin="round"/>
  <path d="M43.7866 60.7494C46.7244 65.5503 51.449 68.9875 56.9211 70.3048C62.3932 71.6222 68.1645 70.7118 72.9653 67.774C77.7662 64.8362 81.2034 60.1115 82.5208 54.6395C83.8381 49.1674 82.9278 43.3961 79.99 38.5952C77.0521 33.7943 72.3275 30.3572 66.8554 29.0398C61.3833 27.7224 55.612 28.6328 50.8112 31.5706C46.0103 34.5084 42.5731 39.2331 41.2557 44.7052C39.9384 50.1772 40.8487 55.9485 43.7866 60.7494Z" fill="white" stroke="#020064" stroke-width="1.5" stroke-linecap="round" stroke-linejoin="round"/>
  <path d="M73.8931 37.6682C76.2673 40.0425 77.8841 43.0676 78.539 46.3607C79.194 49.6539 78.8577 53.0674 77.5727 56.1694C76.2877 59.2715 74.1118 61.9229 71.3199 63.7883C68.5281 65.6537 65.2458 66.6493 61.8881 66.6493C58.5305 66.6493 55.2482 65.6537 52.4564 63.7883C49.6645 61.9229 47.4885 59.2715 46.2036 56.1694C44.9186 53.0674 44.5823 49.6539 45.2373 46.3607C45.8922 43.0676 47.509 40.0425 49.8831 37.6682C51.4596 36.0916 53.3312 34.841 55.391 33.9877C57.4509 33.1345 59.6586 32.6953 61.8881 32.6953C64.1177 32.6953 66.3254 33.1345 68.3853 33.9877C70.4451 34.841 72.3167 36.0916 73.8931 37.6682Z" fill="#B0D9FF"/>
  <path d="M61.4789 57.8101C59.528 57.8211 57.6131 58.3361 55.9199 59.3052C54.2266 60.2743 52.8126 61.6645 51.8149 63.3411C54.6348 65.4172 58.0272 66.5714 61.5281 66.6459C65.029 66.7204 68.4674 65.7114 71.3729 63.7571C70.4112 61.9675 68.9845 60.4705 67.2432 59.4238C65.5019 58.3772 63.5106 57.8197 61.4789 57.8101Z" fill="white"/>
  <path d="M61.4789 57.8101C59.528 57.8211 57.6131 58.3361 55.9199 59.3052C54.2266 60.2743 52.8126 61.6645 51.8149 63.3411C54.6348 65.4172 58.0272 66.5714 61.5281 66.6459C65.029 66.7204 68.4674 65.7114 71.3729 63.7571C70.4112 61.9675 68.9845 60.4705 67.2432 59.4238C65.5019 58.3772 63.5106 57.8197 61.4789 57.8101V57.8101Z" stroke="#020064" stroke-width="1.5" stroke-linejoin="round"/>
  <path d="M64.8328 58.3551C64.6528 58.2978 64.4711 58.2464 64.2878 58.2011C64.076 58.1476 63.8881 58.0249 63.754 57.8524C63.62 57.6799 63.5474 57.4676 63.5478 57.2491V53.8711H59.5708V57.2111C59.5707 57.4308 59.4968 57.644 59.361 57.8167C59.2251 57.9893 59.0352 58.1113 58.8218 58.1631C58.5918 58.2191 58.3628 58.2811 58.1368 58.3521L58.1138 58.3821C58.1726 59.2355 58.5531 60.0348 59.1785 60.6185C59.8038 61.2021 60.6274 61.5268 61.4828 61.5268C62.3382 61.5268 63.1617 61.2021 63.7871 60.6185C64.4124 60.0348 64.7929 59.2355 64.8518 58.3821L64.8328 58.3551Z" fill="white" stroke="#020064" stroke-width="1.5" stroke-linecap="round" stroke-linejoin="round"/>
  <path d="M70.4331 45.5002C70.4331 47.8871 69.4849 50.1763 67.7971 51.8642C66.1092 53.552 63.8201 54.5002 61.4331 54.5002C59.0462 54.5002 56.757 53.552 55.0691 51.8642C53.3813 50.1763 52.4331 47.8871 52.4331 45.5002C52.4331 40.5242 54.9731 36.6202 57.5571 35.8782C57.7724 35.8163 58.0003 35.8135 58.2171 35.8699C58.4338 35.9264 58.6314 36.0401 58.7891 36.1992C61.5871 39.0132 70.4331 35.5062 70.4331 45.5002Z" fill="white"/>
  <path d="M70.4331 45.5002C70.4331 47.8871 69.4849 50.1763 67.7971 51.8642C66.1092 53.552 63.8201 54.5002 61.4331 54.5002C59.0462 54.5002 56.757 53.552 55.0691 51.8642C53.3813 50.1763 52.4331 47.8871 52.4331 45.5002C52.4331 40.5242 54.9731 36.6202 57.5571 35.8782C57.7724 35.8163 58.0003 35.8135 58.2171 35.8699C58.4338 35.9264 58.6314 36.0401 58.7891 36.1992C61.5871 39.0132 70.4331 35.5062 70.4331 45.5002Z" stroke="#020064" stroke-width="1.5" stroke-linecap="round" stroke-linejoin="round"/>
  <path d="M68.9408 47.7502L67.4298 48.5002L66.3398 44.6862C66.2379 44.3199 65.9998 44.0065 65.6742 43.8101C65.3486 43.6138 64.9603 43.5494 64.5888 43.6302C62.5122 44.1249 60.3484 44.1249 58.2718 43.6302C57.9003 43.5497 57.5121 43.6141 57.1866 43.8104C56.861 44.0068 56.6229 44.3201 56.5208 44.6862L55.4308 48.5002L53.9428 47.7502C51.8018 47.7502 51.9428 51.5002 54.3168 51.5002H54.3238C54.7937 53.021 55.7383 54.3514 57.0192 55.2963C58.3001 56.2412 59.85 56.751 61.4418 56.751C63.0335 56.751 64.5834 56.2412 65.8644 55.2963C67.1453 54.3514 68.0899 53.021 68.5598 51.5002C70.9368 51.5002 71.0808 47.7502 68.9408 47.7502Z" fill="white" stroke="#020064" stroke-width="1.5" stroke-linecap="round" stroke-linejoin="round"/>
  <path d="M58.2212 47.938C58.2212 48.173 58.3145 48.3983 58.4807 48.5645C58.6469 48.7307 58.8722 48.824 59.1072 48.824C59.3422 48.824 59.5675 48.7307 59.7337 48.5645C59.8998 48.3983 59.9932 48.173 59.9932 47.938C59.9932 47.703 59.8998 47.4777 59.7337 47.3115C59.5675 47.1454 59.3422 47.052 59.1072 47.052C58.8722 47.052 58.6469 47.1454 58.4807 47.3115C58.3145 47.4777 58.2212 47.703 58.2212 47.938Z" fill="#020064"/>
  <path d="M62.9048 47.938C62.9048 48.173 62.9981 48.3983 63.1643 48.5645C63.3304 48.7307 63.5558 48.824 63.7908 48.824C64.0258 48.824 64.2511 48.7307 64.4173 48.5645C64.5834 48.3983 64.6768 48.173 64.6768 47.938C64.6768 47.703 64.5834 47.4777 64.4173 47.3115C64.2511 47.1454 64.0258 47.052 63.7908 47.052C63.5558 47.052 63.3304 47.1454 63.1643 47.3115C62.9981 47.4777 62.9048 47.703 62.9048 47.938Z" fill="#020064"/>
  <path d="M57.7002 50C57.7002 50.1484 57.6562 50.2934 57.5737 50.4168C57.4913 50.5401 57.3741 50.6363 57.237 50.693C57.0999 50.7497 56.949 50.7645 56.8035 50.7355C56.658 50.7065 56.5244 50.635 56.4195 50.53C56.3147 50.425 56.2433 50.2913 56.2145 50.1457C56.1857 50.0002 56.2007 49.8493 56.2576 49.7123C56.3145 49.5753 56.4108 49.4582 56.5342 49.3759C56.6577 49.2936 56.8028 49.2498 56.9512 49.25C57.0496 49.25 57.1471 49.2694 57.2381 49.3071C57.329 49.3448 57.4116 49.4001 57.4812 49.4697C57.5507 49.5394 57.6059 49.6221 57.6435 49.7131C57.681 49.8041 57.7003 49.9016 57.7002 50Z" fill="#B0D9FF"/>
  <path d="M66.7002 50C66.7002 50.1483 66.6562 50.2933 66.5738 50.4167C66.4914 50.54 66.3743 50.6361 66.2372 50.6929C66.1002 50.7497 65.9494 50.7645 65.8039 50.7356C65.6584 50.7066 65.5248 50.6352 65.4199 50.5303C65.315 50.4254 65.2435 50.2918 65.2146 50.1463C65.1857 50.0008 65.2005 49.85 65.2573 49.713C65.3141 49.5759 65.4102 49.4588 65.5335 49.3764C65.6569 49.294 65.8019 49.25 65.9502 49.25C66.1491 49.25 66.3399 49.329 66.4805 49.4697C66.6212 49.6103 66.7002 49.8011 66.7002 50Z" fill="#B0D9FF"/>
  <path d="M59.5771 52.4331C60.1324 52.8028 60.7846 53.0001 61.4516 53.0001C62.1187 53.0001 62.7709 52.8028 63.3261 52.4331" stroke="#020064" stroke-width="1.5" stroke-linecap="round" stroke-linejoin="round"/>
  <path d="M73.8931 37.6682C76.2673 40.0425 77.8841 43.0676 78.539 46.3607C79.194 49.6539 78.8577 53.0674 77.5727 56.1694C76.2877 59.2715 74.1118 61.9229 71.3199 63.7883C68.5281 65.6537 65.2458 66.6493 61.8881 66.6493C58.5305 66.6493 55.2482 65.6537 52.4564 63.7883C49.6645 61.9229 47.4885 59.2715 46.2036 56.1694C44.9186 53.0674 44.5823 49.6539 45.2373 46.3607C45.8922 43.0676 47.509 40.0425 49.8831 37.6682C51.4596 36.0916 53.3312 34.841 55.391 33.9877C57.4509 33.1345 59.6586 32.6953 61.8881 32.6953C64.1177 32.6953 66.3254 33.1345 68.3853 33.9877C70.4451 34.841 72.3167 36.0916 73.8931 37.6682V37.6682Z" stroke="#020064" stroke-width="1.5" stroke-linecap="round" stroke-linejoin="round"/>
  <path d="M29.271 70.3391C29.271 72.1988 30.0098 73.9824 31.3248 75.2974C32.6398 76.6124 34.4233 77.3511 36.283 77.3511C38.1427 77.3511 39.9262 76.6124 41.2412 75.2974C42.5562 73.9824 43.295 72.1988 43.295 70.3391C43.295 68.4794 42.5562 66.6959 41.2412 65.3809C39.9262 64.0659 38.1427 63.3271 36.283 63.3271C34.4233 63.3271 32.6398 64.0659 31.3248 65.3809C30.0098 66.6959 29.271 68.4794 29.271 70.3391Z" fill="white" stroke="#020064" stroke-width="1.5" stroke-linecap="round" stroke-linejoin="round"/>
  <path d="M34.0269 70.176C34.0269 70.7743 34.2645 71.3481 34.6876 71.7712C35.1107 72.1943 35.6845 72.432 36.2829 72.432C36.8812 72.432 37.455 72.1943 37.8781 71.7712C38.3012 71.3481 38.5389 70.7743 38.5389 70.176V69.048C38.5389 68.4497 38.3012 67.8758 37.8781 67.4528C37.455 67.0297 36.8812 66.792 36.2829 66.792C35.6845 66.792 35.1107 67.0297 34.6876 67.4528C34.2645 67.8758 34.0269 68.4497 34.0269 69.048V70.176Z" fill="white" stroke="#020064" stroke-width="1.5" stroke-linecap="round" stroke-linejoin="round"/>
  <path d="M40.9711 75.5531C39.6842 76.7095 38.0152 77.3492 36.2851 77.3492C34.555 77.3492 32.886 76.7095 31.5991 75.5531C31.9842 74.6289 32.634 73.8393 33.4668 73.2835C34.2996 72.7278 35.2782 72.4308 36.2795 72.4299C37.2807 72.4291 38.2598 72.7244 39.0935 73.2787C39.9273 73.833 40.5785 74.6216 40.9651 75.5451" fill="#B0D9FF"/>
  <path d="M40.9711 75.5531C39.6842 76.7095 38.0152 77.3492 36.2851 77.3492C34.555 77.3492 32.886 76.7095 31.5991 75.5531C31.9842 74.6289 32.634 73.8393 33.4668 73.2835C34.2996 72.7278 35.2782 72.4308 36.2795 72.4299C37.2807 72.4291 38.2598 72.7244 39.0935 73.2787C39.9273 73.833 40.5785 74.6216 40.9651 75.5451" stroke="#020064" stroke-width="1.5" stroke-linecap="round" stroke-linejoin="round"/>
  <path d="M34.0459 68.757C34.1051 68.3021 34.3016 67.876 34.6092 67.5357C34.9168 67.1953 35.3208 66.9568 35.7675 66.8519C36.2141 66.7471 36.6821 66.7809 37.109 66.9489C37.5359 67.1168 37.9014 67.4109 38.1569 67.792C37.6231 68.3097 36.9588 68.6729 36.2348 68.8428C35.5108 69.0128 34.7543 68.9831 34.0459 68.757Z" fill="#B0D9FF" stroke="#020064" stroke-width="1.5" stroke-linecap="round" stroke-linejoin="round"/>
  <path d="M17.2251 19.7542C17.2251 21.6139 17.9639 23.3974 19.2789 24.7124C20.5939 26.0274 22.3774 26.7662 24.2371 26.7662C26.0968 26.7662 27.8803 26.0274 29.1953 24.7124C30.5103 23.3974 31.2491 21.6139 31.2491 19.7542C31.2491 17.8945 30.5103 16.111 29.1953 14.796C27.8803 13.4809 26.0968 12.7422 24.2371 12.7422C22.3774 12.7422 20.5939 13.4809 19.2789 14.796C17.9639 16.111 17.2251 17.8945 17.2251 19.7542Z" fill="white" stroke="#020064" stroke-width="1.5" stroke-linecap="round" stroke-linejoin="round"/>
  <path d="M21.98 19.5912C21.9924 20.1814 22.2356 20.7433 22.6574 21.1563C23.0792 21.5693 23.6461 21.8007 24.2365 21.8007C24.8268 21.8007 25.3937 21.5693 25.8155 21.1563C26.2374 20.7433 26.4806 20.1814 26.493 19.5912V18.4632C26.4806 17.8729 26.2374 17.311 25.8155 16.898C25.3937 16.485 24.8268 16.2537 24.2365 16.2537C23.6461 16.2537 23.0792 16.485 22.6574 16.898C22.2356 17.311 21.9924 17.8729 21.98 18.4632V19.5912Z" fill="white" stroke="#020064" stroke-width="1.5" stroke-linecap="round" stroke-linejoin="round"/>
  <path d="M28.9238 24.9692C27.6366 26.1249 25.9677 26.7642 24.2378 26.7642C22.5078 26.7642 20.8389 26.1249 19.5518 24.9692C19.9368 24.0449 20.5866 23.2553 21.4195 22.6995C22.2523 22.1438 23.2309 21.8468 24.2321 21.8459C25.2333 21.8451 26.2124 22.1404 27.0462 22.6947C27.8799 23.249 28.5311 24.0376 28.9178 24.9612" fill="#B0D9FF"/>
  <path d="M28.9238 24.9692C27.6366 26.1249 25.9677 26.7642 24.2378 26.7642C22.5078 26.7642 20.8389 26.1249 19.5518 24.9692C19.9368 24.0449 20.5866 23.2553 21.4195 22.6995C22.2523 22.1438 23.2309 21.8468 24.2321 21.8459C25.2333 21.8451 26.2124 22.1404 27.0462 22.6947C27.8799 23.249 28.5311 24.0376 28.9178 24.9612" stroke="#020064" stroke-width="1.5" stroke-linecap="round" stroke-linejoin="round"/>
  <path d="M22 18.172C22.0589 17.7168 22.2552 17.2905 22.5629 16.9499C22.8705 16.6093 23.2747 16.3706 23.7215 16.2659C24.1684 16.1611 24.6366 16.1951 25.0635 16.3635C25.4905 16.5318 25.8559 16.8265 26.111 17.208C25.577 17.7254 24.9127 18.0884 24.1887 18.2581C23.4648 18.4279 22.7084 18.3981 22 18.172Z" fill="#B0D9FF" stroke="#020064" stroke-width="1.5" stroke-linecap="round" stroke-linejoin="round"/>
</svg>
