<svg width="104" height="104" viewBox="0 0 104 104" fill="none" xmlns="http://www.w3.org/2000/svg">
  <path d="M0 52C0 65.7913 5.47856 79.0177 15.2304 88.7695C24.9823 98.5214 38.2087 104 52 104C65.7913 104 79.0177 98.5214 88.7695 88.7695C98.5214 79.0177 104 65.7913 104 52C104 38.2087 98.5214 24.9823 88.7695 15.2304C79.0177 5.47856 65.7913 0 52 0C38.2087 0 24.9823 5.47856 15.2304 15.2304C5.47856 24.9823 0 38.2087 0 52Z" fill="#D9EDFF" fill-opacity="0.16"/>
  <path d="M35.5173 37.0837C35.7155 36.9624 35.9426 36.8964 36.1749 36.8927C36.4072 36.8889 36.6363 36.9475 36.8383 37.0623C37.0404 37.1771 37.2079 37.3439 37.3236 37.5455C37.4392 37.747 37.4987 37.9759 37.4959 38.2082C37.3439 42.1794 38.5397 46.0853 40.8889 49.2907C41.0835 49.5479 41.3674 49.7228 41.6846 49.7808C42.0019 49.8388 42.3293 49.7757 42.6023 49.604C44.7031 48.2923 49.569 44.1739 52 33.2331C53.2901 27.7298 53.5015 22.0287 52.6227 16.4449C52.5804 16.2017 52.6087 15.9515 52.7041 15.7239C52.7996 15.4963 52.9582 15.3008 53.1613 15.1605C53.3644 15.0202 53.6034 14.941 53.85 14.9322C54.0967 14.9235 54.3407 14.9855 54.5532 15.1111C62.4142 19.7874 68.9386 26.4091 73.498 34.3383C78.0575 42.2676 80.4984 51.2373 80.5857 60.3836C80.9562 76.6115 68.1382 90.4916 51.9064 90.4396C44.337 90.4155 37.0858 87.3917 31.7419 82.0308C26.3981 76.6698 23.3974 69.4091 23.3974 61.8396C23.4 50.0694 28.7222 41.4972 35.5173 37.0837Z" fill="#B0D9FF" stroke="#0D47A1" stroke-width="1.5"/>
  <path d="M60.9934 56.5499C60.783 56.4608 60.5529 56.4288 60.3262 56.457C60.0995 56.4851 59.8842 56.5726 59.702 56.7105C59.5199 56.8483 59.3773 57.0318 59.2886 57.2423C59.1999 57.4528 59.1682 57.683 59.1968 57.9097C59.3423 58.8906 59.398 59.8827 59.3632 60.8737C59.1383 67.3542 55.094 71.314 50.557 71.1567C49.1979 71.1294 47.8749 70.7139 46.7441 69.9594C45.6134 69.2048 44.7221 68.1425 44.1753 66.8979C44.0617 66.6426 43.8688 66.4306 43.6253 66.2936C43.3818 66.1565 43.1006 66.1015 42.8233 66.1368C42.5461 66.1721 42.2877 66.2958 42.0863 66.4896C41.8849 66.6833 41.7513 66.9368 41.7053 67.2125C41.3403 69.167 41.3868 71.1761 41.842 73.1115C42.2971 75.047 43.1509 76.8663 44.3487 78.4532C45.5466 80.0401 47.0622 81.3598 48.7988 82.328C50.5354 83.2962 52.4549 83.8916 54.4345 84.0762C56.4142 84.2608 58.4106 84.0306 60.2963 83.4001C62.182 82.7697 63.9155 81.753 65.3861 80.4149C66.8567 79.0768 68.0321 77.4467 68.8373 75.6288C69.6424 73.8108 70.0596 71.8449 70.0622 69.8567C70.0618 66.9844 69.1965 64.1789 67.5789 61.8054C65.9614 59.432 63.6666 57.6006 60.9934 56.5499Z" fill="white" stroke="#0D47A1" stroke-width="1.5"/>
</svg>
