<svg width="85" height="80" viewBox="0 0 85 80" fill="none" xmlns="http://www.w3.org/2000/svg">
  <path d="M0.134766 40C0.134766 50.6087 4.34904 60.7828 11.8505 68.2843C19.3519 75.7857 29.5261 80 40.1348 80C50.7434 80 60.9176 75.7857 68.419 68.2843C75.9205 60.7828 80.1348 50.6087 80.1348 40C80.1348 29.3913 75.9205 19.2172 68.419 11.7157C60.9176 4.21427 50.7434 0 40.1348 0C29.5261 0 19.3519 4.21427 11.8505 11.7157C4.34904 19.2172 0.134766 29.3913 0.134766 40Z" fill="#D9EDFF" fill-opacity="0.16"/>
  <path d="M58.9996 65.306H21.6996C21.0318 65.306 20.3914 65.0407 19.9191 64.5685C19.4469 64.0963 19.1816 63.4558 19.1816 62.788V14.5C19.1816 13.8038 19.4582 13.1361 19.9505 12.6438C20.4428 12.1516 21.1104 11.875 21.8066 11.875H58.8866C59.5828 11.875 60.2505 12.1516 60.7428 12.6438C61.2351 13.1361 61.5116 13.8038 61.5116 14.5V62.788C61.5119 63.4549 61.2475 64.0946 60.7765 64.5667C60.3056 65.0388 59.6665 65.3047 58.9996 65.306Z" fill="#B0D9FF"/>
  <path d="M58.9996 65.306H21.6996C21.0318 65.306 20.3914 65.0407 19.9191 64.5685C19.4469 64.0963 19.1816 63.4558 19.1816 62.788V14.5C19.1816 13.8038 19.4582 13.1361 19.9505 12.6438C20.4428 12.1516 21.1104 11.875 21.8066 11.875H58.8866C59.5828 11.875 60.2505 12.1516 60.7428 12.6438C61.2351 13.1361 61.5116 13.8038 61.5116 14.5V62.788C61.5119 63.4549 61.2475 64.0946 60.7765 64.5667C60.3056 65.0388 59.6665 65.3047 58.9996 65.306V65.306Z" stroke="#020064" stroke-width="1.5" stroke-linecap="round" stroke-linejoin="round"/>
  <path d="M23.3467 16.0371H57.3487V61.1421H23.3467V16.0371Z" fill="white"/>
  <path d="M57.3488 31.489L47.4748 42.189C46.8521 42.8656 46.5234 43.7617 46.5609 44.6804C46.5984 45.5991 46.999 46.4654 47.6748 47.089C48.0988 47.4799 48.6148 47.7572 49.1748 47.895L45.9648 51.106L46.4558 51.597L42.1198 55.932C41.9256 56.1253 41.7929 56.3716 41.7383 56.64C41.6837 56.9085 41.7097 57.187 41.8129 57.4408C41.9161 57.6945 42.092 57.9121 42.3184 58.0662C42.5449 58.2204 42.8119 58.3041 43.0858 58.307C43.1866 58.3068 43.2871 58.2964 43.3858 58.276C47.1858 57.468 49.1188 56.301 49.1408 54.803L49.4028 54.54L50.3848 55.522L52.7998 53.1C52.9709 53.237 53.1544 53.3578 53.3478 53.461C53.9864 53.8009 54.7152 53.9328 55.4324 53.8381C56.1496 53.7435 56.8193 53.427 57.3478 52.933L57.3488 31.489Z" fill="#B0D9FF"/>
  <path d="M23.3467 16.0371H57.3487V61.1421H23.3467V16.0371Z" stroke="#020064" stroke-width="1.5" stroke-linecap="round" stroke-linejoin="round"/>
  <path d="M28.1938 27.1399H49.3968" stroke="#020064" stroke-width="1.5" stroke-linecap="round" stroke-linejoin="round"/>
  <path d="M28.1938 33.385H49.3968" stroke="#020064" stroke-width="1.5" stroke-linecap="round" stroke-linejoin="round"/>
  <path d="M28.1938 40.325H42.9718" stroke="#020064" stroke-width="1.5" stroke-linecap="round" stroke-linejoin="round"/>
  <path d="M30.8508 9.79199H49.8448C50.178 9.79305 50.4972 9.92616 50.7325 10.1622C50.9677 10.3982 51.0998 10.7178 51.0998 11.051V17.551C51.0998 17.8852 50.967 18.2057 50.7308 18.4419C50.4945 18.6782 50.174 18.811 49.8398 18.811H30.8518C30.5176 18.811 30.1971 18.6782 29.9608 18.4419C29.7245 18.2057 29.5918 17.8852 29.5918 17.551V11.051C29.5918 10.7171 29.7244 10.3969 29.9606 10.1607C30.1967 9.92464 30.5169 9.79199 30.8508 9.79199Z" fill="white"/>
  <path d="M30.8508 9.79199H49.8448C50.178 9.79305 50.4972 9.92616 50.7325 10.1622C50.9677 10.3982 51.0998 10.7178 51.0998 11.051V17.551C51.0998 17.8852 50.967 18.2057 50.7308 18.4419C50.4945 18.6782 50.174 18.811 49.8398 18.811H30.8518C30.5176 18.811 30.1971 18.6782 29.9608 18.4419C29.7245 18.2057 29.5918 17.8852 29.5918 17.551V11.051C29.5918 10.7171 29.7244 10.3969 29.9606 10.1607C30.1967 9.92464 30.5169 9.79199 30.8508 9.79199V9.79199Z" stroke="#020064" stroke-width="1.5" stroke-linecap="round" stroke-linejoin="round"/>
  <path d="M34.4487 16.0371H46.2457" stroke="#020064" stroke-width="1.5" stroke-linecap="round" stroke-linejoin="round"/>
  <path d="M37.2246 9.09793C37.2246 9.55362 37.3144 10.0048 37.4888 10.4258C37.6631 10.8468 37.9187 11.2294 38.241 11.5516C38.5632 11.8738 38.9457 12.1294 39.3667 12.3038C39.7877 12.4782 40.2389 12.5679 40.6946 12.5679C41.1503 12.5679 41.6015 12.4782 42.0225 12.3038C42.4435 12.1294 42.8261 11.8738 43.1483 11.5516C43.4705 11.2294 43.7261 10.8468 43.9005 10.4258C44.0749 10.0048 44.1646 9.55362 44.1646 9.09793C44.1646 8.64224 44.0749 8.19102 43.9005 7.77002C43.7261 7.34902 43.4705 6.96649 43.1483 6.64427C42.8261 6.32205 42.4435 6.06645 42.0225 5.89207C41.6015 5.71768 41.1503 5.62793 40.6946 5.62793C40.2389 5.62793 39.7877 5.71768 39.3667 5.89207C38.9457 6.06645 38.5632 6.32205 38.241 6.64427C37.9187 6.96649 37.6631 7.34902 37.4888 7.77002C37.3144 8.19102 37.2246 8.64224 37.2246 9.09793Z" fill="white"/>
  <path d="M37.2246 9.09793C37.2246 9.55362 37.3144 10.0048 37.4888 10.4258C37.6631 10.8468 37.9187 11.2294 38.241 11.5516C38.5632 11.8738 38.9457 12.1294 39.3667 12.3038C39.7877 12.4782 40.2389 12.5679 40.6946 12.5679C41.1503 12.5679 41.6015 12.4782 42.0225 12.3038C42.4435 12.1294 42.8261 11.8738 43.1483 11.5516C43.4705 11.2294 43.7261 10.8468 43.9005 10.4258C44.0749 10.0048 44.1646 9.55362 44.1646 9.09793C44.1646 8.64224 44.0749 8.19102 43.9005 7.77002C43.7261 7.34902 43.4705 6.96649 43.1483 6.64427C42.8261 6.32205 42.4435 6.06645 42.0225 5.89207C41.6015 5.71768 41.1503 5.62793 40.6946 5.62793C40.2389 5.62793 39.7877 5.71768 39.3667 5.89207C38.9457 6.06645 38.5632 6.32205 38.241 6.64427C37.9187 6.96649 37.6631 7.34902 37.4888 7.77002C37.3144 8.19102 37.2246 8.64224 37.2246 9.09793V9.09793Z" stroke="#020064" stroke-width="1.5" stroke-linecap="round" stroke-linejoin="round"/>
  <path d="M54.9565 39.893L67.1115 44.427L72.2245 36.227L59.0085 32.658L54.9565 39.893Z" fill="#D9EDFF"/>
  <path d="M74.3347 53.729L83.7487 44.315C83.7855 44.2795 83.8242 44.2461 83.8647 44.215C80.7137 41.481 79.9367 35.689 73.8767 32.525C65.8997 28.359 56.0337 29.353 47.3677 40.175C47.1693 40.4105 47.0199 40.6832 46.9282 40.9772C46.8365 41.2712 46.8044 41.5806 46.8338 41.8871C46.8631 42.1937 46.9534 42.4913 47.0992 42.7625C47.245 43.0338 47.4434 43.2732 47.6829 43.4668C47.9224 43.6604 48.1982 43.8043 48.4939 43.89C48.7897 43.9757 49.0997 44.0015 49.4056 43.966C49.7115 43.9304 50.0072 43.8342 50.2754 43.6829C50.5437 43.5316 50.779 43.3283 50.9677 43.085C51.5424 42.3743 52.1197 41.7126 52.6997 41.1C52.9036 41.3176 53.1477 41.4935 53.4187 41.618C62.4857 48.483 64.3187 49.355 66.5367 50.218C69.9667 51.551 71.4807 52.195 74.0027 54.478C74.018 54.1961 74.1361 53.9296 74.3347 53.729ZM68.1227 39.076C67.3588 40.0003 66.2958 40.6286 65.1176 40.8521C63.9394 41.0756 62.7201 40.8803 61.6707 40.3L56.3087 37.848C59.4377 35.558 62.5947 34.602 65.7387 35.012C68.4137 35.356 69.0327 37.722 68.1227 39.076Z" fill="white"/>
  <path d="M25.0757 73.34C25.0757 73.8004 26.6612 74.242 29.4834 74.5675C32.3057 74.8931 36.1334 75.076 40.1247 75.076C44.1159 75.076 47.9437 74.8931 50.7659 74.5675C53.5882 74.242 55.1737 73.8004 55.1737 73.34C55.1737 72.8796 53.5882 72.438 50.7659 72.1125C47.9437 71.7869 44.1159 71.604 40.1247 71.604C36.1334 71.604 32.3057 71.7869 29.4834 72.1125C26.6612 72.438 25.0757 72.8796 25.0757 73.34Z" fill="#D9EDFF" fill-opacity="0.16"/>
  <path d="M30.3117 47.5359C29.9529 47.8944 29.6881 48.3359 29.5408 48.8213C29.3934 49.3066 29.368 49.8208 29.4668 50.3183C29.5657 50.8158 29.7857 51.2813 30.1075 51.6734C30.4292 52.0656 30.8426 52.3723 31.3112 52.5665C31.7798 52.7606 32.2891 52.8362 32.7939 52.7865C33.2987 52.7368 33.7834 52.5633 34.2052 52.2815C34.6269 51.9997 34.9726 51.6182 35.2117 51.1709C35.4507 50.7235 35.5758 50.2241 35.5757 49.7169V50.3329C35.5691 50.6611 35.628 50.9873 35.7491 51.2925C35.8701 51.5977 36.0508 51.8756 36.2806 52.1101C36.5104 52.3445 36.7846 52.5308 37.0873 52.6579C37.3899 52.7851 37.7149 52.8506 38.0432 52.8506C38.3715 52.8506 38.6965 52.7851 38.9991 52.6579C39.3018 52.5308 39.576 52.3445 39.8058 52.1101C40.0356 51.8756 40.2163 51.5977 40.3373 51.2925C40.4584 50.9873 40.5173 50.6611 40.5107 50.3329C40.5107 50.9872 40.7706 51.6147 41.2333 52.0773C41.6959 52.54 42.3234 52.7999 42.9777 52.7999H44.8277" stroke="#020064" stroke-width="1.5" stroke-linecap="round" stroke-linejoin="round"/>
  <path d="M60.9108 40.839C61.2146 40.8552 61.5122 40.9312 61.7866 41.0624C62.061 41.1937 62.3069 41.3777 62.5101 41.604C62.7134 41.8303 62.8701 42.0945 62.9713 42.3814C63.0725 42.6682 63.1162 42.9722 63.0998 43.276L62.6928 50.79C62.6764 51.0936 62.6002 51.391 62.4688 51.6652C62.3374 51.9394 62.1533 52.185 61.9269 52.3881C61.7006 52.5911 61.4365 52.7476 61.1497 52.8485C60.8628 52.9495 60.559 52.993 60.2553 52.9765C59.9517 52.96 59.6543 52.8839 59.3801 52.7525C59.1059 52.6211 58.8603 52.4369 58.6573 52.2106C58.4542 51.9842 58.2978 51.7201 58.1968 51.4333C58.0958 51.1465 58.0524 50.8426 58.0688 50.539L58.4758 43.026C58.5089 42.4131 58.784 41.8385 59.2406 41.4284C59.6972 41.0183 60.298 40.8063 60.9108 40.839Z" fill="#D9EDFF" stroke="#020064" stroke-width="1.5" stroke-linecap="round" stroke-linejoin="round"/>
  <path d="M58.5189 40.117C59.0607 40.4059 59.4657 40.898 59.6448 41.4853C59.8238 42.0727 59.7624 42.707 59.4739 43.249L56.7109 48.627C56.4222 49.169 55.93 49.5741 55.3427 49.7532C54.7553 49.9323 54.1208 49.8707 53.5789 49.582C53.0369 49.2934 52.6318 48.8012 52.4527 48.2138C52.2736 47.6265 52.3352 46.992 52.6239 46.45L55.3869 41.072C55.6757 40.5302 56.1679 40.1252 56.7552 39.9462C57.3425 39.7671 57.9769 39.8285 58.5189 40.117Z" fill="#D9EDFF" stroke="#020064" stroke-width="1.5" stroke-linecap="round" stroke-linejoin="round"/>
  <path d="M83.7487 44.315C83.7855 44.2795 83.8242 44.2461 83.8647 44.215C80.7137 41.481 79.9367 35.689 73.8767 32.525C65.8997 28.359 56.0337 29.353 47.3677 40.175C47.1693 40.4105 47.0199 40.6832 46.9282 40.9772C46.8365 41.2712 46.8044 41.5806 46.8338 41.8871C46.8631 42.1937 46.9534 42.4913 47.0992 42.7625C47.245 43.0338 47.4434 43.2732 47.6829 43.4668C47.9224 43.6604 48.1982 43.8043 48.4939 43.89C48.7897 43.9757 49.0997 44.0015 49.4056 43.966C49.7115 43.9304 50.0072 43.8342 50.2754 43.6829C50.5437 43.5316 50.779 43.3283 50.9677 43.085C51.5424 42.3743 52.1197 41.7126 52.6997 41.1C52.9036 41.3176 53.1477 41.4935 53.4187 41.618C62.4857 48.483 64.3187 49.355 66.5367 50.218C69.9667 51.551 71.4807 52.195 74.0027 54.478L83.7487 44.315ZM68.1267 39.078C67.3623 40.003 66.2984 40.6315 65.1194 40.8547C63.9403 41.0778 62.7203 40.8816 61.6707 40.3L56.3087 37.848C59.4377 35.558 62.5947 34.602 65.7387 35.012C68.4137 35.356 69.0327 37.722 68.1227 39.076L68.1267 39.078Z" stroke="#020064" stroke-width="1.5" stroke-linecap="round" stroke-linejoin="round"/>
  <path d="M66.1176 39.5361L63.0996 35.2891L72.4996 28.6121C72.7525 28.4324 73.0384 28.3043 73.3408 28.2351C73.6432 28.1659 73.9563 28.1569 74.2622 28.2087C74.5681 28.2605 74.8608 28.3721 75.1235 28.5371C75.3863 28.702 75.614 28.9171 75.7936 29.1701L76.0746 29.5651C76.2543 29.818 76.3824 30.1038 76.4516 30.4063C76.5208 30.7087 76.5298 31.0218 76.478 31.3277C76.4262 31.6336 76.3146 31.9263 76.1496 32.189C75.9847 32.4518 75.7696 32.6795 75.5166 32.8591L66.1176 39.5361Z" fill="#B0D9FF"/>
  <path d="M66.1176 39.5361L63.0996 35.2891L72.4996 28.6121C72.7525 28.4324 73.0384 28.3043 73.3408 28.2351C73.6432 28.1659 73.9563 28.1569 74.2622 28.2087C74.5681 28.2605 74.8608 28.3721 75.1235 28.5371C75.3863 28.702 75.614 28.9171 75.7936 29.1701L76.0746 29.5651C76.2543 29.818 76.3824 30.1038 76.4516 30.4063C76.5208 30.7087 76.5298 31.0218 76.478 31.3277C76.4262 31.6336 76.3146 31.9263 76.1496 32.189C75.9847 32.4518 75.7696 32.6795 75.5166 32.8591L66.1176 39.5361Z" stroke="#020064" stroke-width="1.5" stroke-linecap="round" stroke-linejoin="round"/>
  <path d="M63.5107 32.868L70.1177 28.175C70.3019 28.0381 70.5118 27.94 70.7349 27.8864C70.9579 27.8328 71.1896 27.8249 71.4158 27.8632C71.642 27.9015 71.8581 27.9852 72.0511 28.1093C72.2441 28.2333 72.4099 28.3951 72.5387 28.585" stroke="#020064" stroke-width="1.5" stroke-linecap="round" stroke-linejoin="round"/>
  <path d="M48.321 47.208L43.68 50.508C43.5774 50.5794 43.5008 50.682 43.4615 50.8006C43.4222 50.9192 43.4224 51.0474 43.462 51.1658C43.5016 51.2843 43.5786 51.3867 43.6814 51.4578C43.7841 51.5289 43.9071 51.5647 44.032 51.56C45.978 51.48 48.759 51.127 48.7179 49.769L49.662 49.099L48.321 47.208Z" fill="#B0D9FF" stroke="#020064" stroke-width="1.5" stroke-linecap="round" stroke-linejoin="round"/>
  <path d="M49.9995 49.5681L48.3235 47.2081C48.2347 47.0829 48.1993 46.9276 48.225 46.7762C48.2507 46.6249 48.3354 46.49 48.4605 46.4011L50.8195 44.7251L53.1665 48.0251L50.7995 49.7001C50.6754 49.7872 50.5221 49.8222 50.3726 49.7975C50.223 49.7728 50.089 49.6905 49.9995 49.5681Z" fill="white"/>
  <path d="M49.9995 49.5681L48.3235 47.2081C48.2347 47.0829 48.1993 46.9276 48.225 46.7762C48.2507 46.6249 48.3354 46.49 48.4605 46.4011L50.8195 44.7251L53.1665 48.0251L50.7995 49.7001C50.6754 49.7872 50.5221 49.8222 50.3726 49.7975C50.223 49.7728 50.089 49.6905 49.9995 49.5681Z" stroke="#020064" stroke-width="1.5" stroke-linecap="round" stroke-linejoin="round"/>
  <path d="M52.8286 47.5561L51.1526 45.2001C51.0645 45.0762 51.0017 44.9362 50.9677 44.788C50.9338 44.6398 50.9293 44.4864 50.9547 44.3365C50.98 44.1866 51.0347 44.0432 51.1155 43.9144C51.1963 43.7856 51.3017 43.6741 51.4256 43.5861L63.0996 35.2891L66.1166 39.5361L54.4426 47.8301C54.3187 47.9181 54.1786 47.9809 54.0304 48.0148C53.8822 48.0487 53.7288 48.053 53.5789 48.0276C53.429 48.0021 53.2856 47.9474 53.1568 47.8665C53.0281 47.7856 52.9166 47.6801 52.8286 47.5561Z" fill="#B0D9FF"/>
  <path d="M52.8286 47.5561L51.1526 45.2001C51.0645 45.0762 51.0017 44.9362 50.9677 44.788C50.9338 44.6398 50.9293 44.4864 50.9547 44.3365C50.98 44.1866 51.0347 44.0432 51.1155 43.9144C51.1963 43.7856 51.3017 43.6741 51.4256 43.5861L63.0996 35.2891L66.1166 39.5361L54.4426 47.8301C54.3187 47.9181 54.1786 47.9809 54.0304 48.0148C53.8822 48.0487 53.7288 48.053 53.5789 48.0276C53.429 48.0021 53.2856 47.9474 53.1568 47.8665C53.0281 47.7856 52.9166 47.6801 52.8286 47.5561Z" stroke="#020064" stroke-width="1.5" stroke-linecap="round" stroke-linejoin="round"/>
  <path d="M68.1229 39.076C67.359 40.0004 66.296 40.6286 65.1178 40.8522C63.9396 41.0757 62.7204 40.8804 61.6709 40.3L55.3409 37.4C55.0636 37.268 54.7628 37.1925 54.4561 37.1779C54.1493 37.1633 53.8427 37.2098 53.5541 37.3148C53.2654 37.4198 53.0006 37.5812 52.7749 37.7895C52.5492 37.9978 52.3673 38.2489 52.2395 38.5282C52.1118 38.8075 52.0409 39.1094 52.031 39.4164C52.0211 39.7233 52.0723 40.0292 52.1817 40.3162C52.291 40.6031 52.4564 40.8655 52.6681 41.088C52.8799 41.3104 53.1337 41.4886 53.415 41.612C62.4819 48.478 64.3149 49.349 66.5329 50.212" fill="white"/>
  <path d="M68.1229 39.076C67.359 40.0004 66.296 40.6286 65.1178 40.8522C63.9396 41.0757 62.7204 40.8804 61.6709 40.3L55.3409 37.4C55.0636 37.268 54.7628 37.1925 54.4561 37.1779C54.1493 37.1633 53.8427 37.2098 53.5541 37.3148C53.2654 37.4198 53.0006 37.5812 52.7749 37.7895C52.5492 37.9978 52.3673 38.2489 52.2395 38.5282C52.1118 38.8075 52.0409 39.1094 52.031 39.4164C52.0211 39.7233 52.0723 40.0292 52.1817 40.3162C52.291 40.6031 52.4564 40.8655 52.6681 41.088C52.8799 41.3104 53.1337 41.4886 53.415 41.612C62.4819 48.478 64.3149 49.349 66.5329 50.212" stroke="#020064" stroke-width="1.5" stroke-linecap="round" stroke-linejoin="round"/>
  <path d="M68.1229 39.076C67.359 40.0004 66.296 40.6286 65.1178 40.8522C63.9396 41.0757 62.7204 40.8804 61.6709 40.3L55.3409 37.4C55.0636 37.268 54.7628 37.1925 54.4561 37.1779C54.1493 37.1633 53.8427 37.2098 53.5541 37.3148C53.2654 37.4198 53.0006 37.5812 52.7749 37.7895C52.5492 37.9978 52.3673 38.2489 52.2395 38.5282C52.1118 38.8075 52.0409 39.1094 52.031 39.4164C52.0211 39.7233 52.0723 40.0292 52.1817 40.3162C52.291 40.6031 52.4564 40.8655 52.6681 41.088C52.8799 41.3104 53.1337 41.4886 53.415 41.612C62.4819 48.478 64.3149 49.349 66.5329 50.212" fill="white"/>
  <path d="M68.1229 39.076C67.359 40.0004 66.296 40.6286 65.1178 40.8522C63.9396 41.0757 62.7204 40.8804 61.6709 40.3L55.3409 37.4C55.0636 37.268 54.7628 37.1925 54.4561 37.1779C54.1493 37.1633 53.8427 37.2098 53.5541 37.3148C53.2654 37.4198 53.0006 37.5812 52.7749 37.7895C52.5492 37.9978 52.3673 38.2489 52.2395 38.5282C52.1118 38.8075 52.0409 39.1094 52.031 39.4164C52.0211 39.7233 52.0723 40.0292 52.1817 40.3162C52.291 40.6031 52.4564 40.8655 52.6681 41.088C52.8799 41.3104 53.1337 41.4886 53.415 41.612C62.4819 48.478 64.3149 49.349 66.5329 50.212" stroke="#020064" stroke-width="1.5" stroke-linecap="round" stroke-linejoin="round"/>
</svg>
