<svg width="104" height="107" viewBox="0 0 104 107" fill="none" xmlns="http://www.w3.org/2000/svg">
  <path d="M0 54.8281C0 68.6194 5.47856 81.8458 15.2304 91.5977C24.9823 101.35 38.2087 106.828 52 106.828C65.7913 106.828 79.0177 101.35 88.7695 91.5977C98.5214 81.8458 104 68.6194 104 54.8281C104 41.0369 98.5214 27.8105 88.7695 18.0586C79.0177 8.30668 65.7913 2.82813 52 2.82812C38.2087 2.82813 24.9823 8.30668 15.2304 18.0586C5.47856 27.8105 0 41.0369 0 54.8281Z" fill="#D9EDFF" fill-opacity="0.16"/>
  <path d="M36.0607 98.1688C36.0607 98.6859 37.9782 99.1819 41.3914 99.5476C44.8045 99.9133 49.4338 100.119 54.2607 100.119C59.0876 100.119 63.7169 99.9133 67.13 99.5476C70.5432 99.1819 72.4607 98.6859 72.4607 98.1688C72.4607 97.6516 70.5432 97.1556 67.13 96.7899C63.7169 96.4242 59.0876 96.2188 54.2607 96.2188C49.4338 96.2188 44.8045 96.4242 41.3914 96.7899C37.9782 97.1556 36.0607 97.6516 36.0607 98.1688Z" fill="#B0D9FF" fill-opacity="0.16"/>
  <path d="M31.5354 84.0404H35.0246C35.4873 84.0404 35.931 83.8566 36.2582 83.5294C36.5854 83.2022 36.7692 82.7585 36.7692 82.2958V62.2329C36.7692 61.7702 36.5854 61.3264 36.2582 60.9993C35.931 60.6721 35.4873 60.4883 35.0246 60.4883H31.5354V84.0404Z" fill="white" stroke="#0D47A1" stroke-width="1.5" stroke-linecap="round" stroke-linejoin="round"/>
  <path d="M56.8334 57.8715C57.4834 51.3533 58.3479 37.3718 52.9074 37.3718C51.8665 37.3718 50.8682 37.7853 50.1322 38.5213C49.3962 39.2574 48.9827 40.2556 48.9827 41.2965V42.6056C48.9827 52.2009 44.8227 62.2356 36.7627 62.2356V82.2985H37.7923C42.8233 82.2985 45.2023 85.7877 54.2165 85.7877H69.4824C70.4078 85.7877 71.2953 85.4201 71.9496 84.7658C72.604 84.1114 72.9716 83.2239 72.9716 82.2985C72.9716 81.3731 72.604 80.4856 71.9496 79.8313C71.2953 79.1769 70.4078 78.8093 69.4824 78.8093H71.227C72.1524 78.8093 73.0399 78.4417 73.6942 77.7874C74.3486 77.133 74.7162 76.2455 74.7162 75.3201C74.7162 74.3947 74.3486 73.5072 73.6942 72.8529C73.0399 72.1985 72.1524 71.8309 71.227 71.8309H72.9716C73.897 71.8309 74.7845 71.4633 75.4388 70.809C76.0932 70.1546 76.4608 69.2671 76.4608 68.3417C76.4608 67.4163 76.0932 66.5288 75.4388 65.8745C74.7845 65.2201 73.897 64.8525 72.9716 64.8525H74.7162C75.6416 64.8525 76.5291 64.4849 77.1834 63.8306C77.8378 63.1762 78.2054 62.2887 78.2054 61.3633C78.2054 60.4379 77.8378 59.5504 77.1834 58.8961C76.5291 58.2417 75.6416 57.8741 74.7162 57.8741L56.8334 57.8715Z" fill="white"/>
  <path d="M53.3442 57.8713H56.8334" stroke="#0D47A1" stroke-width="1.5" stroke-linecap="round" stroke-linejoin="round"/>
  <path d="M69.4824 78.8066H67.7378" stroke="#0D47A1" stroke-width="1.5" stroke-linecap="round" stroke-linejoin="round"/>
  <path d="M71.227 71.8281H69.4824" stroke="#0D47A1" stroke-width="1.5" stroke-linecap="round" stroke-linejoin="round"/>
  <path d="M72.9716 64.8499H71.227" stroke="#0D47A1" stroke-width="1.5" stroke-linecap="round" stroke-linejoin="round"/>
  <path d="M56.8334 57.8715C57.4834 51.3533 58.3479 37.3718 52.9074 37.3718C51.8665 37.3718 50.8682 37.7853 50.1322 38.5213C49.3962 39.2574 48.9827 40.2556 48.9827 41.2965V42.6056C48.9827 52.2009 44.8227 62.2356 36.7627 62.2356V82.2985H37.7923C42.8233 82.2985 45.2023 85.7877 54.2165 85.7877H69.4824C70.4078 85.7877 71.2953 85.4201 71.9496 84.7658C72.604 84.1114 72.9716 83.2239 72.9716 82.2985C72.9716 81.3731 72.604 80.4856 71.9496 79.8313C71.2953 79.1769 70.4078 78.8093 69.4824 78.8093H71.227C72.1524 78.8093 73.0399 78.4417 73.6942 77.7874C74.3486 77.133 74.7162 76.2455 74.7162 75.3201C74.7162 74.3947 74.3486 73.5072 73.6942 72.8529C73.0399 72.1985 72.1524 71.8309 71.227 71.8309H72.9716C73.897 71.8309 74.7845 71.4633 75.4388 70.809C76.0932 70.1546 76.4608 69.2671 76.4608 68.3417C76.4608 67.4163 76.0932 66.5288 75.4388 65.8745C74.7845 65.2201 73.897 64.8525 72.9716 64.8525H74.7162C75.6416 64.8525 76.5291 64.4849 77.1834 63.8306C77.8378 63.1762 78.2054 62.2887 78.2054 61.3633C78.2054 60.4379 77.8378 59.5504 77.1834 58.8961C76.5291 58.2417 75.6416 57.8741 74.7162 57.8741L56.8334 57.8715Z" stroke="#0D47A1" stroke-width="1.5" stroke-linecap="round" stroke-linejoin="round"/>
  <path d="M19.3232 58.7437H31.5354V85.7863H19.3232V58.7437Z" fill="#B0D9FF"/>
  <path d="M19.3232 58.7437H31.5354V85.7863H19.3232V58.7437Z" stroke="#0D47A1" stroke-width="1.5" stroke-linecap="round" stroke-linejoin="round"/>
  <path d="M53.5119 2.00004L56.1821 7.40934C56.2874 7.62443 56.4437 7.81047 56.6375 7.95119C56.8312 8.09192 57.0565 8.18306 57.2936 8.21663L63.2645 9.08504C63.537 9.12463 63.7929 9.23966 64.0034 9.41713C64.2139 9.5946 64.3706 9.82742 64.4556 10.0893C64.5407 10.3511 64.5508 10.6316 64.4848 10.8989C64.4188 11.1662 64.2794 11.4097 64.0822 11.6018L59.761 15.8138C59.5911 15.9805 59.4638 16.1857 59.3901 16.412C59.3163 16.6383 59.2982 16.879 59.3372 17.1138L60.3564 23.0626C60.4045 23.3345 60.3753 23.6144 60.2722 23.8705C60.169 24.1265 59.996 24.3485 59.7729 24.5111C59.5498 24.6737 59.2855 24.7703 59.0101 24.79C58.7347 24.8098 58.4593 24.7518 58.2153 24.6226L52.8749 21.812C52.663 21.7006 52.4272 21.6423 52.1879 21.6423C51.9485 21.6423 51.7127 21.7006 51.5008 21.812L46.1604 24.62C45.9164 24.7492 45.641 24.8072 45.3656 24.7874C45.0903 24.7677 44.826 24.6711 44.6028 24.5085C44.3797 24.3459 44.2067 24.124 44.1035 23.8679C44.0004 23.6118 43.9712 23.3319 44.0193 23.06L45.0385 17.1112C45.0779 16.8764 45.0599 16.6356 44.9861 16.4092C44.9123 16.1829 44.7849 15.9777 44.6147 15.8112L40.3 11.5966C40.1028 11.4045 39.9634 11.161 39.8974 10.8937C39.8314 10.6264 39.8415 10.3459 39.9266 10.0841C40.0117 9.82222 40.1683 9.5894 40.3788 9.41193C40.5893 9.23446 40.8452 9.11943 41.1177 9.07984L47.0886 8.21144C47.3257 8.17786 47.551 8.08672 47.7447 7.94599C47.9385 7.80526 48.0948 7.61923 48.2001 7.40413L50.8651 2.00004C50.9869 1.75301 51.1754 1.54499 51.4093 1.39954C51.6432 1.25409 51.9131 1.177 52.1885 1.177C52.4639 1.177 52.7338 1.25409 52.9677 1.39954C53.2016 1.54499 53.3901 1.75301 53.5119 2.00004Z" fill="#B0D9FF"/>
  <path d="M53.5119 2.00004L56.1821 7.40934C56.2874 7.62443 56.4437 7.81047 56.6375 7.95119C56.8312 8.09192 57.0565 8.18306 57.2936 8.21663L63.2645 9.08504C63.537 9.12463 63.7929 9.23966 64.0034 9.41713C64.2139 9.5946 64.3706 9.82742 64.4556 10.0893C64.5407 10.3511 64.5508 10.6316 64.4848 10.8989C64.4188 11.1662 64.2794 11.4097 64.0822 11.6018L59.761 15.8138C59.5911 15.9805 59.4638 16.1857 59.3901 16.412C59.3163 16.6383 59.2982 16.879 59.3372 17.1138L60.3564 23.0626C60.4045 23.3345 60.3753 23.6144 60.2722 23.8705C60.169 24.1265 59.996 24.3485 59.7729 24.5111C59.5498 24.6737 59.2855 24.7703 59.0101 24.79C58.7347 24.8098 58.4593 24.7518 58.2153 24.6226L52.8749 21.812C52.663 21.7006 52.4272 21.6423 52.1879 21.6423C51.9485 21.6423 51.7127 21.7006 51.5008 21.812L46.1604 24.62C45.9164 24.7492 45.641 24.8072 45.3656 24.7874C45.0903 24.7677 44.826 24.6711 44.6028 24.5085C44.3797 24.3459 44.2067 24.124 44.1035 23.8679C44.0004 23.6118 43.9712 23.3319 44.0193 23.06L45.0385 17.1112C45.0779 16.8764 45.0599 16.6356 44.9861 16.4092C44.9123 16.1829 44.7849 15.9777 44.6147 15.8112L40.3 11.5966C40.1028 11.4045 39.9634 11.161 39.8974 10.8937C39.8314 10.6264 39.8415 10.3459 39.9266 10.0841C40.0117 9.82222 40.1683 9.5894 40.3788 9.41193C40.5893 9.23446 40.8452 9.11943 41.1177 9.07984L47.0886 8.21144C47.3257 8.17786 47.551 8.08672 47.7447 7.94599C47.9385 7.80526 48.0948 7.61923 48.2001 7.40413L50.8651 2.00004C50.9869 1.75301 51.1754 1.54499 51.4093 1.39954C51.6432 1.25409 51.9131 1.177 52.1885 1.177C52.4639 1.177 52.7338 1.25409 52.9677 1.39954C53.2016 1.54499 53.3901 1.75301 53.5119 2.00004V2.00004Z" stroke="#0D47A1" stroke-width="1.5" stroke-linecap="round" stroke-linejoin="round"/>
  <path d="M22.7123 13.6702L26.9321 16.3287C27.0994 16.4345 27.29 16.4979 27.4873 16.5133C27.6846 16.5287 27.8827 16.4957 28.0644 16.4171L32.6482 14.4476C32.8574 14.3575 33.0876 14.3278 33.3128 14.3619C33.538 14.3959 33.7492 14.4923 33.9224 14.6402C34.0956 14.7881 34.2239 14.9816 34.2928 15.1987C34.3617 15.4158 34.3684 15.6478 34.3122 15.8685L33.0876 20.7045C33.0388 20.8958 33.0369 21.0961 33.0822 21.2883C33.1274 21.4804 33.2185 21.6588 33.3476 21.8082L36.6379 25.5587C36.7881 25.73 36.8873 25.9398 36.9244 26.1645C36.9615 26.3892 36.9351 26.6198 36.848 26.8303C36.7609 27.0407 36.6166 27.2226 36.4316 27.3554C36.2465 27.4881 36.028 27.5665 35.8007 27.5815L30.8243 27.9104C30.6268 27.9236 30.4355 27.9846 30.2668 28.088C30.0981 28.1915 29.9571 28.3345 29.8558 28.5045L27.3052 32.7945C27.1889 32.9903 27.0201 33.1497 26.8179 33.2545C26.6157 33.3593 26.3882 33.4054 26.1611 33.3875C25.934 33.3697 25.7165 33.2886 25.5332 33.1534C25.3499 33.0183 25.208 32.8345 25.1238 32.6229L23.2713 27.991C23.1983 27.8072 23.0815 27.644 22.931 27.5155C22.7806 27.3871 22.6011 27.2973 22.4081 27.2539L17.55 26.1502C17.328 26.1 17.1245 25.9887 16.9625 25.8288C16.8005 25.669 16.6864 25.467 16.6333 25.2457C16.5801 25.0244 16.59 24.7926 16.6617 24.5766C16.7334 24.3606 16.8641 24.169 17.0391 24.0234L20.8715 20.8306C21.0239 20.7044 21.1431 20.5428 21.2188 20.3599C21.2945 20.1771 21.3243 19.9785 21.3057 19.7815L20.8494 14.8142C20.8286 14.5878 20.8716 14.3601 20.9734 14.1568C21.0752 13.9535 21.2318 13.7827 21.4256 13.6637C21.6193 13.5447 21.8425 13.4823 22.0699 13.4834C22.2972 13.4846 22.5198 13.5493 22.7123 13.6702Z" fill="#B0D9FF"/>
  <path d="M22.7123 13.6702L26.9321 16.3287C27.0994 16.4345 27.29 16.4979 27.4873 16.5133C27.6846 16.5287 27.8827 16.4957 28.0644 16.4171L32.6482 14.4476C32.8574 14.3575 33.0876 14.3278 33.3128 14.3619C33.538 14.3959 33.7492 14.4923 33.9224 14.6402C34.0956 14.7881 34.2239 14.9816 34.2928 15.1987C34.3617 15.4158 34.3684 15.6478 34.3122 15.8685L33.0876 20.7045C33.0388 20.8958 33.0369 21.0961 33.0822 21.2883C33.1274 21.4804 33.2185 21.6588 33.3476 21.8082L36.6379 25.5587C36.7881 25.73 36.8873 25.9398 36.9244 26.1645C36.9615 26.3892 36.9351 26.6198 36.848 26.8303C36.7609 27.0407 36.6166 27.2226 36.4316 27.3554C36.2465 27.4881 36.028 27.5665 35.8007 27.5815L30.8243 27.9104C30.6268 27.9236 30.4355 27.9846 30.2668 28.088C30.0981 28.1915 29.9571 28.3345 29.8558 28.5045L27.3052 32.7945C27.1889 32.9903 27.0201 33.1497 26.8179 33.2545C26.6157 33.3593 26.3882 33.4054 26.1611 33.3875C25.934 33.3697 25.7165 33.2886 25.5332 33.1534C25.3499 33.0183 25.208 32.8345 25.1238 32.6229L23.2713 27.991C23.1983 27.8072 23.0815 27.644 22.931 27.5155C22.7806 27.3871 22.6011 27.2973 22.4081 27.2539L17.55 26.1502C17.328 26.1 17.1245 25.9887 16.9625 25.8288C16.8005 25.669 16.6864 25.467 16.6333 25.2457C16.5801 25.0244 16.59 24.7926 16.6617 24.5766C16.7334 24.3606 16.8641 24.169 17.0391 24.0234L20.8715 20.8306C21.0239 20.7044 21.1431 20.5428 21.2188 20.3599C21.2945 20.1771 21.3243 19.9785 21.3057 19.7815L20.8494 14.8142C20.8286 14.5878 20.8716 14.3601 20.9734 14.1568C21.0752 13.9535 21.2318 13.7827 21.4256 13.6637C21.6193 13.5447 21.8425 13.4823 22.0699 13.4834C22.2972 13.4846 22.5198 13.5493 22.7123 13.6702V13.6702Z" stroke="#0D47A1" stroke-width="1.5" stroke-linecap="round" stroke-linejoin="round"/>
  <path d="M6.2036 37.945L10.0256 38.14C10.1772 38.1477 10.3284 38.1183 10.4661 38.0545C10.6038 37.9906 10.7239 37.8941 10.816 37.7734L13.143 34.7353C13.2492 34.5966 13.3922 34.4904 13.5557 34.4287C13.7191 34.367 13.8966 34.3523 14.068 34.3863C14.2394 34.4202 14.3979 34.5015 14.5255 34.6208C14.6531 34.7402 14.7448 34.8929 14.7901 35.0616L15.7859 38.7575C15.8256 38.9038 15.9002 39.0382 16.0032 39.1494C16.1062 39.2605 16.2346 39.3451 16.3774 39.3958L19.9875 40.6711C20.1521 40.7294 20.2971 40.8325 20.4062 40.9688C20.5153 41.1051 20.5841 41.2693 20.6048 41.4426C20.6255 41.616 20.5972 41.7917 20.5233 41.9499C20.4494 42.1081 20.3327 42.2424 20.1864 42.3377L16.9793 44.4268C16.8523 44.5099 16.7473 44.6224 16.6733 44.7549C16.5993 44.8873 16.5584 45.0357 16.5542 45.1873L16.458 49.0132C16.4536 49.1878 16.4004 49.3577 16.3045 49.5036C16.2085 49.6496 16.0737 49.7658 15.9152 49.8391C15.7567 49.9124 15.5808 49.9399 15.4075 49.9184C15.2342 49.897 15.0703 49.8275 14.9344 49.7178L11.96 47.3141C11.842 47.2183 11.7024 47.1528 11.5534 47.1231C11.4043 47.0934 11.2503 47.1005 11.1046 47.1438L7.436 48.2345C7.26861 48.2846 7.09054 48.2867 6.92201 48.2407C6.75347 48.1946 6.60121 48.1023 6.4825 47.9741C6.36379 47.8459 6.28338 47.687 6.2504 47.5154C6.21742 47.3439 6.23318 47.1665 6.2959 47.0034L7.6609 43.4284C7.71577 43.2867 7.73509 43.1337 7.71719 42.9828C7.69929 42.8318 7.6447 42.6876 7.5582 42.5626L5.3885 39.4101C5.28981 39.2665 5.23317 39.0982 5.22495 38.9242C5.21673 38.7501 5.25726 38.5772 5.34197 38.425C5.42668 38.2727 5.55222 38.1471 5.70445 38.0623C5.85667 37.9775 6.02954 37.9369 6.2036 37.945Z" fill="#B0D9FF"/>
  <path d="M6.2036 37.945L10.0256 38.14C10.1772 38.1477 10.3284 38.1183 10.4661 38.0545C10.6038 37.9906 10.7239 37.8941 10.816 37.7734L13.143 34.7353C13.2492 34.5966 13.3922 34.4904 13.5557 34.4287C13.7191 34.367 13.8966 34.3523 14.068 34.3863C14.2394 34.4202 14.3979 34.5015 14.5255 34.6208C14.6531 34.7402 14.7448 34.8929 14.7901 35.0616L15.7859 38.7575C15.8256 38.9038 15.9002 39.0382 16.0032 39.1494C16.1062 39.2605 16.2346 39.3451 16.3774 39.3958L19.9875 40.6711C20.1521 40.7294 20.2971 40.8325 20.4062 40.9688C20.5153 41.1051 20.5841 41.2693 20.6048 41.4426C20.6255 41.616 20.5972 41.7917 20.5233 41.9499C20.4494 42.1081 20.3327 42.2424 20.1864 42.3377L16.9793 44.4268C16.8523 44.5099 16.7473 44.6224 16.6733 44.7549C16.5993 44.8873 16.5584 45.0357 16.5542 45.1873L16.458 49.0132C16.4536 49.1878 16.4004 49.3577 16.3045 49.5036C16.2085 49.6496 16.0737 49.7658 15.9152 49.8391C15.7567 49.9124 15.5808 49.9399 15.4075 49.9184C15.2342 49.897 15.0703 49.8275 14.9344 49.7178L11.96 47.3141C11.842 47.2183 11.7024 47.1528 11.5534 47.1231C11.4043 47.0934 11.2503 47.1005 11.1046 47.1438L7.436 48.2345C7.26861 48.2846 7.09054 48.2867 6.92201 48.2407C6.75347 48.1946 6.60121 48.1023 6.4825 47.9741C6.36379 47.8459 6.28338 47.687 6.2504 47.5154C6.21742 47.3439 6.23318 47.1665 6.2959 47.0034L7.6609 43.4284C7.71577 43.2867 7.73509 43.1337 7.71719 42.9828C7.69929 42.8318 7.6447 42.6876 7.5582 42.5626L5.3885 39.4101C5.28981 39.2665 5.23317 39.0982 5.22495 38.9242C5.21673 38.7501 5.25726 38.5772 5.34197 38.425C5.42668 38.2727 5.55222 38.1471 5.70445 38.0623C5.85667 37.9775 6.02954 37.9369 6.2036 37.945V37.945Z" stroke="#0D47A1" stroke-width="1.5" stroke-linecap="round" stroke-linejoin="round"/>
  <path d="M83.9878 14.8142C84.0089 14.5874 83.9661 14.3592 83.8642 14.1555C83.7623 13.9518 83.6053 13.7807 83.4111 13.6616C83.2169 13.5425 82.9933 13.4802 82.7655 13.4817C82.5377 13.4832 82.3149 13.5486 82.1223 13.6702L77.9025 16.3287C77.7352 16.4345 77.5446 16.4979 77.3473 16.5133C77.15 16.5287 76.9519 16.4957 76.7702 16.4171L72.1864 14.4476C71.9772 14.3581 71.7472 14.3288 71.5222 14.363C71.2973 14.3973 71.0863 14.4938 70.9133 14.6415C70.7403 14.7893 70.612 14.9825 70.5429 15.1993C70.4738 15.4161 70.4667 15.6479 70.5224 15.8685L71.747 20.7045C71.7962 20.8958 71.7982 21.0962 71.7529 21.2884C71.7076 21.4806 71.6164 21.659 71.487 21.8082L68.198 25.5587C68.0479 25.7299 67.9486 25.9396 67.9115 26.1642C67.8743 26.3889 67.9007 26.6194 67.9876 26.8298C68.0746 27.0402 68.2186 27.2221 68.4035 27.3549C68.5884 27.4878 68.8068 27.5663 69.0339 27.5815L74.0116 27.9104C74.2089 27.9236 74.4 27.9846 74.5685 28.0881C74.737 28.1916 74.8778 28.3345 74.9788 28.5045L77.5294 32.7945C77.6457 32.9904 77.8145 33.1497 78.0167 33.2545C78.2189 33.3593 78.4464 33.4054 78.6735 33.3876C78.9006 33.3697 79.1181 33.2886 79.3014 33.1535C79.4847 33.0183 79.6266 32.8345 79.7108 32.6229L81.5633 27.991C81.6364 27.8073 81.7533 27.6441 81.9037 27.5157C82.0541 27.3872 82.2335 27.2974 82.4265 27.2539L87.2924 26.1528C87.5145 26.1028 87.7182 25.9916 87.8803 25.8318C88.0425 25.6721 88.1567 25.4701 88.21 25.2487C88.2633 25.0274 88.2536 24.7956 88.1819 24.5795C88.1103 24.3634 87.9796 24.1717 87.8046 24.026L83.9709 20.8332C83.8187 20.7068 83.6996 20.5452 83.6239 20.3624C83.5483 20.1796 83.5183 19.9811 83.5367 19.7841L83.9878 14.8142Z" fill="#B0D9FF"/>
  <path d="M83.9878 14.8142C84.0089 14.5874 83.9661 14.3592 83.8642 14.1555C83.7623 13.9518 83.6053 13.7807 83.4111 13.6616C83.2169 13.5425 82.9933 13.4802 82.7655 13.4817C82.5377 13.4832 82.3149 13.5486 82.1223 13.6702L77.9025 16.3287C77.7352 16.4345 77.5446 16.4979 77.3473 16.5133C77.15 16.5287 76.9519 16.4957 76.7702 16.4171L72.1864 14.4476C71.9773 14.3577 71.7473 14.328 71.5222 14.362C71.2972 14.3961 71.0862 14.4924 70.913 14.6401C70.7399 14.7878 70.6115 14.981 70.5425 15.1979C70.4735 15.4148 70.4665 15.6466 70.5224 15.8672L71.747 20.7045C71.7962 20.8958 71.7982 21.0962 71.7529 21.2884C71.7076 21.4806 71.6164 21.659 71.487 21.8082L68.198 25.5587C68.0479 25.7299 67.9486 25.9396 67.9115 26.1642C67.8743 26.3889 67.9007 26.6194 67.9876 26.8298C68.0746 27.0402 68.2186 27.2221 68.4035 27.3549C68.5884 27.4878 68.8068 27.5663 69.0339 27.5815L74.0116 27.9104C74.2089 27.9236 74.4 27.9846 74.5685 28.0881C74.737 28.1916 74.8778 28.3345 74.9788 28.5045L77.5294 32.7945C77.6457 32.9904 77.8145 33.1497 78.0167 33.2545C78.2189 33.3593 78.4464 33.4054 78.6735 33.3876C78.9006 33.3697 79.1181 33.2886 79.3014 33.1535C79.4847 33.0183 79.6266 32.8345 79.7108 32.6229L81.5633 27.991C81.6364 27.8073 81.7533 27.6441 81.9037 27.5157C82.0541 27.3872 82.2335 27.2974 82.4265 27.2539L87.2924 26.1528C87.5145 26.1028 87.7182 25.9916 87.8803 25.8318C88.0425 25.6721 88.1567 25.4701 88.21 25.2487C88.2633 25.0274 88.2536 24.7956 88.1819 24.5795C88.1103 24.3634 87.9796 24.1717 87.8046 24.026L83.9709 20.8332C83.8187 20.7068 83.6996 20.5452 83.6239 20.3624C83.5483 20.1796 83.5183 19.9811 83.5367 19.7841L83.9878 14.8142Z" stroke="#0D47A1" stroke-width="1.5" stroke-linecap="round" stroke-linejoin="round"/>
  <path d="M99.45 39.4101C99.5494 39.2665 99.6065 39.0978 99.6149 38.9233C99.6233 38.7488 99.5826 38.5755 99.4974 38.4229C99.4123 38.2704 99.2861 38.1447 99.1332 38.0603C98.9803 37.9758 98.8068 37.9359 98.6323 37.945L94.8103 38.14C94.6586 38.148 94.5073 38.1188 94.3696 38.0549C94.2318 37.991 94.1117 37.8944 94.0199 37.7734L91.6916 34.7353C91.5854 34.5966 91.4424 34.4904 91.2789 34.4287C91.1155 34.367 90.938 34.3523 90.7666 34.3863C90.5952 34.4202 90.4367 34.5015 90.3091 34.6208C90.1815 34.7402 90.0898 34.8929 90.0445 35.0616L89.05 38.7575C89.0103 38.9038 88.9357 39.0382 88.8327 39.1494C88.7297 39.2605 88.6013 39.3451 88.4585 39.3958L84.8497 40.6711C84.6847 40.729 84.5393 40.8319 84.4299 40.9682C84.3205 41.1046 84.2515 41.2689 84.2308 41.4424C84.2101 41.616 84.2385 41.7919 84.3127 41.9502C84.3869 42.1084 84.5041 42.2427 84.6508 42.3377L87.8566 44.4268C87.984 44.5095 88.0892 44.6219 88.1633 44.7544C88.2374 44.887 88.278 45.0356 88.2817 45.1873L88.3792 49.0132C88.3836 49.1878 88.4368 49.3577 88.5327 49.5036C88.6287 49.6496 88.7635 49.7658 88.922 49.8391C89.0805 49.9124 89.2564 49.9399 89.4297 49.9184C89.603 49.897 89.7669 49.8275 89.9028 49.7178L92.8811 47.3141C92.9989 47.2185 93.1382 47.1529 93.2871 47.1233C93.4359 47.0936 93.5897 47.1007 93.7352 47.1438L97.4038 48.2345C97.5712 48.2844 97.7492 48.2864 97.9177 48.2403C98.0862 48.1942 98.2384 48.1019 98.3572 47.9738C98.476 47.8457 98.5565 47.6869 98.5897 47.5155C98.623 47.344 98.6075 47.1666 98.5452 47.0034L97.1789 43.4284C97.1246 43.2866 97.1056 43.1337 97.1235 42.9829C97.1413 42.832 97.1956 42.6878 97.2816 42.5626L99.45 39.4101Z" fill="#B0D9FF"/>
  <path d="M99.45 39.4101C99.5494 39.2664 99.6065 39.0978 99.6149 38.9233C99.6233 38.7488 99.5826 38.5754 99.4974 38.4229C99.4123 38.2703 99.2861 38.1447 99.1332 38.0602C98.9803 37.9758 98.8068 37.9359 98.6323 37.945L94.8103 38.14C94.6586 38.148 94.5073 38.1188 94.3696 38.0549C94.2318 37.991 94.1117 37.8943 94.0199 37.7734L91.6916 34.7353C91.5853 34.5969 91.4424 34.4911 91.2791 34.4296C91.1158 34.3682 90.9386 34.3536 90.7674 34.3875C90.5962 34.4214 90.438 34.5025 90.3105 34.6216C90.183 34.7408 90.0913 34.8931 90.0458 35.0616L89.05 38.7575C89.0103 38.9037 88.9357 39.0382 88.8327 39.1493C88.7297 39.2605 88.6013 39.3451 88.4585 39.3958L84.8497 40.6711C84.6847 40.7289 84.5393 40.8319 84.4299 40.9682C84.3205 41.1045 84.2515 41.2688 84.2308 41.4424C84.2101 41.616 84.2385 41.7919 84.3127 41.9501C84.3869 42.1084 84.5041 42.2427 84.6508 42.3377L87.8566 44.4268C87.984 44.5094 88.0892 44.6219 88.1633 44.7544C88.2374 44.8869 88.278 45.0355 88.2817 45.1873L88.3792 49.0132C88.3836 49.1878 88.4368 49.3576 88.5327 49.5036C88.6287 49.6495 88.7635 49.7657 88.922 49.839C89.0805 49.9123 89.2564 49.9398 89.4297 49.9184C89.603 49.897 89.7669 49.8275 89.9028 49.7178L92.8811 47.3141C92.9989 47.2184 93.1382 47.1529 93.2871 47.1232C93.4359 47.0936 93.5897 47.1006 93.7352 47.1438L97.4051 48.2345C97.5724 48.284 97.7503 48.2858 97.9185 48.2395C98.0868 48.1933 98.2388 48.101 98.3574 47.9729C98.476 47.8449 98.5564 47.6863 98.5896 47.515C98.6228 47.3436 98.6074 47.1664 98.5452 47.0034L97.1789 43.4284C97.1246 43.2866 97.1056 43.1337 97.1235 42.9828C97.1413 42.832 97.1956 42.6878 97.2816 42.5626L99.45 39.4101Z" stroke="#0D47A1" stroke-width="1.5" stroke-linecap="round" stroke-linejoin="round"/>
</svg>
