<svg width="73" height="83" viewBox="0 0 73 83" fill="none" xmlns="http://www.w3.org/2000/svg">
  <path d="M0.856934 46.4082C0.856934 55.956 4.64978 65.1127 11.4011 71.864C18.1524 78.6154 27.3091 82.4082 36.8569 82.4082C46.4047 82.4082 55.5615 78.6154 62.3128 71.864C69.0641 65.1127 72.8569 55.956 72.8569 46.4082C72.8569 36.8604 69.0641 27.7037 62.3128 20.9524C55.5615 14.201 46.4047 10.4082 36.8569 10.4082C27.3091 10.4082 18.1524 14.201 11.4011 20.9524C4.64978 27.7037 0.856934 36.8604 0.856934 46.4082V46.4082Z" fill="#D9EDFF" fill-opacity="0.16"/>
  <path d="M42.8881 1.64038V6.32488C42.8881 6.51584 42.8122 6.69897 42.6772 6.834C42.5422 6.96902 42.359 7.04488 42.1681 7.04488H30.055C29.864 7.04488 29.6809 6.96902 29.5458 6.834C29.4108 6.69897 29.335 6.51584 29.335 6.32488V1.64038" fill="#B0D9FF"/>
  <path d="M42.8881 1.64038V6.32488C42.8881 6.51584 42.8122 6.69897 42.6772 6.834C42.5422 6.96902 42.359 7.04488 42.1681 7.04488H30.055C29.864 7.04488 29.6809 6.96902 29.5458 6.834C29.4108 6.69897 29.335 6.51584 29.335 6.32488V1.64038" stroke="#020064" stroke-width="1.5" stroke-linecap="round" stroke-linejoin="round"/>
  <path d="M60.281 39.0049H13.0085C12.5311 39.0049 12.0733 39.1945 11.7357 39.5321C11.3981 39.8697 11.2085 40.3275 11.2085 40.8049V71.3014H62.081V40.8049C62.081 40.3275 61.8913 39.8697 61.5538 39.5321C61.2162 39.1945 60.7584 39.0049 60.281 39.0049Z" fill="white" stroke="#020064" stroke-width="1.5" stroke-linecap="round" stroke-linejoin="round"/>
  <path d="M58.4903 42.5957H14.8502L14.7998 71.3012H58.4903V42.5957Z" fill="#B0D9FF"/>
  <path d="M58.4903 42.5957H14.8502L14.7998 71.3012H58.4903V42.5957Z" stroke="#020064" stroke-width="1.5" stroke-linecap="round" stroke-linejoin="round"/>
  <path opacity="0.16" d="M9.11426 78.4832C9.11426 78.719 9.85733 78.9525 11.301 79.1704C12.7448 79.3882 14.8609 79.5861 17.5285 79.7529C20.1961 79.9196 23.3631 80.0518 26.8485 80.1421C30.334 80.2323 34.0696 80.2787 37.8423 80.2787C41.6149 80.2787 45.3505 80.2323 48.836 80.1421C52.3214 80.0518 55.4884 79.9196 58.156 79.7529C60.8237 79.5861 62.9397 79.3882 64.3835 79.1704C65.8272 78.9525 66.5703 78.719 66.5703 78.4832C66.5703 78.2475 65.8272 78.014 64.3835 77.7961C62.9397 77.5783 60.8237 77.3804 58.156 77.2136C55.4884 77.0469 52.3214 76.9147 48.836 76.8244C45.3505 76.7342 41.6149 76.6877 37.8423 76.6877C34.0696 76.6877 30.334 76.7342 26.8485 76.8244C23.3631 76.9147 20.1961 77.0469 17.5285 77.2136C14.8609 77.3804 12.7448 77.5783 11.301 77.7961C9.85733 78.014 9.11426 78.2475 9.11426 78.4832Z" fill="#020064"/>
  <path d="M66.5702 74.8923H6.72021V72.2013C6.72021 71.9626 6.81504 71.7337 6.98382 71.5649C7.1526 71.3961 7.38152 71.3013 7.62021 71.3013H65.6702C65.9089 71.3013 66.1378 71.3961 66.3066 71.5649C66.4754 71.7337 66.5702 71.9626 66.5702 72.2013V74.8923Z" fill="white" stroke="#020064" stroke-width="1.5" stroke-linecap="round" stroke-linejoin="round"/>
  <path d="M66.5702 74.8931C61.0114 76.4806 55.2585 77.2861 49.4774 77.2862H23.813C18.0319 77.2861 12.279 76.4807 6.72021 74.8931H66.5702Z" fill="white" stroke="#020064" stroke-width="1.5" stroke-linecap="round" stroke-linejoin="round"/>
  <path d="M46.7048 26.7899C46.7036 25.7463 46.2886 24.7459 45.5508 24.0079C44.813 23.2699 43.8126 22.8547 42.7691 22.8533H29.9234C28.8797 22.8545 27.8791 23.2696 27.1411 24.0076C26.4031 24.7456 25.988 25.7462 25.9868 26.7899V36.7367H29.4122V26.7899C29.4155 26.536 29.5178 26.2934 29.6974 26.1138C29.8769 25.9343 30.1195 25.8319 30.3734 25.8287H42.3191C42.5729 25.8319 42.8154 25.9343 42.9949 26.1139C43.1743 26.2934 43.2764 26.536 43.2794 26.7899V36.7367H46.7048V26.7899Z" fill="#B0D9FF" stroke="#020064" stroke-width="1.5" stroke-linecap="round" stroke-linejoin="round"/>
  <path d="M52.2098 68.5663H21.0788C20.9277 68.5664 20.7781 68.5357 20.6392 68.4762C20.5002 68.4167 20.3748 68.3297 20.2705 68.2203C20.1663 68.1109 20.0853 67.9814 20.0326 67.8398C19.9798 67.6981 19.9564 67.5473 19.9637 67.3963L21.6296 34.1431C21.6439 33.9164 21.7434 33.7034 21.9082 33.547C22.0729 33.3906 22.2907 33.3023 22.5179 33.2998H51.1892C51.419 33.3023 51.6392 33.3927 51.8045 33.5523C51.9699 33.712 52.0679 33.9288 52.0784 34.1584L53.3267 67.4107C53.332 67.5606 53.3071 67.7101 53.2533 67.8502C53.1996 67.9902 53.1181 68.118 53.0139 68.2259C52.9096 68.3338 52.7847 68.4195 52.6465 68.478C52.5084 68.5365 52.3598 68.5665 52.2098 68.5663V68.5663Z" fill="white"/>
  <path d="M52.2098 68.5663H21.0788C20.9277 68.5664 20.7781 68.5357 20.6392 68.4762C20.5002 68.4167 20.3748 68.3297 20.2705 68.2203C20.1663 68.1109 20.0853 67.9814 20.0326 67.8398C19.9798 67.6981 19.9564 67.5473 19.9637 67.3963L21.6296 34.1431C21.6439 33.9164 21.7434 33.7034 21.9082 33.547C22.0729 33.3906 22.2907 33.3023 22.5179 33.2998H51.1892C51.419 33.3023 51.6392 33.3927 51.8045 33.5523C51.9699 33.712 52.0679 33.9288 52.0784 34.1584L53.3267 67.4107C53.332 67.5606 53.3071 67.7101 53.2533 67.8502C53.1996 67.9902 53.1181 68.118 53.0139 68.2259C52.9096 68.3338 52.7847 68.4195 52.6465 68.478C52.5084 68.5365 52.3598 68.5665 52.2098 68.5663V68.5663Z" stroke="#020064" stroke-width="1.5" stroke-linecap="round" stroke-linejoin="round"/>
  <path d="M30.2114 7.04297V8.94737C30.2114 9.13832 30.2873 9.32146 30.4223 9.45649C30.5573 9.59151 30.7405 9.66737 30.9314 9.66737H41.2958C41.4868 9.66737 41.6699 9.59151 41.8049 9.45649C41.94 9.32146 42.0158 9.13832 42.0158 8.94737V7.04297H30.2114Z" fill="white" stroke="#020064" stroke-width="1.5" stroke-linecap="round" stroke-linejoin="round"/>
  <path d="M43.3189 26.5686V25.2897H44.7265C45.3179 25.2891 45.9033 25.4085 46.4473 25.6407C46.4628 25.515 46.4706 25.3884 46.4707 25.2618V21.2172C46.4707 13.2603 41.1346 14.7093 41.1346 9.67017H31.0798V12.075C31.0798 14.6499 29.3311 15.4392 29.3311 19.9437V27.1563C29.3311 27.62 29.5153 28.0648 29.8432 28.3928C30.1712 28.7207 30.616 28.905 31.0798 28.905C31.5435 28.905 31.9883 28.7207 32.3163 28.3928C32.6442 28.0648 32.8285 27.62 32.8285 27.1563V28.0311C32.8285 28.4948 33.0127 28.9396 33.3406 29.2676C33.6686 29.5955 34.1134 29.7798 34.5772 29.7798C35.0409 29.7798 35.4857 29.5955 35.8137 29.2676C36.1416 28.9396 36.3259 28.4948 36.3259 28.0311V28.905C36.3259 29.3687 36.5101 29.8135 36.838 30.1415C37.166 30.4694 37.6108 30.6537 38.0746 30.6537C38.5383 30.6537 38.9831 30.4694 39.3111 30.1415C39.639 29.8135 39.8233 29.3687 39.8233 28.905V29.4513C39.818 29.6842 39.8593 29.9158 39.9448 30.1325C40.0302 30.3493 40.1582 30.5467 40.321 30.7133C40.4839 30.8799 40.6784 31.0123 40.8932 31.1027C41.1079 31.1931 41.3385 31.2396 41.5715 31.2396C41.8045 31.2396 42.0351 31.1931 42.2499 31.1027C42.4646 31.0123 42.6591 30.8799 42.822 30.7133C42.9848 30.5467 43.1128 30.3493 43.1982 30.1325C43.2837 29.9158 43.325 29.6842 43.3198 29.4513V26.5713L43.3189 26.5686Z" fill="white"/>
  <path d="M43.3189 26.5686V25.2897H44.7265C45.3179 25.2891 45.9033 25.4085 46.4473 25.6407C46.4628 25.515 46.4706 25.3884 46.4707 25.2618V21.2172C46.4707 13.2603 41.1346 14.7093 41.1346 9.67017H31.0798V12.075C31.0798 14.6499 29.3311 15.4392 29.3311 19.9437V27.1563C29.3311 27.62 29.5153 28.0648 29.8432 28.3928C30.1712 28.7207 30.616 28.905 31.0798 28.905C31.5435 28.905 31.9883 28.7207 32.3163 28.3928C32.6442 28.0648 32.8285 27.62 32.8285 27.1563V28.0311C32.8285 28.4948 33.0127 28.9396 33.3406 29.2676C33.6686 29.5955 34.1134 29.7798 34.5772 29.7798C35.0409 29.7798 35.4857 29.5955 35.8137 29.2676C36.1416 28.9396 36.3259 28.4948 36.3259 28.0311V28.905C36.3259 29.3687 36.5101 29.8135 36.838 30.1415C37.166 30.4694 37.6108 30.6537 38.0746 30.6537C38.5383 30.6537 38.9831 30.4694 39.3111 30.1415C39.639 29.8135 39.8233 29.3687 39.8233 28.905V29.4513C39.818 29.6842 39.8593 29.9158 39.9448 30.1325C40.0302 30.3493 40.1582 30.5467 40.321 30.7133C40.4839 30.8799 40.6784 31.0123 40.8932 31.1027C41.1079 31.1931 41.3385 31.2396 41.5715 31.2396C41.8045 31.2396 42.0351 31.1931 42.2499 31.1027C42.4646 31.0123 42.6591 30.8799 42.822 30.7133C42.9848 30.5467 43.1128 30.3493 43.1982 30.1325C43.2837 29.9158 43.325 29.6842 43.3198 29.4513V26.5713L43.3189 26.5686Z" stroke="#020064" stroke-width="1.5" stroke-linecap="round" stroke-linejoin="round"/>
  <path d="M43.3268 21.4666L43.3232 27.2275" stroke="#020064" stroke-width="1.5" stroke-linecap="round" stroke-linejoin="round"/>
  <path d="M36.3262 26.1365V28.031Z" fill="#FFCEBF"/>
  <path d="M36.3262 26.1365V28.031" stroke="#020064" stroke-width="1.5" stroke-linecap="round" stroke-linejoin="round"/>
  <path d="M39.8232 26.2825V28.9051Z" fill="#FFCEBF"/>
  <path d="M39.8232 26.2825V28.9051" stroke="#020064" stroke-width="1.5" stroke-linecap="round" stroke-linejoin="round"/>
  <path d="M32.8286 26.1365V27.1562Z" fill="#FFCEBF"/>
  <path d="M32.8286 26.1365V27.1562" stroke="#020064" stroke-width="1.5" stroke-linecap="round" stroke-linejoin="round"/>
  <path d="M28.9956 47.7582C28.9956 48.1162 29.1378 48.4596 29.391 48.7128C29.6442 48.966 29.9876 49.1082 30.3456 49.1082C30.7036 49.1082 31.047 48.966 31.3002 48.7128C31.5534 48.4596 31.6956 48.1162 31.6956 47.7582C31.6956 47.4002 31.5534 47.0568 31.3002 46.8036C31.047 46.5504 30.7036 46.4082 30.3456 46.4082C29.9876 46.4082 29.6442 46.5504 29.391 46.8036C29.1378 47.0568 28.9956 47.4002 28.9956 47.7582V47.7582Z" fill="#020064"/>
  <path d="M41.5952 47.7582C41.5952 48.1162 41.7374 48.4596 41.9906 48.7128C42.2438 48.966 42.5872 49.1082 42.9452 49.1082C43.3033 49.1082 43.6466 48.966 43.8998 48.7128C44.153 48.4596 44.2952 48.1162 44.2952 47.7582C44.2952 47.4002 44.153 47.0568 43.8998 46.8036C43.6466 46.5504 43.3033 46.4082 42.9452 46.4082C42.5872 46.4082 42.2438 46.5504 41.9906 46.8036C41.7374 47.0568 41.5952 47.4002 41.5952 47.7582V47.7582Z" fill="#020064"/>
  <path d="M30.8027 53.1401C34.0301 57.8138 39.2627 57.8138 42.4874 53.1401H30.8027Z" fill="#B0D9FF" stroke="#020064" stroke-width="1.5" stroke-linecap="round" stroke-linejoin="round"/>
  <path d="M43.328 33.2979H46.7048V26.79C46.7022 25.845 46.3593 24.9326 45.7388 24.2199C45.1183 23.5071 44.2618 23.0418 43.3262 22.9092V26.7684C43.3262 26.7756 43.3262 26.7819 43.3262 26.79L43.328 33.2979Z" fill="#B0D9FF" stroke="#020064" stroke-width="1.5" stroke-linecap="round" stroke-linejoin="round"/>
</svg>
