<svg width="80" height="80" viewBox="0 0 80 80" fill="none" xmlns="http://www.w3.org/2000/svg">
  <path d="M0 40C0 50.6087 4.21427 60.7828 11.7157 68.2843C19.2172 75.7857 29.3913 80 40 80C50.6087 80 60.7828 75.7857 68.2843 68.2843C75.7857 60.7828 80 50.6087 80 40C80 29.3913 75.7857 19.2172 68.2843 11.7157C60.7828 4.21427 50.6087 0 40 0C29.3913 0 19.2172 4.21427 11.7157 11.7157C4.21427 19.2172 0 29.3913 0 40Z" fill="#D9EDFF" fill-opacity="0.12"/>
  <path d="M59.334 70.9849C59.334 72.0389 50.602 72.8929 39.834 72.8929C29.066 72.8929 20.334 72.0389 20.334 70.9849C20.334 69.9309 29.066 69.0769 39.834 69.0769C50.602 69.0769 59.334 69.9309 59.334 70.9849Z" fill="#B0D9FF" fill-opacity="0.12"/>
  <path d="M19.9868 9.65308H59.6738V63.0781H19.9868V9.65308Z" fill="white"/>
  <path d="M19.9868 9.65308H59.6738V63.0781H19.9868V9.65308Z" stroke="#020064" stroke-width="1.5"/>
  <path d="M65.1888 51.9379C65.1888 52.2313 65.0723 52.5128 64.8649 52.7203C64.6576 52.9279 64.3762 53.0446 64.0828 53.0449H59.6738V45.5869H65.1888V51.9379Z" fill="#B0D9FF" stroke="#020064" stroke-width="1.5" stroke-linejoin="round"/>
  <path d="M59.6738 23.2219H65.1898V30.6799H59.6738V23.2219Z" fill="white" stroke="#020064" stroke-width="1.5" stroke-linejoin="round"/>
  <path d="M59.6738 30.677H65.1898V38.135H59.6738V30.677Z" fill="#B0D9FF" stroke="#020064" stroke-width="1.5" stroke-linejoin="round"/>
  <path d="M59.6738 38.1321H65.1898V45.5901H59.6738V38.1321Z" fill="white" stroke="#020064" stroke-width="1.5" stroke-linejoin="round"/>
  <path d="M65.1888 23.2251H59.6738V15.7671H64.0828C64.3762 15.7671 64.6575 15.8836 64.8649 16.091C65.0723 16.2984 65.1888 16.5798 65.1888 16.8731V23.2251Z" fill="#B0D9FF" stroke="#020064" stroke-width="1.5" stroke-linejoin="round"/>
  <path d="M32.9609 37.1279H54.3309V53.9189H32.9609V37.1279Z" fill="#B0D9FF" stroke="#020064" stroke-width="1.5"/>
  <path d="M36.7769 41.707H50.5149" stroke="#020064" stroke-width="1.5" stroke-linecap="round" stroke-linejoin="round"/>
  <path d="M36.7769 45.5229H50.5149" stroke="#020064" stroke-width="1.5" stroke-linecap="round" stroke-linejoin="round"/>
  <path d="M36.7769 49.3391H50.5149" stroke="#020064" stroke-width="1.5" stroke-linecap="round" stroke-linejoin="round"/>
  <path d="M43.8671 19.6411C43.1186 19.6432 42.3778 19.7927 41.6871 20.0811C40.9963 20.3695 40.3691 20.7911 39.8413 21.3219C39.3135 21.8527 38.8954 22.4822 38.6109 23.1746C38.3264 23.867 38.181 24.6086 38.1831 25.3571C38.1852 26.1056 38.3347 26.8464 38.6231 27.5372C38.9115 28.2279 39.3332 28.8551 39.8639 29.3829C40.3947 29.9107 41.0243 30.3288 41.7166 30.6133C42.409 30.8979 43.1506 31.0432 43.8991 31.0411C45.9761 31.0411 48.5731 29.4981 48.5731 28.6321C48.573 28.582 48.5625 28.5324 48.5423 28.4865C48.5221 28.4406 48.4926 28.3995 48.4557 28.3655C48.4188 28.3316 48.3752 28.3057 48.3278 28.2895C48.2804 28.2732 48.2301 28.267 48.1801 28.2711C47.3001 28.2671 46.6691 30.0001 44.0091 30.0001C43.3836 30.032 42.7581 29.9375 42.1699 29.7223C41.5817 29.507 41.0429 29.1755 40.5856 28.7475C40.1283 28.3195 39.7619 27.8038 39.5083 27.2311C39.2548 26.6584 39.1191 26.0405 39.1096 25.4142C39.1001 24.7879 39.2168 24.1662 39.4528 23.586C39.6888 23.0058 40.0393 22.4792 40.4833 22.0374C40.9273 21.5957 41.4558 21.2479 42.0372 21.0149C42.6186 20.7819 43.2409 20.6683 43.8671 20.6811C46.1181 20.6811 48.1801 22.0811 48.1801 24.5221C48.1801 26.1431 47.1101 27.6391 46.1031 27.6391C46.0421 27.6461 45.9803 27.6389 45.9225 27.6182C45.8647 27.5974 45.8125 27.5637 45.7698 27.5195C45.7272 27.4753 45.6953 27.4219 45.6766 27.3634C45.6579 27.3049 45.653 27.2428 45.6621 27.1821C45.6747 26.9625 45.7168 26.7455 45.7871 26.5371L46.7641 23.1681C46.8294 22.9854 46.8714 22.7953 46.8891 22.6021C46.8891 22.3491 46.6371 22.2551 46.3891 22.2551C46.2457 22.237 46.1008 22.2742 45.9838 22.3591C45.8668 22.4439 45.7864 22.5702 45.7591 22.7121L45.5591 23.3401C45.4089 22.9792 45.152 22.6729 44.8228 22.4622C44.4935 22.2514 44.1077 22.1464 43.7171 22.1611C41.5931 22.1611 40.1601 24.2391 40.1601 26.2371C40.1514 26.5562 40.2061 26.8739 40.3213 27.1716C40.4364 27.4693 40.6097 27.7411 40.8309 27.9713C41.0521 28.2014 41.3168 28.3853 41.6098 28.5121C41.9027 28.6389 42.2179 28.7063 42.5371 28.7101C42.8834 28.6877 43.2218 28.5965 43.5326 28.442C43.8433 28.2875 44.1202 28.0727 44.3471 27.8101H44.3791C44.39 27.9423 44.4274 28.0709 44.4891 28.1883C44.5508 28.3058 44.6355 28.4096 44.7381 28.4935C44.8408 28.5775 44.9593 28.64 45.0866 28.6772C45.2139 28.7144 45.3474 28.7256 45.4791 28.7101C46.5694 28.6273 47.585 28.1249 48.3124 27.3086C49.0397 26.4923 49.4221 25.4256 49.3791 24.3331C49.3791 21.5471 46.8451 19.6431 43.8701 19.6431L43.8671 19.6411ZM42.8281 27.5111C42.6492 27.5063 42.4732 27.4653 42.3105 27.3908C42.1478 27.3162 42.0019 27.2096 41.8814 27.0773C41.761 26.9449 41.6685 26.7897 41.6095 26.6207C41.5505 26.4518 41.5262 26.2727 41.5381 26.0941C41.5381 24.9141 42.2771 23.3551 43.7891 23.3551C44.5751 23.3551 44.9691 23.7181 44.9691 24.4891C44.9691 25.3701 44.3861 27.5111 42.8281 27.5111Z" fill="#020064"/>
  <path d="M27.6188 63.0771H22.6418C22.2931 63.0772 21.9478 63.0086 21.6256 62.8753C21.3035 62.7419 21.0107 62.5463 20.7642 62.2997C20.5176 62.0532 20.322 61.7604 20.1886 61.4383C20.0553 61.1161 19.9867 60.7708 19.9868 60.4221V12.3071C19.9868 11.6032 20.2664 10.9281 20.7642 10.4304C21.2619 9.93269 21.9369 9.65308 22.6408 9.65308H27.6188V63.0771Z" fill="#B0D9FF"/>
  <path d="M27.6188 63.0771H22.6418C22.2931 63.0772 21.9478 63.0086 21.6256 62.8753C21.3035 62.7419 21.0107 62.5463 20.7642 62.2997C20.5176 62.0532 20.322 61.7604 20.1886 61.4383C20.0553 61.1161 19.9867 60.7708 19.9868 60.4221V12.3071C19.9868 11.6032 20.2664 10.9281 20.7642 10.4304C21.2619 9.93269 21.9369 9.65308 22.6408 9.65308H27.6188V63.0771Z" stroke="#020064" stroke-width="1.5"/>
</svg>
