<svg width="34" height="34" viewBox="0 0 34 34" fill="none" xmlns="http://www.w3.org/2000/svg">
  <path fill-rule="evenodd" clip-rule="evenodd" d="M27.0465 2.11628H6.95349C4.28197 2.11628 2.11628 4.28197 2.11628 6.95349V27.0465C2.11628 29.718 4.28197 31.8837 6.95349 31.8837H27.0465C29.718 31.8837 31.8837 29.718 31.8837 27.0465V6.95349C31.8837 4.28197 29.718 2.11628 27.0465 2.11628ZM6.95349 1C3.66547 1 1 3.66547 1 6.95349V27.0465C1 30.3345 3.66547 33 6.95349 33H27.0465C30.3345 33 33 30.3345 33 27.0465V6.95349C33 3.66547 30.3345 1 27.0465 1H6.95349Z" fill="white" stroke="white"/>
  <path d="M11.8711 12.3125H13.1303V21.8366H11.8711V12.3125Z" fill="white"/>
  <path d="M15.427 12.3125H18.5749C19.6555 12.3125 20.4815 12.5581 21.0531 13.0492C21.6335 13.5315 21.9238 14.2414 21.9238 15.1791C21.9238 15.7685 21.763 16.2865 21.4415 16.733C21.1201 17.1705 20.6735 17.4965 20.102 17.7108L22.339 21.7562V21.8366H20.9995L18.9232 17.9787H16.6862V21.8366H15.427V12.3125ZM18.6151 16.9607C19.2402 16.9607 19.7359 16.7999 20.102 16.4785C20.4771 16.148 20.6646 15.7149 20.6646 15.1791C20.6646 14.5897 20.486 14.1387 20.1288 13.8262C19.7805 13.5136 19.276 13.3529 18.6151 13.3439H16.6862V16.9607H18.6151Z" fill="white"/>
</svg>
