<svg width="42" height="42" viewBox="0 0 42 42" fill="none" xmlns="http://www.w3.org/2000/svg">
  <path fill-rule="evenodd" clip-rule="evenodd"
        d="M31.0465 6.11628H10.9535C8.28197 6.11628 6.11628 8.28197 6.11628 10.9535V31.0465C6.11628 33.718 8.28197 35.8837 10.9535 35.8837H31.0465C33.718 35.8837 35.8837 33.718 35.8837 31.0465V10.9535C35.8837 8.28197 33.718 6.11628 31.0465 6.11628ZM10.9535 5C7.66547 5 5 7.66547 5 10.9535V31.0465C5 34.3345 7.66547 37 10.9535 37H31.0465C34.3345 37 37 34.3345 37 31.0465V10.9535C37 7.66547 34.3345 5 31.0465 5H10.9535Z"
        fill="#0D47A1" stroke="#0D47A1"/>
  <path d="M15.8711 16.3125H17.1303V25.8366H15.8711V16.3125Z" fill="#0D47A1"/>
  <path
    d="M19.427 16.3125H22.5749C23.6555 16.3125 24.4815 16.5581 25.0531 17.0492C25.6335 17.5315 25.9238 18.2414 25.9238 19.1791C25.9238 19.7685 25.763 20.2865 25.4415 20.733C25.1201 21.1705 24.6735 21.4965 24.102 21.7108L26.339 25.7562V25.8366H24.9995L22.9232 21.9787H20.6862V25.8366H19.427V16.3125ZM22.6151 20.9607C23.2402 20.9607 23.7359 20.7999 24.102 20.4785C24.4771 20.148 24.6646 19.7149 24.6646 19.1791C24.6646 18.5897 24.486 18.1387 24.1288 17.8262C23.7805 17.5136 23.276 17.3529 22.6151 17.3439H20.6862V20.9607H22.6151Z"
    fill="#0D47A1"/>
</svg>
