<svg width="80" height="80" xmlns="http://www.w3.org/2000/svg" xmlns:xlink="http://www.w3.org/1999/xlink" overflow="hidden"><defs><clipPath id="clip0"><rect x="988" y="422" width="80" height="80"/></clipPath></defs><g clip-path="url(#clip0)" transform="translate(-988 -422)"><path d="M988 462C988 472.609 992.214 482.783 999.716 490.284 1007.22 497.786 1017.39 502 1028 502 1038.61 502 1048.78 497.786 1056.28 490.284 1063.79 482.783 1068 472.609 1068 462 1068 451.391 1063.79 441.217 1056.28 433.716 1048.78 426.214 1038.61 422 1028 422 1017.39 422 1007.22 426.214 999.716 433.716 992.214 441.217 988 451.391 988 462Z" fill="#D9EDFF" fill-opacity="0.12"/><path d="M1047.33 492.985C1047.33 494.039 1038.6 494.893 1027.83 494.893 1017.07 494.893 1008.33 494.039 1008.33 492.985 1008.33 491.931 1017.07 491.077 1027.83 491.077 1038.6 491.077 1047.33 491.931 1047.33 492.985Z" fill="#B0D9FF" fill-opacity="0.12"/><path d="M1007.99 431.653 1047.67 431.653 1047.67 485.078 1007.99 485.078 1007.99 431.653Z" fill="#FFFFFF"/><path d="M1007.99 431.653 1047.67 431.653 1047.67 485.078 1007.99 485.078 1007.99 431.653Z" stroke="#020064" stroke-width="1.5" fill="none"/><path d="M1053.19 473.938C1053.19 474.231 1053.07 474.513 1052.86 474.72 1052.66 474.928 1052.38 475.045 1052.08 475.045L1047.67 475.045 1047.67 467.587 1053.19 467.587 1053.19 473.938Z" stroke="#020064" stroke-width="1.5" stroke-linejoin="round" fill="#B0D9FF"/><path d="M1047.67 445.222 1053.19 445.222 1053.19 452.68 1047.67 452.68 1047.67 445.222Z" stroke="#020064" stroke-width="1.5" stroke-linejoin="round" fill="#FFFFFF"/><path d="M1047.67 452.677 1053.19 452.677 1053.19 460.135 1047.67 460.135 1047.67 452.677Z" stroke="#020064" stroke-width="1.5" stroke-linejoin="round" fill="#B0D9FF"/><path d="M1047.67 460.132 1053.19 460.132 1053.19 467.59 1047.67 467.59 1047.67 460.132Z" stroke="#020064" stroke-width="1.5" stroke-linejoin="round" fill="#FFFFFF"/><path d="M1053.19 445.225 1047.67 445.225 1047.67 437.767 1052.08 437.767C1052.38 437.767 1052.66 437.884 1052.86 438.091 1053.07 438.298 1053.19 438.58 1053.19 438.873L1053.19 445.225Z" stroke="#020064" stroke-width="1.5" stroke-linejoin="round" fill="#B0D9FF"/><path d="M1020.96 459.128 1042.33 459.128 1042.33 475.919 1020.96 475.919 1020.96 459.128Z" stroke="#020064" stroke-width="1.5" fill="#B0D9FF"/><path d="M1024.78 463.707 1038.51 463.707" stroke="#020064" stroke-width="1.5" stroke-linecap="round" stroke-linejoin="round" fill="none"/><path d="M1024.78 467.523 1038.51 467.523" stroke="#020064" stroke-width="1.5" stroke-linecap="round" stroke-linejoin="round" fill="none"/><path d="M1024.78 471.339 1038.51 471.339" stroke="#020064" stroke-width="1.5" stroke-linecap="round" stroke-linejoin="round" fill="none"/><path d="M1031.87 441.641C1031.12 441.643 1030.38 441.793 1029.69 442.081 1029 442.37 1028.37 442.791 1027.84 443.322 1027.31 443.853 1026.9 444.482 1026.61 445.175 1026.33 445.867 1026.18 446.609 1026.18 447.357 1026.19 448.106 1026.33 448.846 1026.62 449.537 1026.91 450.228 1027.33 450.855 1027.86 451.383 1028.39 451.911 1029.02 452.329 1029.72 452.613 1030.41 452.898 1031.15 453.043 1031.9 453.041 1033.98 453.041 1036.57 451.498 1036.57 450.632 1036.57 450.582 1036.56 450.532 1036.54 450.487 1036.52 450.441 1036.49 450.4 1036.46 450.366 1036.42 450.332 1036.38 450.306 1036.33 450.289 1036.28 450.273 1036.23 450.267 1036.18 450.271 1035.3 450.267 1034.67 452 1032.01 452 1031.38 452.032 1030.76 451.938 1030.17 451.722 1029.58 451.507 1029.04 451.176 1028.59 450.747 1028.13 450.319 1027.76 449.804 1027.51 449.231 1027.25 448.658 1027.12 448.04 1027.11 447.414 1027.1 446.788 1027.22 446.166 1027.45 445.586 1027.69 445.006 1028.04 444.479 1028.48 444.037 1028.93 443.596 1029.46 443.248 1030.04 443.015 1030.62 442.782 1031.24 442.668 1031.87 442.681 1034.12 442.681 1036.18 444.081 1036.18 446.522 1036.18 448.143 1035.11 449.639 1034.1 449.639 1034.04 449.646 1033.98 449.639 1033.92 449.618 1033.86 449.597 1033.81 449.564 1033.77 449.52 1033.73 449.475 1033.7 449.422 1033.68 449.363 1033.66 449.305 1033.65 449.243 1033.66 449.182 1033.67 448.962 1033.72 448.746 1033.79 448.537L1034.76 445.168C1034.83 444.985 1034.87 444.795 1034.89 444.602 1034.89 444.349 1034.64 444.255 1034.39 444.255 1034.25 444.237 1034.1 444.274 1033.98 444.359 1033.87 444.444 1033.79 444.57 1033.76 444.712L1033.56 445.34C1033.41 444.979 1033.15 444.673 1032.82 444.462 1032.49 444.251 1032.11 444.146 1031.72 444.161 1029.59 444.161 1028.16 446.239 1028.16 448.237 1028.15 448.556 1028.21 448.874 1028.32 449.172 1028.44 449.469 1028.61 449.741 1028.83 449.971 1029.05 450.201 1029.32 450.385 1029.61 450.512 1029.9 450.639 1030.22 450.706 1030.54 450.71 1030.88 450.688 1031.22 450.596 1031.53 450.442 1031.84 450.288 1032.12 450.073 1032.35 449.81L1032.38 449.81C1032.39 449.942 1032.43 450.071 1032.49 450.188 1032.55 450.306 1032.64 450.41 1032.74 450.493 1032.84 450.578 1032.96 450.64 1033.09 450.677 1033.21 450.714 1033.35 450.726 1033.48 450.71 1034.57 450.627 1035.58 450.125 1036.31 449.309 1037.04 448.492 1037.42 447.426 1037.38 446.333 1037.38 443.547 1034.85 441.643 1031.87 441.643L1031.87 441.641ZM1030.83 449.511C1030.65 449.506 1030.47 449.465 1030.31 449.391 1030.15 449.316 1030 449.21 1029.88 449.077 1029.76 448.945 1029.67 448.79 1029.61 448.621 1029.55 448.452 1029.53 448.273 1029.54 448.094 1029.54 446.914 1030.28 445.355 1031.79 445.355 1032.58 445.355 1032.97 445.718 1032.97 446.489 1032.97 447.37 1032.39 449.511 1030.83 449.511Z" fill="#020064"/><path d="M1015.62 485.077 1010.64 485.077C1010.29 485.077 1009.95 485.009 1009.63 484.875 1009.3 484.742 1009.01 484.546 1008.76 484.3 1008.52 484.053 1008.32 483.76 1008.19 483.438 1008.06 483.116 1007.99 482.771 1007.99 482.422L1007.99 434.307C1007.99 433.603 1008.27 432.928 1008.76 432.43 1009.26 431.933 1009.94 431.653 1010.64 431.653L1015.62 431.653 1015.62 485.077Z" fill="#B0D9FF"/><path d="M1015.62 485.077 1010.64 485.077C1010.29 485.077 1009.95 485.009 1009.63 484.875 1009.3 484.742 1009.01 484.546 1008.76 484.3 1008.52 484.053 1008.32 483.76 1008.19 483.438 1008.06 483.116 1007.99 482.771 1007.99 482.422L1007.99 434.307C1007.99 433.603 1008.27 432.928 1008.76 432.43 1009.26 431.933 1009.94 431.653 1010.64 431.653L1015.62 431.653 1015.62 485.077Z" stroke="#020064" stroke-width="1.5" fill="none"/></g></svg>