<svg width="85" height="80" xmlns="http://www.w3.org/2000/svg" xmlns:xlink="http://www.w3.org/1999/xlink" overflow="hidden"><defs><clipPath id="clip0"><rect x="711" y="212" width="85" height="80"/></clipPath></defs><g clip-path="url(#clip0)" transform="translate(-711 -212)"><path d="M711.135 252C711.135 262.609 715.349 272.783 722.851 280.284 730.352 287.786 740.526 292 751.135 292 761.743 292 771.918 287.786 779.419 280.284 786.921 272.783 791.135 262.609 791.135 252 791.135 241.391 786.921 231.217 779.419 223.716 771.918 216.214 761.743 212 751.135 212 740.526 212 730.352 216.214 722.851 223.716 715.349 231.217 711.135 241.391 711.135 252Z" fill="#D9EDFF" fill-opacity="0.16"/><path d="M770 277.306 732.7 277.306C732.032 277.306 731.391 277.041 730.919 276.568 730.447 276.096 730.182 275.456 730.182 274.788L730.182 226.5C730.182 225.804 730.458 225.136 730.951 224.644 731.443 224.152 732.11 223.875 732.807 223.875L769.887 223.875C770.583 223.875 771.25 224.152 771.743 224.644 772.235 225.136 772.512 225.804 772.512 226.5L772.512 274.788C772.512 275.455 772.247 276.095 771.776 276.567 771.306 277.039 770.667 277.305 770 277.306Z" fill="#B0D9FF"/><path d="M770 277.306 732.7 277.306C732.032 277.306 731.391 277.041 730.919 276.568 730.447 276.096 730.182 275.456 730.182 274.788L730.182 226.5C730.182 225.804 730.458 225.136 730.951 224.644 731.443 224.152 732.11 223.875 732.807 223.875L769.887 223.875C770.583 223.875 771.25 224.152 771.743 224.644 772.235 225.136 772.512 225.804 772.512 226.5L772.512 274.788C772.512 275.455 772.247 276.095 771.776 276.567 771.306 277.039 770.667 277.305 770 277.306L770 277.306Z" stroke="#020064" stroke-width="1.5" stroke-linecap="round" stroke-linejoin="round" fill="none"/><path d="M734.347 228.037 768.349 228.037 768.349 273.142 734.347 273.142 734.347 228.037Z" fill="#FFFFFF"/><path d="M768.349 243.489 758.475 254.189C757.852 254.866 757.523 255.762 757.561 256.68 757.598 257.599 757.999 258.465 758.675 259.089 759.099 259.48 759.615 259.757 760.175 259.895L756.965 263.106 757.456 263.597 753.12 267.932C752.926 268.125 752.793 268.372 752.738 268.64 752.684 268.909 752.71 269.187 752.813 269.441 752.916 269.694 753.092 269.912 753.318 270.066 753.545 270.22 753.812 270.304 754.086 270.307 754.187 270.307 754.287 270.296 754.386 270.276 758.186 269.468 760.119 268.301 760.141 266.803L760.403 266.54 761.385 267.522 763.8 265.1C763.971 265.237 764.154 265.358 764.348 265.461 764.986 265.801 765.715 265.933 766.432 265.838 767.15 265.743 767.819 265.427 768.348 264.933L768.349 243.489Z" fill="#B0D9FF"/><path d="M734.347 228.037 768.349 228.037 768.349 273.142 734.347 273.142 734.347 228.037Z" stroke="#020064" stroke-width="1.5" stroke-linecap="round" stroke-linejoin="round" fill="none"/><path d="M739.194 239.14 760.397 239.14" stroke="#020064" stroke-width="1.5" stroke-linecap="round" stroke-linejoin="round" fill="none"/><path d="M739.194 245.385 760.397 245.385" stroke="#020064" stroke-width="1.5" stroke-linecap="round" stroke-linejoin="round" fill="none"/><path d="M739.194 252.325 753.972 252.325" stroke="#020064" stroke-width="1.5" stroke-linecap="round" stroke-linejoin="round" fill="none"/><path d="M741.851 221.792 760.845 221.792C761.178 221.793 761.497 221.926 761.732 222.162 761.968 222.398 762.1 222.718 762.1 223.051L762.1 229.551C762.1 229.885 761.967 230.206 761.731 230.442 761.495 230.678 761.174 230.811 760.84 230.811L741.852 230.811C741.518 230.811 741.197 230.678 740.961 230.442 740.724 230.206 740.592 229.885 740.592 229.551L740.592 223.051C740.592 222.717 740.724 222.397 740.961 222.161 741.197 221.925 741.517 221.792 741.851 221.792Z" fill="#FFFFFF"/><path d="M741.851 221.792 760.845 221.792C761.178 221.793 761.497 221.926 761.732 222.162 761.968 222.398 762.1 222.718 762.1 223.051L762.1 229.551C762.1 229.885 761.967 230.206 761.731 230.442 761.495 230.678 761.174 230.811 760.84 230.811L741.852 230.811C741.518 230.811 741.197 230.678 740.961 230.442 740.724 230.206 740.592 229.885 740.592 229.551L740.592 223.051C740.592 222.717 740.724 222.397 740.961 222.161 741.197 221.925 741.517 221.792 741.851 221.792L741.851 221.792Z" stroke="#020064" stroke-width="1.5" stroke-linecap="round" stroke-linejoin="round" fill="none"/><path d="M745.449 228.037 757.246 228.037" stroke="#020064" stroke-width="1.5" stroke-linecap="round" stroke-linejoin="round" fill="none"/><path d="M748.225 221.098C748.225 221.554 748.314 222.005 748.489 222.426 748.663 222.847 748.919 223.229 749.241 223.552 749.563 223.874 749.946 224.129 750.367 224.304 750.788 224.478 751.239 224.568 751.695 224.568 752.15 224.568 752.602 224.478 753.023 224.304 753.443 224.129 753.826 223.874 754.148 223.552 754.471 223.229 754.726 222.847 754.901 222.426 755.075 222.005 755.165 221.554 755.165 221.098 755.165 220.642 755.075 220.191 754.901 219.77 754.726 219.349 754.471 218.966 754.148 218.644 753.826 218.322 753.443 218.066 753.023 217.892 752.602 217.718 752.15 217.628 751.695 217.628 751.239 217.628 750.788 217.718 750.367 217.892 749.946 218.066 749.563 218.322 749.241 218.644 748.919 218.966 748.663 219.349 748.489 219.77 748.314 220.191 748.225 220.642 748.225 221.098Z" fill="#FFFFFF"/><path d="M748.225 221.098C748.225 221.554 748.314 222.005 748.489 222.426 748.663 222.847 748.919 223.229 749.241 223.552 749.563 223.874 749.946 224.129 750.367 224.304 750.788 224.478 751.239 224.568 751.695 224.568 752.15 224.568 752.602 224.478 753.023 224.304 753.443 224.129 753.826 223.874 754.148 223.552 754.471 223.229 754.726 222.847 754.901 222.426 755.075 222.005 755.165 221.554 755.165 221.098 755.165 220.642 755.075 220.191 754.901 219.77 754.726 219.349 754.471 218.966 754.148 218.644 753.826 218.322 753.443 218.066 753.023 217.892 752.602 217.718 752.15 217.628 751.695 217.628 751.239 217.628 750.788 217.718 750.367 217.892 749.946 218.066 749.563 218.322 749.241 218.644 748.919 218.966 748.663 219.349 748.489 219.77 748.314 220.191 748.225 220.642 748.225 221.098L748.225 221.098Z" stroke="#020064" stroke-width="1.5" stroke-linecap="round" stroke-linejoin="round" fill="none"/><path d="M765.956 251.893 778.112 256.427 783.224 248.227 770.008 244.658 765.956 251.893Z" fill="#D9EDFF"/><path d="M785.335 265.729 794.749 256.315C794.786 256.28 794.824 256.246 794.865 256.215 791.714 253.481 790.937 247.689 784.877 244.525 776.9 240.359 767.034 241.353 758.368 252.175 758.169 252.41 758.02 252.683 757.928 252.977 757.836 253.271 757.804 253.581 757.834 253.887 757.863 254.194 757.953 254.491 758.099 254.762 758.245 255.034 758.443 255.273 758.683 255.467 758.922 255.66 759.198 255.804 759.494 255.89 759.79 255.976 760.1 256.001 760.406 255.966 760.711 255.93 761.007 255.834 761.275 255.683 761.544 255.532 761.779 255.328 761.968 255.085 762.542 254.374 763.12 253.713 763.7 253.1 763.904 253.318 764.148 253.493 764.419 253.618 773.486 260.483 775.319 261.355 777.537 262.218 780.967 263.551 782.481 264.195 785.003 266.478 785.018 266.196 785.136 265.93 785.335 265.729ZM779.123 251.076C778.359 252 777.296 252.629 776.118 252.852 774.939 253.076 773.72 252.88 772.671 252.3L767.309 249.848C770.438 247.558 773.595 246.602 776.739 247.012 779.414 247.356 780.033 249.722 779.123 251.076Z" fill="#FFFFFF"/><path d="M736.076 285.34C736.076 285.8 737.661 286.242 740.483 286.568 743.306 286.893 747.133 287.076 751.125 287.076 755.116 287.076 758.944 286.893 761.766 286.568 764.588 286.242 766.174 285.8 766.174 285.34 766.174 284.88 764.588 284.438 761.766 284.112 758.944 283.787 755.116 283.604 751.125 283.604 747.133 283.604 743.306 283.787 740.483 284.112 737.661 284.438 736.076 284.88 736.076 285.34Z" fill="#D9EDFF" fill-opacity="0.16"/><path d="M741.312 259.536C740.953 259.894 740.688 260.336 740.541 260.821 740.393 261.307 740.368 261.821 740.467 262.318 740.566 262.816 740.786 263.281 741.107 263.673 741.429 264.066 741.843 264.372 742.311 264.566 742.78 264.761 743.289 264.836 743.794 264.786 744.299 264.737 744.783 264.563 745.205 264.281 745.627 264 745.973 263.618 746.212 263.171 746.451 262.724 746.576 262.224 746.576 261.717L746.576 262.333C746.569 262.661 746.628 262.987 746.749 263.293 746.87 263.598 747.051 263.876 747.281 264.11 747.51 264.345 747.785 264.531 748.087 264.658 748.39 264.785 748.715 264.851 749.043 264.851 749.372 264.851 749.696 264.785 749.999 264.658 750.302 264.531 750.576 264.345 750.806 264.11 751.036 263.876 751.216 263.598 751.337 263.293 751.458 262.987 751.517 262.661 751.511 262.333 751.511 262.987 751.771 263.615 752.233 264.077 752.696 264.54 753.323 264.8 753.978 264.8L755.828 264.8" stroke="#020064" stroke-width="1.5" stroke-linecap="round" stroke-linejoin="round" fill="none"/><path d="M771.911 252.839C772.215 252.855 772.512 252.931 772.787 253.062 773.061 253.194 773.307 253.378 773.51 253.604 773.713 253.83 773.87 254.094 773.971 254.381 774.073 254.668 774.116 254.972 774.1 255.276L773.693 262.79C773.676 263.094 773.6 263.391 773.469 263.665 773.337 263.939 773.153 264.185 772.927 264.388 772.701 264.591 772.437 264.748 772.15 264.849 771.863 264.949 771.559 264.993 771.255 264.977 770.952 264.96 770.654 264.884 770.38 264.753 770.106 264.621 769.86 264.437 769.657 264.211 769.454 263.984 769.298 263.72 769.197 263.433 769.096 263.146 769.052 262.843 769.069 262.539L769.476 255.026C769.509 254.413 769.784 253.839 770.241 253.428 770.697 253.018 771.298 252.806 771.911 252.839Z" stroke="#020064" stroke-width="1.5" stroke-linecap="round" stroke-linejoin="round" fill="#D9EDFF"/><path d="M769.519 252.117C770.061 252.406 770.466 252.898 770.645 253.485 770.824 254.073 770.762 254.707 770.474 255.249L767.711 260.627C767.422 261.169 766.93 261.574 766.343 261.753 765.755 261.932 765.121 261.871 764.579 261.582 764.037 261.293 763.632 260.801 763.453 260.214 763.274 259.626 763.335 258.992 763.624 258.45L766.387 253.072C766.676 252.53 767.168 252.125 767.755 251.946 768.343 251.767 768.977 251.828 769.519 252.117Z" stroke="#020064" stroke-width="1.5" stroke-linecap="round" stroke-linejoin="round" fill="#D9EDFF"/><path d="M794.749 256.315C794.786 256.28 794.824 256.246 794.865 256.215 791.714 253.481 790.937 247.689 784.877 244.525 776.9 240.359 767.034 241.353 758.368 252.175 758.169 252.41 758.02 252.683 757.928 252.977 757.836 253.271 757.804 253.581 757.834 253.887 757.863 254.194 757.953 254.491 758.099 254.762 758.245 255.034 758.443 255.273 758.683 255.467 758.922 255.66 759.198 255.804 759.494 255.89 759.79 255.976 760.1 256.001 760.406 255.966 760.711 255.93 761.007 255.834 761.275 255.683 761.544 255.532 761.779 255.328 761.968 255.085 762.542 254.374 763.12 253.713 763.7 253.1 763.904 253.318 764.148 253.493 764.419 253.618 773.486 260.483 775.319 261.355 777.537 262.218 780.967 263.551 782.481 264.195 785.003 266.478L794.749 256.315ZM779.127 251.078C778.362 252.003 777.298 252.632 776.119 252.855 774.94 253.078 773.72 252.882 772.671 252.3L767.309 249.848C770.438 247.558 773.595 246.602 776.739 247.012 779.414 247.356 780.033 249.722 779.123 251.076L779.127 251.078Z" stroke="#020064" stroke-width="1.5" stroke-linecap="round" stroke-linejoin="round" fill="none"/><path d="M777.118 251.536 774.1 247.289 783.5 240.612C783.753 240.432 784.038 240.304 784.341 240.235 784.643 240.166 784.956 240.157 785.262 240.209 785.568 240.26 785.861 240.372 786.123 240.537 786.386 240.702 786.614 240.917 786.794 241.17L787.075 241.565C787.254 241.818 787.382 242.104 787.452 242.406 787.521 242.709 787.53 243.022 787.478 243.328 787.426 243.634 787.315 243.926 787.15 244.189 786.985 244.452 786.77 244.68 786.517 244.859L777.118 251.536Z" fill="#B0D9FF"/><path d="M777.118 251.536 774.1 247.289 783.5 240.612C783.753 240.432 784.038 240.304 784.341 240.235 784.643 240.166 784.956 240.157 785.262 240.209 785.568 240.26 785.861 240.372 786.123 240.537 786.386 240.702 786.614 240.917 786.794 241.17L787.075 241.565C787.254 241.818 787.382 242.104 787.452 242.406 787.521 242.709 787.53 243.022 787.478 243.328 787.426 243.634 787.315 243.926 787.15 244.189 786.985 244.452 786.77 244.68 786.517 244.859L777.118 251.536Z" stroke="#020064" stroke-width="1.5" stroke-linecap="round" stroke-linejoin="round" fill="none"/><path d="M774.511 244.868 781.118 240.175C781.302 240.038 781.512 239.94 781.735 239.886 781.958 239.833 782.19 239.825 782.416 239.863 782.642 239.902 782.858 239.985 783.051 240.109 783.244 240.233 783.41 240.395 783.539 240.585" stroke="#020064" stroke-width="1.5" stroke-linecap="round" stroke-linejoin="round" fill="none"/><path d="M759.321 259.208 754.68 262.508C754.577 262.579 754.501 262.682 754.461 262.801 754.422 262.919 754.422 263.047 754.462 263.166 754.502 263.284 754.579 263.387 754.681 263.458 754.784 263.529 754.907 263.565 755.032 263.56 756.978 263.48 759.759 263.127 759.718 261.769L760.662 261.099 759.321 259.208Z" stroke="#020064" stroke-width="1.5" stroke-linecap="round" stroke-linejoin="round" fill="#B0D9FF"/><path d="M761 261.568 759.323 259.208C759.235 259.083 759.199 258.928 759.225 258.776 759.251 258.625 759.335 258.49 759.461 258.401L761.82 256.725 764.167 260.025 761.799 261.7C761.675 261.787 761.522 261.822 761.373 261.797 761.223 261.773 761.089 261.69 761 261.568Z" fill="#FFFFFF"/><path d="M761 261.568 759.323 259.208C759.235 259.083 759.199 258.928 759.225 258.776 759.251 258.625 759.335 258.49 759.461 258.401L761.82 256.725 764.167 260.025 761.799 261.7C761.675 261.787 761.522 261.822 761.373 261.797 761.223 261.773 761.089 261.69 761 261.568Z" stroke="#020064" stroke-width="1.5" stroke-linecap="round" stroke-linejoin="round" fill="none"/><path d="M763.829 259.556 762.153 257.2C762.065 257.076 762.002 256.936 761.968 256.788 761.934 256.64 761.929 256.486 761.955 256.336 761.98 256.187 762.035 256.043 762.115 255.914 762.196 255.786 762.302 255.674 762.426 255.586L774.1 247.289 777.117 251.536 765.443 259.83C765.319 259.918 765.179 259.981 765.03 260.015 764.882 260.049 764.729 260.053 764.579 260.028 764.429 260.002 764.286 259.947 764.157 259.867 764.028 259.786 763.917 259.68 763.829 259.556Z" fill="#B0D9FF"/><path d="M763.829 259.556 762.153 257.2C762.065 257.076 762.002 256.936 761.968 256.788 761.934 256.64 761.929 256.486 761.955 256.336 761.98 256.187 762.035 256.043 762.115 255.914 762.196 255.786 762.302 255.674 762.426 255.586L774.1 247.289 777.117 251.536 765.443 259.83C765.319 259.918 765.179 259.981 765.03 260.015 764.882 260.049 764.729 260.053 764.579 260.028 764.429 260.002 764.286 259.947 764.157 259.867 764.028 259.786 763.917 259.68 763.829 259.556Z" stroke="#020064" stroke-width="1.5" stroke-linecap="round" stroke-linejoin="round" fill="none"/><path d="M779.123 251.076C778.359 252 777.296 252.629 776.118 252.852 774.94 253.076 773.72 252.88 772.671 252.3L766.341 249.4C766.064 249.268 765.763 249.193 765.456 249.178 765.149 249.163 764.843 249.21 764.554 249.315 764.265 249.42 764.001 249.581 763.775 249.79 763.549 249.998 763.367 250.249 763.24 250.528 763.112 250.807 763.041 251.109 763.031 251.416 763.021 251.723 763.072 252.029 763.182 252.316 763.291 252.603 763.456 252.866 763.668 253.088 763.88 253.31 764.134 253.489 764.415 253.612 773.482 260.478 775.315 261.349 777.533 262.212" fill="#FFFFFF"/><path d="M779.123 251.076C778.359 252 777.296 252.629 776.118 252.852 774.94 253.076 773.72 252.88 772.671 252.3L766.341 249.4C766.064 249.268 765.763 249.193 765.456 249.178 765.149 249.163 764.843 249.21 764.554 249.315 764.265 249.42 764.001 249.581 763.775 249.79 763.549 249.998 763.367 250.249 763.24 250.528 763.112 250.807 763.041 251.109 763.031 251.416 763.021 251.723 763.072 252.029 763.182 252.316 763.291 252.603 763.456 252.866 763.668 253.088 763.88 253.31 764.134 253.489 764.415 253.612 773.482 260.478 775.315 261.349 777.533 262.212" stroke="#020064" stroke-width="1.5" stroke-linecap="round" stroke-linejoin="round" fill="none"/><path d="M779.123 251.076C778.359 252 777.296 252.629 776.118 252.852 774.94 253.076 773.72 252.88 772.671 252.3L766.341 249.4C766.064 249.268 765.763 249.193 765.456 249.178 765.149 249.163 764.843 249.21 764.554 249.315 764.265 249.42 764.001 249.581 763.775 249.79 763.549 249.998 763.367 250.249 763.24 250.528 763.112 250.807 763.041 251.109 763.031 251.416 763.021 251.723 763.072 252.029 763.182 252.316 763.291 252.603 763.456 252.866 763.668 253.088 763.88 253.31 764.134 253.489 764.415 253.612 773.482 260.478 775.315 261.349 777.533 262.212" fill="#FFFFFF"/><path d="M779.123 251.076C778.359 252 777.296 252.629 776.118 252.852 774.94 253.076 773.72 252.88 772.671 252.3L766.341 249.4C766.064 249.268 765.763 249.193 765.456 249.178 765.149 249.163 764.843 249.21 764.554 249.315 764.265 249.42 764.001 249.581 763.775 249.79 763.549 249.998 763.367 250.249 763.24 250.528 763.112 250.807 763.041 251.109 763.031 251.416 763.021 251.723 763.072 252.029 763.182 252.316 763.291 252.603 763.456 252.866 763.668 253.088 763.88 253.31 764.134 253.489 764.415 253.612 773.482 260.478 775.315 261.349 777.533 262.212" stroke="#020064" stroke-width="1.5" stroke-linecap="round" stroke-linejoin="round" fill="none"/></g></svg>