<svg width="100" height="88" xmlns="http://www.w3.org/2000/svg" xmlns:xlink="http://www.w3.org/1999/xlink" overflow="hidden"><defs><clipPath id="clip0"><rect x="748" y="337" width="100" height="88"/></clipPath></defs><g clip-path="url(#clip0)" transform="translate(-748 -337)"><path d="M756.796 380.594C756.796 391.203 761.01 401.377 768.512 408.878 776.013 416.38 786.187 420.594 796.796 420.594 807.405 420.594 817.579 416.38 825.08 408.878 832.582 401.377 836.796 391.203 836.796 380.594 836.796 369.985 832.582 359.811 825.08 352.31 817.579 344.808 807.405 340.594 796.796 340.594 786.187 340.594 776.013 344.808 768.512 352.31 761.01 359.811 756.796 369.985 756.796 380.594Z" fill="#D9EDFF" fill-opacity="0.16"/><path d="M771.961 357.375 758.177 388.465" stroke="#020064" stroke-width="1.5" stroke-linecap="round" stroke-linejoin="round" fill="none"/><path d="M784.606 408.991 758.177 388.465" stroke="#020064" stroke-width="1.5" stroke-linecap="round" stroke-linejoin="round" fill="none"/><path d="M825.844 378.251 812.146 402.287" stroke="#00AED9" stroke-width="1.5" stroke-linecap="round" stroke-linejoin="round" fill="none"/><path d="M771.961 357.375 807.812 349.742" stroke="#020064" stroke-width="1.5" stroke-linecap="round" stroke-linejoin="round" fill="none"/><path d="M825.844 378.251 807.812 349.742" stroke="#020064" stroke-width="1.5" stroke-linecap="round" stroke-linejoin="round" fill="none"/><path d="M825.844 378.251 796.509 384.811 758.177 388.465" stroke="#020064" stroke-width="1.5" stroke-linecap="round" stroke-linejoin="round" fill="none"/><path d="M771.961 357.375 784.606 408.991" stroke="#020064" stroke-width="1.5" stroke-linecap="round" stroke-linejoin="round" fill="none"/><path d="M807.812 349.742 796.509 384.811" stroke="#020064" stroke-width="1.5" stroke-linecap="round" stroke-linejoin="round" fill="none"/><path d="M771.961 357.375 812.146 402.287" stroke="#020064" stroke-width="1.5" stroke-linecap="round" stroke-linejoin="round" fill="none"/><path d="M812.146 402.287 784.606 408.991" stroke="#020064" stroke-width="1.5" stroke-linecap="round" stroke-linejoin="round" fill="none"/><path d="M758.177 388.465 807.812 349.742" stroke="#020064" stroke-width="1.5" stroke-linecap="round" stroke-linejoin="round" fill="none"/><path d="M748.293 386.613C748.293 388.06 748.578 389.494 749.132 390.831 749.686 392.168 750.498 393.383 751.521 394.407 752.545 395.43 753.76 396.242 755.097 396.796 756.434 397.35 757.868 397.635 759.315 397.635 760.762 397.635 762.196 397.35 763.533 396.796 764.87 396.242 766.085 395.43 767.109 394.407 768.132 393.383 768.944 392.168 769.498 390.831 770.052 389.494 770.337 388.06 770.337 386.613 770.337 385.166 770.052 383.732 769.498 382.395 768.944 381.058 768.132 379.843 767.109 378.819 766.085 377.796 764.87 376.984 763.533 376.43 762.196 375.876 760.762 375.591 759.315 375.591 757.868 375.591 756.434 375.876 755.097 376.43 753.76 376.984 752.545 377.796 751.521 378.819 750.498 379.843 749.686 381.058 749.132 382.395 748.578 383.732 748.293 385.166 748.293 386.613Z" stroke="#020064" stroke-width="1.5" stroke-linecap="round" stroke-linejoin="round" fill="#FFFFFF"/><path d="M765.2 389.42C765.198 389.181 765.113 388.949 764.959 388.766 764.806 388.582 764.594 388.456 764.359 388.411L764.359 387.738C764.368 387.069 764.245 386.405 763.995 385.785 763.746 385.164 763.375 384.599 762.906 384.123 762.436 383.647 761.877 383.268 761.259 383.01 760.642 382.752 759.98 382.619 759.311 382.619 758.642 382.619 757.98 382.752 757.363 383.01 756.746 383.268 756.186 383.647 755.717 384.123 755.247 384.599 754.877 385.164 754.627 385.785 754.378 386.405 754.254 387.069 754.264 387.738L754.264 388.411C754.018 388.457 753.798 388.591 753.644 388.786 753.49 388.982 753.412 389.228 753.425 389.477 753.438 389.726 753.541 389.962 753.714 390.141 753.888 390.32 754.121 390.43 754.37 390.45 754.607 391.585 755.227 392.604 756.127 393.336 757.027 394.067 758.151 394.467 759.311 394.467 760.471 394.467 761.595 394.067 762.495 393.336 763.395 392.604 764.016 391.585 764.253 390.45 764.51 390.427 764.75 390.309 764.925 390.118 765.101 389.928 765.198 389.679 765.2 389.42Z" stroke="#020064" stroke-width="1.5" stroke-linecap="round" stroke-linejoin="round" fill="#FFFFFF"/><path d="M755.951 390.051C755.951 390.219 756.018 390.379 756.136 390.497 756.254 390.616 756.415 390.682 756.582 390.682 756.75 390.682 756.91 390.616 757.028 390.497 757.147 390.379 757.213 390.219 757.213 390.051 757.213 389.884 757.147 389.723 757.028 389.605 756.91 389.487 756.75 389.42 756.582 389.42 756.415 389.42 756.254 389.487 756.136 389.605 756.018 389.723 755.951 389.884 755.951 390.051Z" fill="#B0D9FF"/><path d="M761.418 390.051C761.418 390.134 761.434 390.216 761.466 390.293 761.498 390.369 761.544 390.439 761.603 390.497 761.661 390.556 761.731 390.602 761.807 390.634 761.884 390.666 761.966 390.682 762.049 390.682 762.132 390.682 762.214 390.666 762.29 390.634 762.367 390.602 762.437 390.556 762.495 390.497 762.554 390.439 762.6 390.369 762.632 390.293 762.664 390.216 762.68 390.134 762.68 390.051 762.68 389.968 762.664 389.886 762.632 389.81 762.6 389.733 762.554 389.664 762.495 389.605 762.437 389.546 762.367 389.5 762.29 389.468 762.214 389.436 762.132 389.42 762.049 389.42 761.966 389.42 761.884 389.436 761.807 389.468 761.731 389.5 761.661 389.546 761.603 389.605 761.544 389.664 761.498 389.733 761.466 389.81 761.434 389.886 761.418 389.968 761.418 390.051Z" fill="#B0D9FF"/><path d="M758.054 391.561C758.428 391.81 758.867 391.944 759.316 391.944 759.765 391.944 760.204 391.81 760.577 391.561" stroke="#020064" stroke-width="1.5" stroke-linecap="round" stroke-linejoin="round" fill="none"/><path d="M764.783 386.476C764.793 385.752 764.659 385.033 764.388 384.361 764.118 383.689 763.717 383.078 763.208 382.562 762.7 382.046 762.094 381.637 761.425 381.357 760.757 381.078 760.04 380.934 759.316 380.934 758.591 380.934 757.874 381.078 757.206 381.357 756.538 381.637 755.932 382.046 755.423 382.562 754.914 383.078 754.513 383.689 754.243 384.361 753.973 385.033 753.838 385.752 753.848 386.476L753.848 387.738C753.848 387.849 753.892 387.956 753.971 388.035 754.05 388.114 754.157 388.158 754.268 388.158L755.11 388.158C755.222 388.158 755.328 388.114 755.407 388.035 755.486 387.956 755.53 387.849 755.53 387.738 755.531 387.237 755.632 386.742 755.827 386.28 756.023 385.819 756.309 385.402 756.669 385.054 756.761 384.964 756.873 384.896 756.995 384.856 757.117 384.815 757.248 384.804 757.375 384.822 757.906 384.888 758.399 385.131 758.775 385.511 759.272 386.023 759.928 386.353 760.635 386.447 761.343 386.541 762.062 386.393 762.675 386.028 762.886 386.438 763.022 386.882 763.075 387.34 763.087 387.45 763.139 387.551 763.221 387.625 763.303 387.698 763.409 387.74 763.519 387.74L764.36 387.74C764.472 387.74 764.578 387.695 764.657 387.616 764.736 387.537 764.78 387.431 764.78 387.319L764.783 386.476Z" stroke="#020064" stroke-width="1.5" stroke-linecap="round" stroke-linejoin="round" fill="#FFFFFF"/><path d="M764.783 386.476C764.793 385.752 764.659 385.033 764.388 384.361 764.118 383.689 763.717 383.078 763.208 382.562 762.7 382.046 762.094 381.637 761.425 381.357 760.757 381.078 760.04 380.934 759.316 380.934 758.591 380.934 757.874 381.078 757.206 381.357 756.538 381.637 755.932 382.046 755.423 382.562 754.914 383.078 754.513 383.689 754.243 384.361 753.973 385.033 753.838 385.752 753.848 386.476L753.848 387.738C753.848 387.849 753.892 387.956 753.971 388.035 754.05 388.114 754.157 388.158 754.268 388.158L755.11 388.158C755.222 388.158 755.328 388.114 755.407 388.035 755.486 387.956 755.53 387.849 755.53 387.738 755.531 387.237 755.632 386.742 755.827 386.28 756.023 385.819 756.309 385.402 756.669 385.054 756.761 384.964 756.873 384.896 756.995 384.856 757.117 384.815 757.248 384.804 757.375 384.822 757.906 384.888 758.399 385.131 758.775 385.511 759.272 386.023 759.928 386.353 760.635 386.447 761.343 386.541 762.062 386.393 762.675 386.028 762.886 386.438 763.022 386.882 763.075 387.34 763.087 387.45 763.139 387.551 763.221 387.625 763.303 387.698 763.409 387.74 763.519 387.74L764.36 387.74C764.472 387.74 764.578 387.695 764.657 387.616 764.736 387.537 764.78 387.431 764.78 387.319L764.783 386.476Z" stroke="#020064" stroke-width="1.5" stroke-linecap="round" stroke-linejoin="round" fill="none"/><path d="M762.675 386.028C762.719 386.002 762.755 385.963 762.778 385.916 762.8 385.87 762.808 385.818 762.802 385.767 762.795 385.715 762.773 385.667 762.739 385.628 762.705 385.59 762.66 385.562 762.61 385.548 761.95 385.362 761.378 384.945 761 384.373" fill="#FFDF3D"/><path d="M762.675 386.028C762.719 386.002 762.755 385.963 762.778 385.916 762.8 385.87 762.808 385.818 762.802 385.767 762.795 385.715 762.773 385.667 762.739 385.628 762.705 385.59 762.66 385.562 762.61 385.548 761.95 385.362 761.378 384.945 761 384.373" stroke="#020064" stroke-width="1.5" stroke-linecap="round" stroke-linejoin="round" fill="none"/><path d="M756.792 388.368C756.792 388.451 756.808 388.533 756.84 388.609 756.872 388.686 756.918 388.756 756.977 388.814 757.035 388.873 757.105 388.919 757.182 388.951 757.258 388.983 757.34 388.999 757.423 388.999 757.506 388.999 757.588 388.983 757.664 388.951 757.741 388.919 757.811 388.873 757.869 388.814 757.928 388.756 757.974 388.686 758.006 388.609 758.038 388.533 758.054 388.451 758.054 388.368 758.054 388.285 758.038 388.203 758.006 388.127 757.974 388.05 757.928 387.98 757.869 387.922 757.811 387.863 757.741 387.817 757.664 387.785 757.588 387.753 757.506 387.737 757.423 387.737 757.34 387.737 757.258 387.753 757.182 387.785 757.105 387.817 757.035 387.863 756.977 387.922 756.918 387.98 756.872 388.05 756.84 388.127 756.808 388.203 756.792 388.285 756.792 388.368Z" fill="#020064"/><path d="M760.577 388.368C760.577 388.535 760.644 388.696 760.762 388.814 760.88 388.933 761.041 388.999 761.208 388.999 761.375 388.999 761.536 388.933 761.654 388.814 761.773 388.696 761.839 388.535 761.839 388.368 761.839 388.201 761.773 388.04 761.654 387.922 761.536 387.803 761.375 387.737 761.208 387.737 761.041 387.737 760.88 387.803 760.762 387.922 760.644 388.04 760.577 388.201 760.577 388.368Z" fill="#020064"/><path d="M759.315 381.008C760.031 381.007 760.74 381.147 761.403 381.42 762.065 381.693 762.667 382.094 763.174 382.6 763.397 382.25 763.518 381.843 763.521 381.427 763.521 379.801 761.638 378.482 759.315 378.482 756.992 378.482 755.115 379.801 755.115 381.427 755.116 381.842 755.235 382.249 755.457 382.6 755.964 382.094 756.565 381.694 757.227 381.42 757.889 381.147 758.599 381.007 759.315 381.008Z" stroke="#020064" stroke-width="1.5" stroke-linecap="round" stroke-linejoin="round" fill="#FFFFFF"/><path d="M796.239 349.539C796.239 352.462 797.4 355.266 799.467 357.333 801.534 359.4 804.338 360.561 807.261 360.561 810.184 360.561 812.987 359.4 815.055 357.333 817.122 355.266 818.283 352.462 818.283 349.539 818.283 346.616 817.122 343.812 815.055 341.745 812.987 339.678 810.184 338.517 807.261 338.517 804.338 338.517 801.534 339.678 799.467 341.745 797.4 343.812 796.239 346.616 796.239 349.539Z" stroke="#020064" stroke-width="1.5" stroke-linecap="round" stroke-linejoin="round" fill="#FFFFFF"/><path d="M814.41 352.4C814.408 352.129 814.311 351.867 814.137 351.658 813.963 351.45 813.723 351.308 813.456 351.257L813.456 350.494C813.456 348.977 812.854 347.523 811.781 346.45 810.709 345.378 809.254 344.775 807.737 344.775 806.22 344.775 804.766 345.378 803.693 346.45 802.621 347.523 802.018 348.977 802.018 350.494L802.018 351.257C801.74 351.309 801.489 351.459 801.314 351.682 801.138 351.904 801.05 352.182 801.065 352.465 801.079 352.748 801.196 353.016 801.394 353.219 801.591 353.422 801.856 353.546 802.138 353.568 802.406 354.855 803.109 356.011 804.129 356.84 805.149 357.67 806.424 358.123 807.738 358.123 809.053 358.123 810.327 357.67 811.347 356.84 812.367 356.011 813.07 354.855 813.338 353.568 813.63 353.541 813.901 353.407 814.099 353.191 814.298 352.975 814.408 352.693 814.41 352.4Z" stroke="#020064" stroke-width="1.5" stroke-linecap="round" stroke-linejoin="round" fill="#FFFFFF"/><path d="M814.41 352.4C814.408 352.129 814.311 351.867 814.137 351.658 813.963 351.45 813.723 351.308 813.456 351.257L813.456 350.494C813.456 348.977 812.854 347.523 811.781 346.45 810.709 345.378 809.254 344.775 807.737 344.775 806.22 344.775 804.766 345.378 803.693 346.45 802.621 347.523 802.018 348.977 802.018 350.494L802.018 351.257C801.74 351.309 801.489 351.459 801.314 351.682 801.138 351.904 801.05 352.182 801.065 352.465 801.079 352.748 801.196 353.016 801.394 353.219 801.591 353.422 801.856 353.546 802.138 353.568 802.406 354.855 803.109 356.011 804.129 356.84 805.149 357.67 806.424 358.123 807.738 358.123 809.053 358.123 810.327 357.67 811.347 356.84 812.367 356.011 813.07 354.855 813.338 353.568 813.63 353.541 813.901 353.407 814.099 353.191 814.298 352.975 814.408 352.693 814.41 352.4L814.41 352.4Z" stroke="#020064" stroke-width="1.5" stroke-linecap="round" stroke-linejoin="round" fill="none"/><path d="M804.878 351.207C804.878 351.397 804.953 351.579 805.087 351.713 805.221 351.847 805.403 351.922 805.593 351.922 805.783 351.922 805.964 351.847 806.099 351.713 806.233 351.579 806.308 351.397 806.308 351.207 806.308 351.018 806.233 350.836 806.099 350.702 805.964 350.568 805.783 350.492 805.593 350.492 805.403 350.492 805.221 350.568 805.087 350.702 804.953 350.836 804.878 351.018 804.878 351.207Z" fill="#020064"/><path d="M809.167 351.207C809.167 351.397 809.242 351.579 809.376 351.713 809.51 351.847 809.692 351.922 809.882 351.922 810.072 351.922 810.253 351.847 810.388 351.713 810.522 351.579 810.597 351.397 810.597 351.207 810.597 351.018 810.522 350.836 810.388 350.702 810.253 350.568 810.072 350.492 809.882 350.492 809.692 350.492 809.51 350.568 809.376 350.702 809.242 350.836 809.167 351.018 809.167 351.207Z" fill="#020064"/><path d="M803.925 353.113C803.925 353.303 804 353.485 804.134 353.619 804.268 353.753 804.45 353.828 804.64 353.828 804.829 353.828 805.011 353.753 805.145 353.619 805.279 353.485 805.355 353.303 805.355 353.113 805.355 352.924 805.279 352.742 805.145 352.608 805.011 352.474 804.829 352.398 804.64 352.398 804.45 352.398 804.268 352.474 804.134 352.608 804 352.742 803.925 352.924 803.925 353.113Z" fill="#B0D9FF"/><path d="M810.12 353.113C810.12 353.303 810.195 353.485 810.329 353.619 810.464 353.753 810.646 353.828 810.835 353.828 811.025 353.828 811.207 353.753 811.341 353.619 811.475 353.485 811.55 353.303 811.55 353.113 811.55 352.924 811.475 352.742 811.341 352.608 811.207 352.474 811.025 352.398 810.835 352.398 810.646 352.398 810.464 352.474 810.329 352.608 810.195 352.742 810.12 352.924 810.12 353.113Z" fill="#B0D9FF"/><path d="M806.308 354.825C806.731 355.107 807.229 355.258 807.738 355.258 808.246 355.258 808.744 355.107 809.167 354.825" stroke="#020064" stroke-width="1.5" stroke-linecap="round" stroke-linejoin="round" fill="none"/><path d="M801.542 346.2 801.542 350.489C801.542 350.616 801.592 350.737 801.681 350.826 801.771 350.916 801.892 350.966 802.018 350.966L802.5 350.966 804.4 346.2 801.542 346.2Z" stroke="#020064" stroke-width="1.5" stroke-linecap="round" stroke-linejoin="round" fill="#FFFFFF"/><path d="M813.933 346.679C813.932 345.668 813.531 344.698 812.816 343.984 812.101 343.269 811.131 342.867 810.12 342.867L805.831 342.867C805.649 342.867 805.471 342.815 805.317 342.717 805.164 342.619 805.042 342.479 804.966 342.313 804.916 342.202 804.837 342.107 804.738 342.037 804.638 341.966 804.522 341.924 804.401 341.913L803.591 341.913C802.861 341.899 802.151 342.155 801.599 342.633 801.047 343.111 800.691 343.776 800.6 344.5 800.529 345.248 800.754 345.994 801.229 346.577 801.703 347.159 802.387 347.532 803.134 347.614 803.269 348.12 803.552 348.574 803.948 348.917 804.343 349.26 804.833 349.476 805.353 349.538L806.307 349.538C806.344 349.538 806.381 349.525 806.411 349.502 806.441 349.479 806.462 349.447 806.472 349.411 806.482 349.375 806.48 349.336 806.466 349.301 806.452 349.266 806.427 349.237 806.395 349.217 805.962 348.959 805.646 348.541 805.516 348.054 805.501 348.005 805.498 347.953 805.507 347.903 805.515 347.852 805.536 347.805 805.566 347.764 805.597 347.723 805.637 347.689 805.682 347.666 805.728 347.643 805.779 347.631 805.83 347.631L809.724 347.631C809.849 347.631 809.973 347.656 810.089 347.704 810.204 347.752 810.309 347.822 810.398 347.911L812.979 350.491 813.455 350.491C813.518 350.491 813.58 350.479 813.638 350.455 813.695 350.431 813.748 350.396 813.792 350.352 813.837 350.307 813.872 350.255 813.896 350.197 813.92 350.139 813.932 350.077 813.932 350.014L813.933 346.679Z" fill="#FFFFFF"/><path d="M813.933 346.679C813.932 345.668 813.531 344.698 812.816 343.984 812.101 343.269 811.131 342.867 810.12 342.867L805.831 342.867C805.649 342.867 805.471 342.815 805.317 342.717 805.164 342.619 805.042 342.479 804.966 342.313 804.916 342.202 804.837 342.107 804.738 342.037 804.638 341.966 804.522 341.924 804.401 341.913L803.591 341.913C802.861 341.899 802.151 342.155 801.599 342.633 801.047 343.111 800.691 343.776 800.6 344.5 800.529 345.248 800.754 345.994 801.229 346.577 801.703 347.159 802.387 347.532 803.134 347.614 803.269 348.12 803.552 348.574 803.948 348.917 804.343 349.26 804.833 349.476 805.353 349.538L806.307 349.538C806.344 349.538 806.381 349.525 806.411 349.502 806.441 349.479 806.462 349.447 806.472 349.411 806.482 349.375 806.48 349.336 806.466 349.301 806.452 349.266 806.427 349.237 806.395 349.217 805.962 348.959 805.646 348.541 805.516 348.054 805.501 348.005 805.498 347.953 805.507 347.903 805.515 347.852 805.536 347.805 805.566 347.764 805.597 347.723 805.637 347.689 805.682 347.666 805.728 347.643 805.779 347.631 805.83 347.631L809.724 347.631C809.849 347.631 809.973 347.656 810.089 347.704 810.204 347.752 810.309 347.822 810.398 347.911L812.979 350.491 813.455 350.491C813.518 350.491 813.58 350.479 813.638 350.455 813.695 350.431 813.748 350.396 813.792 350.352 813.837 350.307 813.872 350.255 813.896 350.197 813.92 350.139 813.932 350.077 813.932 350.014L813.933 346.679Z" stroke="#020064" stroke-width="1.5" stroke-linecap="round" stroke-linejoin="round" fill="none"/><path d="M821.893 401.679 825.894 397.677 832.896 404.68 828.895 408.682 821.893 401.679Z" stroke="#020064" stroke-width="1.5" stroke-linecap="round" stroke-linejoin="round" fill="#FFFFFF"/><path d="M846.5 422.1 846.309 422.291C845.536 423.058 844.491 423.488 843.402 423.488 842.314 423.488 841.269 423.058 840.496 422.291L827.861 409.651C827.605 409.393 827.462 409.045 827.462 408.682 827.462 408.319 827.605 407.971 827.861 407.713L831.927 403.647C832.185 403.392 832.533 403.248 832.896 403.248 833.258 403.248 833.606 403.392 833.864 403.647L846.5 416.282C846.884 416.663 847.188 417.116 847.396 417.616 847.604 418.115 847.711 418.65 847.711 419.191 847.711 419.732 847.604 420.267 847.396 420.767 847.188 421.266 846.884 421.719 846.5 422.1Z" fill="#B0D9FF"/><path d="M846.5 422.1 846.309 422.291C845.536 423.058 844.491 423.488 843.402 423.488 842.314 423.488 841.269 423.058 840.496 422.291L827.861 409.651C827.605 409.393 827.462 409.045 827.462 408.682 827.462 408.319 827.605 407.971 827.861 407.713L831.927 403.647C832.185 403.392 832.533 403.248 832.896 403.248 833.258 403.248 833.606 403.392 833.864 403.647L846.5 416.282C846.884 416.663 847.188 417.116 847.396 417.616 847.604 418.115 847.711 418.65 847.711 419.191 847.711 419.732 847.604 420.267 847.396 420.767 847.188 421.266 846.884 421.719 846.5 422.1Z" stroke="#020064" stroke-width="1.5" stroke-linecap="round" stroke-linejoin="round" fill="none"/><path d="M791.787 397.749C794.724 402.55 799.449 405.987 804.921 407.305 810.393 408.622 816.164 407.712 820.965 404.774 825.766 401.836 829.203 397.112 830.521 391.639 831.838 386.167 830.928 380.396 827.99 375.595 825.052 370.794 820.328 367.357 814.855 366.04 809.383 364.722 803.612 365.633 798.811 368.571 794.01 371.508 790.573 376.233 789.256 381.705 787.938 387.177 788.849 392.948 791.787 397.749Z" stroke="#020064" stroke-width="1.5" stroke-linecap="round" stroke-linejoin="round" fill="#FFFFFF"/><path d="M821.893 374.668C824.267 377.043 825.884 380.068 826.539 383.361 827.194 386.654 826.858 390.067 825.573 393.169 824.288 396.271 822.112 398.923 819.32 400.788 816.528 402.654 813.246 403.649 809.888 403.649 806.531 403.649 803.248 402.654 800.456 400.788 797.664 398.923 795.489 396.271 794.204 393.169 792.919 390.067 792.582 386.654 793.237 383.361 793.892 380.068 795.509 377.043 797.883 374.668 799.46 373.092 801.331 371.841 803.391 370.988 805.451 370.134 807.659 369.695 809.888 369.695 812.118 369.695 814.325 370.134 816.385 370.988 818.445 371.841 820.317 373.092 821.893 374.668Z" fill="#B0D9FF"/><path d="M809.479 394.81C807.528 394.821 805.613 395.336 803.92 396.305 802.227 397.274 800.813 398.664 799.815 400.341 802.635 402.417 806.027 403.571 809.528 403.646 813.029 403.72 816.467 402.711 819.373 400.757 818.411 398.967 816.984 397.47 815.243 396.424 813.502 395.377 811.511 394.82 809.479 394.81Z" fill="#FFFFFF"/><path d="M809.479 394.81C807.528 394.821 805.613 395.336 803.92 396.305 802.227 397.274 800.813 398.664 799.815 400.341 802.635 402.417 806.027 403.571 809.528 403.646 813.029 403.72 816.467 402.711 819.373 400.757 818.411 398.967 816.984 397.47 815.243 396.424 813.502 395.377 811.511 394.82 809.479 394.81L809.479 394.81Z" stroke="#020064" stroke-width="1.5" stroke-linejoin="round" fill="none"/><path d="M812.833 395.355C812.653 395.298 812.471 395.246 812.288 395.201 812.076 395.148 811.888 395.025 811.754 394.852 811.62 394.68 811.547 394.468 811.548 394.249L811.548 390.871 807.571 390.871 807.571 394.211C807.571 394.431 807.497 394.644 807.361 394.817 807.225 394.989 807.035 395.111 806.822 395.163 806.592 395.219 806.363 395.281 806.137 395.352L806.114 395.382C806.173 396.236 806.553 397.035 807.179 397.618 807.804 398.202 808.627 398.527 809.483 398.527 810.338 398.527 811.162 398.202 811.787 397.618 812.412 397.035 812.793 396.236 812.852 395.382L812.833 395.355Z" stroke="#020064" stroke-width="1.5" stroke-linecap="round" stroke-linejoin="round" fill="#FFFFFF"/><path d="M818.433 382.5C818.433 384.887 817.485 387.176 815.797 388.864 814.109 390.552 811.82 391.5 809.433 391.5 807.046 391.5 804.757 390.552 803.069 388.864 801.381 387.176 800.433 384.887 800.433 382.5 800.433 377.524 802.973 373.62 805.557 372.878 805.772 372.816 806 372.814 806.217 372.87 806.434 372.926 806.631 373.04 806.789 373.199 809.587 376.013 818.433 372.506 818.433 382.5Z" fill="#FFFFFF"/><path d="M818.433 382.5C818.433 384.887 817.485 387.176 815.797 388.864 814.109 390.552 811.82 391.5 809.433 391.5 807.046 391.5 804.757 390.552 803.069 388.864 801.381 387.176 800.433 384.887 800.433 382.5 800.433 377.524 802.973 373.62 805.557 372.878 805.772 372.816 806 372.814 806.217 372.87 806.434 372.926 806.631 373.04 806.789 373.199 809.587 376.013 818.433 372.506 818.433 382.5Z" stroke="#020064" stroke-width="1.5" stroke-linecap="round" stroke-linejoin="round" fill="none"/><path d="M816.941 384.75 815.43 385.5 814.34 381.686C814.238 381.32 814 381.007 813.674 380.81 813.349 380.614 812.96 380.549 812.589 380.63 810.512 381.125 808.348 381.125 806.272 380.63 805.9 380.55 805.512 380.614 805.187 380.81 804.861 381.007 804.623 381.32 804.521 381.686L803.431 385.5 801.943 384.75C799.802 384.75 799.943 388.5 802.317 388.5L802.324 388.5C802.794 390.021 803.738 391.351 805.019 392.296 806.3 393.241 807.85 393.751 809.442 393.751 811.034 393.751 812.583 393.241 813.864 392.296 815.145 391.351 816.09 390.021 816.56 388.5 818.937 388.5 819.081 384.75 816.941 384.75Z" stroke="#020064" stroke-width="1.5" stroke-linecap="round" stroke-linejoin="round" fill="#FFFFFF"/><path d="M806.221 384.938C806.221 385.173 806.315 385.398 806.481 385.565 806.647 385.731 806.872 385.824 807.107 385.824 807.342 385.824 807.568 385.731 807.734 385.565 807.9 385.398 807.993 385.173 807.993 384.938 807.993 384.703 807.9 384.478 807.734 384.311 807.568 384.145 807.342 384.052 807.107 384.052 806.872 384.052 806.647 384.145 806.481 384.311 806.315 384.478 806.221 384.703 806.221 384.938Z" fill="#020064"/><path d="M810.905 384.938C810.905 385.173 810.998 385.398 811.164 385.565 811.33 385.731 811.556 385.824 811.791 385.824 812.026 385.824 812.251 385.731 812.417 385.565 812.583 385.398 812.677 385.173 812.677 384.938 812.677 384.703 812.583 384.478 812.417 384.311 812.251 384.145 812.026 384.052 811.791 384.052 811.556 384.052 811.33 384.145 811.164 384.311 810.998 384.478 810.905 384.703 810.905 384.938Z" fill="#020064"/><path d="M805.7 387C805.7 387.148 805.656 387.293 805.574 387.417 805.491 387.54 805.374 387.636 805.237 387.693 805.1 387.75 804.949 387.764 804.804 387.736 804.658 387.707 804.524 387.635 804.419 387.53 804.315 387.425 804.243 387.291 804.214 387.146 804.186 387 804.201 386.849 804.258 386.712 804.315 386.575 804.411 386.458 804.534 386.376 804.658 386.294 804.803 386.25 804.951 386.25 805.05 386.25 805.147 386.269 805.238 386.307 805.329 386.345 805.412 386.4 805.481 386.47 805.551 386.539 805.606 386.622 805.643 386.713 805.681 386.804 805.7 386.902 805.7 387Z" fill="#B0D9FF"/><path d="M814.7 387C814.7 387.148 814.656 387.293 814.574 387.417 814.491 387.54 814.374 387.636 814.237 387.693 814.1 387.75 813.949 387.764 813.804 387.736 813.658 387.707 813.525 387.635 813.42 387.53 813.315 387.425 813.244 387.292 813.215 387.146 813.186 387.001 813.201 386.85 813.257 386.713 813.314 386.576 813.41 386.459 813.534 386.376 813.657 386.294 813.802 386.25 813.95 386.25 814.149 386.25 814.34 386.329 814.48 386.47 814.621 386.61 814.7 386.801 814.7 387Z" fill="#B0D9FF"/><path d="M807.577 389.433C808.132 389.803 808.785 390 809.452 390 810.119 390 810.771 389.803 811.326 389.433" stroke="#020064" stroke-width="1.5" stroke-linecap="round" stroke-linejoin="round" fill="none"/><path d="M821.893 374.668C824.267 377.043 825.884 380.068 826.539 383.361 827.194 386.654 826.858 390.067 825.573 393.169 824.288 396.271 822.112 398.923 819.32 400.788 816.528 402.654 813.246 403.649 809.888 403.649 806.531 403.649 803.248 402.654 800.456 400.788 797.664 398.923 795.489 396.271 794.204 393.169 792.919 390.067 792.582 386.654 793.237 383.361 793.892 380.068 795.509 377.043 797.883 374.668 799.46 373.092 801.331 371.841 803.391 370.988 805.451 370.134 807.659 369.695 809.888 369.695 812.118 369.695 814.325 370.134 816.385 370.988 818.445 371.841 820.317 373.092 821.893 374.668L821.893 374.668Z" stroke="#020064" stroke-width="1.5" stroke-linecap="round" stroke-linejoin="round" fill="none"/><path d="M777.271 407.339C777.271 409.199 778.01 410.982 779.325 412.297 780.64 413.612 782.423 414.351 784.283 414.351 786.143 414.351 787.926 413.612 789.241 412.297 790.556 410.982 791.295 409.199 791.295 407.339 791.295 405.479 790.556 403.696 789.241 402.381 787.926 401.066 786.143 400.327 784.283 400.327 782.423 400.327 780.64 401.066 779.325 402.381 778.01 403.696 777.271 405.479 777.271 407.339Z" stroke="#020064" stroke-width="1.5" stroke-linecap="round" stroke-linejoin="round" fill="#FFFFFF"/><path d="M782.027 407.176C782.027 407.774 782.265 408.348 782.688 408.771 783.111 409.194 783.685 409.432 784.283 409.432 784.881 409.432 785.455 409.194 785.878 408.771 786.301 408.348 786.539 407.774 786.539 407.176L786.539 406.048C786.539 405.45 786.301 404.876 785.878 404.453 785.455 404.03 784.881 403.792 784.283 403.792 783.685 403.792 783.111 404.03 782.688 404.453 782.265 404.876 782.027 405.45 782.027 406.048L782.027 407.176Z" stroke="#020064" stroke-width="1.5" stroke-linecap="round" stroke-linejoin="round" fill="#FFFFFF"/><path d="M788.971 412.553C787.684 413.71 786.015 414.349 784.285 414.349 782.555 414.349 780.886 413.71 779.599 412.553 779.984 411.629 780.634 410.839 781.467 410.284 782.3 409.728 783.278 409.431 784.279 409.43 785.281 409.429 786.26 409.724 787.094 410.279 787.927 410.833 788.578 411.622 788.965 412.545" fill="#B0D9FF"/><path d="M788.971 412.553C787.684 413.71 786.015 414.349 784.285 414.349 782.555 414.349 780.886 413.71 779.599 412.553 779.984 411.629 780.634 410.839 781.467 410.284 782.3 409.728 783.278 409.431 784.279 409.43 785.281 409.429 786.26 409.724 787.094 410.279 787.927 410.833 788.578 411.622 788.965 412.545" stroke="#020064" stroke-width="1.5" stroke-linecap="round" stroke-linejoin="round" fill="none"/><path d="M782.046 405.757C782.105 405.302 782.302 404.876 782.609 404.536 782.917 404.195 783.321 403.957 783.768 403.852 784.214 403.747 784.682 403.781 785.109 403.949 785.536 404.117 785.901 404.411 786.157 404.792 785.623 405.31 784.959 405.673 784.235 405.843 783.511 406.013 782.754 405.983 782.046 405.757Z" stroke="#020064" stroke-width="1.5" stroke-linecap="round" stroke-linejoin="round" fill="#B0D9FF"/><path d="M765.225 356.754C765.225 358.614 765.964 360.397 767.279 361.712 768.594 363.027 770.377 363.766 772.237 363.766 774.097 363.766 775.88 363.027 777.195 361.712 778.51 360.397 779.249 358.614 779.249 356.754 779.249 354.895 778.51 353.111 777.195 351.796 775.88 350.481 774.097 349.742 772.237 349.742 770.377 349.742 768.594 350.481 767.279 351.796 765.964 353.111 765.225 354.895 765.225 356.754Z" stroke="#020064" stroke-width="1.5" stroke-linecap="round" stroke-linejoin="round" fill="#FFFFFF"/><path d="M769.98 356.591C769.992 357.181 770.236 357.743 770.657 358.156 771.079 358.569 771.646 358.801 772.237 358.801 772.827 358.801 773.394 358.569 773.815 358.156 774.237 357.743 774.481 357.181 774.493 356.591L774.493 355.463C774.481 354.873 774.237 354.311 773.815 353.898 773.394 353.485 772.827 353.254 772.237 353.254 771.646 353.254 771.079 353.485 770.657 353.898 770.236 354.311 769.992 354.873 769.98 355.463L769.98 356.591Z" stroke="#020064" stroke-width="1.5" stroke-linecap="round" stroke-linejoin="round" fill="#FFFFFF"/><path d="M776.924 361.969C775.637 363.125 773.968 363.764 772.238 363.764 770.508 363.764 768.839 363.125 767.552 361.969 767.937 361.045 768.587 360.255 769.419 359.699 770.252 359.144 771.231 358.847 772.232 358.846 773.233 358.845 774.212 359.14 775.046 359.695 775.88 360.249 776.531 361.038 776.918 361.961" fill="#B0D9FF"/><path d="M776.924 361.969C775.637 363.125 773.968 363.764 772.238 363.764 770.508 363.764 768.839 363.125 767.552 361.969 767.937 361.045 768.587 360.255 769.419 359.699 770.252 359.144 771.231 358.847 772.232 358.846 773.233 358.845 774.212 359.14 775.046 359.695 775.88 360.249 776.531 361.038 776.918 361.961" stroke="#020064" stroke-width="1.5" stroke-linecap="round" stroke-linejoin="round" fill="none"/><path d="M770 355.172C770.059 354.717 770.255 354.29 770.563 353.95 770.87 353.609 771.275 353.371 771.721 353.266 772.168 353.161 772.637 353.195 773.063 353.363 773.49 353.532 773.856 353.827 774.111 354.208 773.577 354.725 772.913 355.088 772.189 355.258 771.465 355.428 770.708 355.398 770 355.172Z" stroke="#020064" stroke-width="1.5" stroke-linecap="round" stroke-linejoin="round" fill="#B0D9FF"/></g></svg>