<svg width="81" height="93" xmlns="http://www.w3.org/2000/svg" xmlns:xlink="http://www.w3.org/1999/xlink" overflow="hidden"><defs><clipPath id="clip0"><rect x="869" y="456" width="81" height="93"/></clipPath></defs><g clip-path="url(#clip0)" transform="translate(-869 -456)"><path d="M0.950845 51.494C0.950845 62.0882 5.15935 72.2483 12.6505 79.7395 20.1417 87.2308 30.3019 91.4392 40.896 91.4392 51.4902 91.4392 61.6504 87.2308 69.1416 79.7395 76.6328 72.2483 80.8412 62.0882 80.8412 51.494 80.8412 40.8999 76.6328 30.7397 69.1416 23.2486 61.6504 15.7573 51.4902 11.5488 40.896 11.5488 30.3019 11.5488 20.1417 15.7573 12.6505 23.2486 5.15935 30.7397 0.950845 40.8999 0.950845 51.494L0.950845 51.494Z" fill="#D9EDFF" fill-opacity="0.16" transform="matrix(1 0 0 1.00982 869 456)"/><path d="M47.5882 1.82015 47.5882 7.01802C47.5882 7.22991 47.5039 7.4331 47.3542 7.58293 47.2044 7.73275 47.0011 7.81692 46.7893 7.81692L33.3487 7.81692C33.1368 7.81692 32.9336 7.73275 32.7837 7.58293 32.6339 7.4331 32.5498 7.22991 32.5498 7.01802L32.5498 1.82015" fill="#B0D9FF" transform="matrix(1 0 0 1.00982 869 456)"/><path d="M47.5882 1.82015 47.5882 7.01802C47.5882 7.22991 47.5039 7.4331 47.3542 7.58293 47.2044 7.73275 47.0011 7.81692 46.7893 7.81692L33.3487 7.81692C33.1368 7.81692 32.9336 7.73275 32.7837 7.58293 32.6339 7.4331 32.5498 7.22991 32.5498 7.01802L32.5498 1.82015" stroke="#020064" stroke-width="1.66438" stroke-linecap="round" stroke-linejoin="round" fill="none" transform="matrix(1 0 0 1.00982 869 456)"/><path d="M66.8871 43.2794 14.4341 43.2794C13.9044 43.2794 13.3964 43.4898 13.0218 43.8644 12.6472 44.239 12.4368 44.747 12.4368 45.2767L12.4368 79.1153 68.8844 79.1153 68.8844 45.2767C68.8844 44.747 68.6739 44.239 68.2994 43.8644 67.9248 43.4898 67.4169 43.2794 66.8871 43.2794Z" stroke="#020064" stroke-width="1.66438" stroke-linecap="round" stroke-linejoin="round" fill="#FFFFFF" transform="matrix(1 0 0 1.00982 869 456)"/><path d="M64.9002 47.2637 16.4776 47.2637 16.4217 79.115 64.9002 79.115 64.9002 47.2637Z" fill="#B0D9FF" transform="matrix(1 0 0 1.00982 869 456)"/><path d="M64.9002 47.2637 16.4776 47.2637 16.4217 79.115 64.9002 79.115 64.9002 47.2637Z" stroke="#020064" stroke-width="1.66438" stroke-linecap="round" stroke-linejoin="round" fill="none" transform="matrix(1 0 0 1.00982 869 456)"/><path d="M10.1131 87.0841C10.1131 87.3457 10.9376 87.6048 12.5395 87.8466 14.1415 88.0883 16.4895 88.3079 19.4494 88.493 22.4094 88.6779 25.9234 88.8246 29.7908 88.9248 33.6583 89.0249 37.8033 89.0764 41.9894 89.0764 46.1754 89.0764 50.3204 89.0249 54.1879 88.9248 58.0553 88.8246 61.5693 88.6779 64.5293 88.493 67.4893 88.3079 69.8372 88.0883 71.4392 87.8466 73.0411 87.6048 73.8657 87.3457 73.8657 87.0841 73.8657 86.8226 73.0411 86.5635 71.4392 86.3217 69.8372 86.08 67.4893 85.8605 64.5293 85.6754 61.5693 85.4904 58.0553 85.3437 54.1879 85.2435 50.3204 85.1434 46.1754 85.0918 41.9894 85.0918 37.8033 85.0918 33.6583 85.1434 29.7908 85.2435 25.9234 85.3437 22.4094 85.4904 19.4494 85.6754 16.4895 85.8605 14.1415 86.08 12.5395 86.3217 10.9376 86.5635 10.1131 86.8226 10.1131 87.0841Z" fill="#020064" fill-opacity="0.16" transform="matrix(1 0 0 1.00982 869 456)"/><path d="M73.8656 83.0997 7.45667 83.0997 7.45667 80.1138C7.45667 79.8489 7.56189 79.5949 7.74917 79.4076 7.93645 79.2203 8.19045 79.1151 8.4553 79.1151L72.8669 79.1151C73.1318 79.1151 73.3858 79.2203 73.5731 79.4076 73.7604 79.5949 73.8656 79.8489 73.8656 80.1138L73.8656 83.0997Z" stroke="#020064" stroke-width="1.66438" stroke-linecap="round" stroke-linejoin="round" fill="#FFFFFF" transform="matrix(1 0 0 1.00982 869 456)"/><path d="M73.8656 83.1006C67.6976 84.862 61.3142 85.7558 54.8996 85.7559L26.4226 85.7559C20.008 85.7558 13.6246 84.8622 7.45667 83.1006L73.8656 83.1006Z" stroke="#020064" stroke-width="1.66438" stroke-linecap="round" stroke-linejoin="round" fill="#FFFFFF" transform="matrix(1 0 0 1.00982 869 456)"/><path d="M51.8231 29.7258C51.8218 28.5678 51.3613 27.4578 50.5427 26.6389 49.724 25.82 48.614 25.3593 47.4561 25.3578L33.2027 25.3578C32.0446 25.3591 30.9343 25.8197 30.1155 26.6386 29.2966 27.4574 28.836 28.5677 28.8347 29.7258L28.8347 40.7626 32.6355 40.7626 32.6355 29.7258C32.6391 29.4441 32.7526 29.1749 32.9519 28.9756 33.1511 28.7764 33.4203 28.6628 33.702 28.6592L46.9568 28.6592C47.2384 28.6628 47.5075 28.7764 47.7067 28.9757 47.9057 29.1749 48.019 29.4441 48.0224 29.7258L48.0224 40.7626 51.8231 40.7626 51.8231 29.7258Z" stroke="#020064" stroke-width="1.66438" stroke-linecap="round" stroke-linejoin="round" fill="#B0D9FF" transform="matrix(1 0 0 1.00982 869 456)"/><path d="M57.9314 76.0804 23.3888 76.0804C23.2211 76.0805 23.0552 76.0465 22.901 75.9804 22.7468 75.9144 22.6077 75.8179 22.4919 75.6965 22.3763 75.5751 22.2864 75.4314 22.228 75.2743 22.1694 75.1171 22.1434 74.9498 22.1515 74.7822L24 37.8848C24.0158 37.6333 24.1262 37.3969 24.3091 37.2234 24.4918 37.0498 24.7335 36.9519 24.9856 36.9491L56.799 36.9491C57.054 36.9519 57.2983 37.0522 57.4817 37.2293 57.6652 37.4065 57.774 37.647 57.7856 37.9018L59.1707 74.7982C59.1766 74.9645 59.149 75.1304 59.0893 75.2858 59.0297 75.4412 58.9393 75.583 58.8236 75.7027 58.7079 75.8224 58.5693 75.9175 58.416 75.9824 58.2627 76.0474 58.0979 76.0806 57.9314 76.0804L57.9314 76.0804Z" fill="#FFFFFF" transform="matrix(1 0 0 1.00982 869 456)"/><path d="M57.9314 76.0804 23.3888 76.0804C23.2211 76.0805 23.0552 76.0465 22.901 75.9804 22.7468 75.9144 22.6077 75.8179 22.4919 75.6965 22.3763 75.5751 22.2864 75.4314 22.228 75.2743 22.1694 75.1171 22.1434 74.9498 22.1515 74.7822L24 37.8848C24.0158 37.6333 24.1262 37.3969 24.3091 37.2234 24.4918 37.0498 24.7335 36.9519 24.9856 36.9491L56.799 36.9491C57.054 36.9519 57.2983 37.0522 57.4817 37.2293 57.6652 37.4065 57.774 37.647 57.7856 37.9018L59.1707 74.7982C59.1766 74.9645 59.149 75.1304 59.0893 75.2858 59.0297 75.4412 58.9393 75.583 58.8236 75.7027 58.7079 75.8224 58.5693 75.9175 58.416 75.9824 58.2627 76.0474 58.0979 76.0806 57.9314 76.0804L57.9314 76.0804Z" stroke="#020064" stroke-width="1.66438" stroke-linecap="round" stroke-linejoin="round" fill="none" transform="matrix(1 0 0 1.00982 869 456)"/><path d="M33.5222 7.8148 33.5222 9.9279C33.5222 10.1398 33.6065 10.343 33.7563 10.4928 33.906 10.6426 34.1093 10.7268 34.3211 10.7268L45.8214 10.7268C46.0333 10.7268 46.2365 10.6426 46.3863 10.4928 46.5362 10.343 46.6203 10.1398 46.6203 9.9279L46.6203 7.8148 33.5222 7.8148Z" stroke="#020064" stroke-width="1.66438" stroke-linecap="round" stroke-linejoin="round" fill="#FFFFFF" transform="matrix(1 0 0 1.00982 869 456)"/><path d="M48.0662 29.4802 48.0662 28.0612 49.628 28.0612C50.2842 28.0605 50.9338 28.193 51.5374 28.4506 51.5546 28.3112 51.5633 28.1707 51.5634 28.0302L51.5634 23.5424C51.5634 14.7135 45.6425 16.3213 45.6425 10.7299L34.4858 10.7299 34.4858 13.3983C34.4858 16.2554 32.5455 17.1312 32.5455 22.1293L32.5455 30.1323C32.5455 30.6469 32.7499 31.1404 33.1137 31.5043 33.4776 31.8682 33.9712 32.0727 34.4858 32.0727 35.0003 32.0727 35.4939 31.8682 35.8578 31.5043 36.2216 31.1404 36.4261 30.6469 36.4261 30.1323L36.4261 31.103C36.4261 31.6175 36.6305 32.1111 36.9944 32.475 37.3583 32.8388 37.8519 33.0433 38.3665 33.0433 38.881 33.0433 39.3745 32.8388 39.7385 32.475 40.1023 32.1111 40.3068 31.6175 40.3068 31.103L40.3068 32.0727C40.3068 32.5872 40.5112 33.0807 40.875 33.4447 41.239 33.8085 41.7325 34.013 42.2472 34.013 42.7617 34.013 43.2552 33.8085 43.6192 33.4447 43.983 33.0807 44.1875 32.5872 44.1875 32.0727L44.1875 32.6788C44.1816 32.9373 44.2274 33.1942 44.3223 33.4347 44.4171 33.6753 44.5591 33.8943 44.7397 34.0791 44.9205 34.264 45.1363 34.4109 45.3746 34.5112 45.6129 34.6115 45.8688 34.6631 46.1273 34.6631 46.3858 34.6631 46.6417 34.6115 46.88 34.5112 47.1183 34.4109 47.3341 34.264 47.5148 34.0791 47.6955 33.8943 47.8375 33.6753 47.9323 33.4347 48.0271 33.1942 48.0729 32.9373 48.0672 32.6788L48.0672 29.4832 48.0662 29.4802Z" fill="#FFFFFF" transform="matrix(1 0 0 1.00982 869 456)"/><path d="M48.0662 29.4802 48.0662 28.0612 49.628 28.0612C50.2842 28.0605 50.9338 28.193 51.5374 28.4506 51.5546 28.3112 51.5633 28.1707 51.5634 28.0302L51.5634 23.5424C51.5634 14.7135 45.6425 16.3213 45.6425 10.7299L34.4858 10.7299 34.4858 13.3983C34.4858 16.2554 32.5455 17.1312 32.5455 22.1293L32.5455 30.1323C32.5455 30.6469 32.7499 31.1404 33.1137 31.5043 33.4776 31.8682 33.9712 32.0727 34.4858 32.0727 35.0003 32.0727 35.4939 31.8682 35.8578 31.5043 36.2216 31.1404 36.4261 30.6469 36.4261 30.1323L36.4261 31.103C36.4261 31.6175 36.6305 32.1111 36.9944 32.475 37.3583 32.8388 37.8519 33.0433 38.3665 33.0433 38.881 33.0433 39.3745 32.8388 39.7385 32.475 40.1023 32.1111 40.3068 31.6175 40.3068 31.103L40.3068 32.0727C40.3068 32.5872 40.5112 33.0807 40.875 33.4447 41.239 33.8085 41.7325 34.013 42.2472 34.013 42.7617 34.013 43.2552 33.8085 43.6192 33.4447 43.983 33.0807 44.1875 32.5872 44.1875 32.0727L44.1875 32.6788C44.1816 32.9373 44.2274 33.1942 44.3223 33.4347 44.4171 33.6753 44.5591 33.8943 44.7397 34.0791 44.9205 34.264 45.1363 34.4109 45.3746 34.5112 45.6129 34.6115 45.8688 34.6631 46.1273 34.6631 46.3858 34.6631 46.6417 34.6115 46.88 34.5112 47.1183 34.4109 47.3341 34.264 47.5148 34.0791 47.6955 33.8943 47.8375 33.6753 47.9323 33.4347 48.0271 33.1942 48.0729 32.9373 48.0672 32.6788L48.0672 29.4832 48.0662 29.4802Z" stroke="#020064" stroke-width="1.66438" stroke-linecap="round" stroke-linejoin="round" fill="none" transform="matrix(1 0 0 1.00982 869 456)"/><path d="M48.0749 23.8191 48.0709 30.2113" stroke="#020064" stroke-width="1.66438" stroke-linecap="round" stroke-linejoin="round" fill="none" transform="matrix(1 0 0 1.00982 869 456)"/><path d="M40.3072 29.0008 40.3072 31.1029" stroke="#020064" stroke-width="1.66438" stroke-linecap="round" stroke-linejoin="round" fill="none" transform="matrix(1 0 0 1.00982 869 456)"/><path d="M44.1874 29.1628 44.1874 32.0728" stroke="#020064" stroke-width="1.66438" stroke-linecap="round" stroke-linejoin="round" fill="none" transform="matrix(1 0 0 1.00982 869 456)"/><path d="M36.4263 29.0008 36.4263 30.1322" stroke="#020064" stroke-width="1.66438" stroke-linecap="round" stroke-linejoin="round" fill="none" transform="matrix(1 0 0 1.00982 869 456)"/><path d="M32.1732 52.992C32.1732 53.3892 32.331 53.7702 32.6119 54.0512 32.8929 54.3321 33.2739 54.4899 33.6711 54.4899 34.0684 54.4899 34.4494 54.3321 34.7304 54.0512 35.0113 53.7702 35.1691 53.3892 35.1691 52.992 35.1691 52.5947 35.0113 52.2137 34.7304 51.9328 34.4494 51.6518 34.0684 51.494 33.6711 51.494 33.2739 51.494 32.8929 51.6518 32.6119 51.9328 32.331 52.2137 32.1732 52.5947 32.1732 52.992L32.1732 52.992Z" fill="#020064" transform="matrix(1 0 0 1.00982 869 456)"/><path d="M46.1536 52.992C46.1536 53.3892 46.3114 53.7702 46.5923 54.0512 46.8733 54.3321 47.2543 54.4899 47.6515 54.4899 48.0489 54.4899 48.4298 54.3321 48.7107 54.0512 48.9917 53.7702 49.1495 53.3892 49.1495 52.992 49.1495 52.5947 48.9917 52.2137 48.7107 51.9328 48.4298 51.6518 48.0489 51.494 47.6515 51.494 47.2543 51.494 46.8733 51.6518 46.5923 51.9328 46.3114 52.2137 46.1536 52.5947 46.1536 52.992L46.1536 52.992Z" fill="#020064" transform="matrix(1 0 0 1.00982 869 456)"/><path d="M34.1783 58.9637C37.7594 64.1496 43.5655 64.1496 47.1436 58.9637L34.1783 58.9637Z" stroke="#020064" stroke-width="1.66438" stroke-linecap="round" stroke-linejoin="round" fill="#B0D9FF" transform="matrix(1 0 0 1.00982 869 456)"/><path d="M48.0763 36.947 51.8231 36.947 51.8231 29.7259C51.8203 28.6773 51.4398 27.6649 50.7513 26.8741 50.0628 26.0832 49.1124 25.5669 48.0743 25.4198L48.0743 29.7019C48.0743 29.7099 48.0743 29.7169 48.0743 29.7259L48.0763 36.947Z" stroke="#020064" stroke-width="1.66438" stroke-linecap="round" stroke-linejoin="round" fill="#B0D9FF" transform="matrix(1 0 0 1.00982 869 456)"/></g></svg>