<svg width="24" height="24" viewBox="0 0 24 24" fill="none" xmlns="http://www.w3.org/2000/svg">
  <path d="M7.54545 2.90909V3.81818H5.72727C4.97455 3.81818 4.29091 4.12455 3.79909 4.61727C3.30727 5.11 3 5.79273 3 6.54545V19.2727C3 20.0255 3.30636 20.7091 3.79909 21.2009C4.29182 21.6927 4.97455 22 5.72727 22H18.4545C19.2073 22 19.8909 21.6936 20.3827 21.2009C20.8745 20.7082 21.1818 20.0255 21.1818 19.2727V6.54545C21.1818 5.79273 20.8755 5.10909 20.3827 4.61727C19.89 4.12545 19.2073 3.81818 18.4545 3.81818H16.6364V2.90909C16.6364 2.40727 16.2291 2 15.7273 2C15.2255 2 14.8182 2.40727 14.8182 2.90909V3.81818H9.36364V2.90909C9.36364 2.40727 8.95636 2 8.45455 2C7.95273 2 7.54545 2.40727 7.54545 2.90909ZM19.3636 9.27273H4.81818V6.54545C4.81818 6.29455 4.91909 6.06818 5.08455 5.90273C5.25 5.73727 5.47636 5.63636 5.72727 5.63636H7.54545V6.54545C7.54545 7.04727 7.95273 7.45455 8.45455 7.45455C8.95636 7.45455 9.36364 7.04727 9.36364 6.54545V5.63636H14.8182V6.54545C14.8182 7.04727 15.2255 7.45455 15.7273 7.45455C16.2291 7.45455 16.6364 7.04727 16.6364 6.54545V5.63636H18.4545C18.7055 5.63636 18.9318 5.73727 19.0973 5.90273C19.2627 6.06818 19.3636 6.29455 19.3636 6.54545V9.27273ZM4.81818 11.0909H19.3636V19.2727C19.3636 19.5236 19.2627 19.75 19.0973 19.9155C18.9318 20.0809 18.7055 20.1818 18.4545 20.1818H5.72727C5.47636 20.1818 5.25 20.0809 5.08455 19.9155C4.91909 19.75 4.81818 19.5236 4.81818 19.2727V11.0909Z" fill="#757575"/>
</svg>
