<svg width="18" height="16" viewBox="0 0 18 16" fill="none" xmlns="http://www.w3.org/2000/svg">
  <path d="M14 4.66675C14.663 4.66675 15.2989 4.93014 15.7678 5.39898C16.2366 5.86782 16.5 6.50371 16.5 7.16675C16.5 7.82979 16.2366 8.46567 15.7678 8.93452C15.2989 9.40336 14.663 9.66675 14 9.66675" stroke="currentcolor" stroke-width="1.5" stroke-linecap="round" stroke-linejoin="round"/>
  <path d="M7.3335 4.66675V13.8334C7.3335 14.0544 7.2457 14.2664 7.08942 14.4227C6.93314 14.579 6.72118 14.6667 6.50016 14.6667H5.66683C5.44582 14.6667 5.23385 14.579 5.07757 14.4227C4.92129 14.2664 4.8335 14.0544 4.8335 13.8334V9.66675" stroke="currentcolor" stroke-width="1.5" stroke-linecap="round" stroke-linejoin="round"/>
  <path d="M9 4.6667L12.77 1.52504C12.8795 1.43379 13.0128 1.37566 13.1542 1.35746C13.2956 1.33925 13.4393 1.36173 13.5684 1.42225C13.6975 1.48277 13.8066 1.57882 13.8831 1.69916C13.9595 1.8195 14.0001 1.95914 14 2.1017V12.2317C14.0001 12.3743 13.9595 12.5139 13.8831 12.6342C13.8066 12.7546 13.6975 12.8506 13.5684 12.9112C13.4393 12.9717 13.2956 12.9942 13.1542 12.9759C13.0128 12.9577 12.8795 12.8996 12.77 12.8084L9 9.6667H2.33333C2.11232 9.6667 1.90036 9.57891 1.74408 9.42263C1.5878 9.26635 1.5 9.05438 1.5 8.83337V5.50004C1.5 5.27902 1.5878 5.06706 1.74408 4.91078C1.90036 4.7545 2.11232 4.6667 2.33333 4.6667H9Z" stroke="currentcolor" stroke-width="1.5" stroke-linecap="round" stroke-linejoin="round"/>
</svg>
