<svg width="14" height="18" viewBox="0 0 14 18" fill="none" xmlns="http://www.w3.org/2000/svg">
  <path d="M4.49984 3.16675H2.83317C2.39114 3.16675 1.96722 3.34234 1.65466 3.6549C1.3421 3.96746 1.1665 4.39139 1.1665 4.83341V14.8334C1.1665 15.2754 1.3421 15.6994 1.65466 16.0119C1.96722 16.3245 2.39114 16.5001 2.83317 16.5001H11.1665C11.6085 16.5001 12.0325 16.3245 12.345 16.0119C12.6576 15.6994 12.8332 15.2754 12.8332 14.8334V4.83341C12.8332 4.39139 12.6576 3.96746 12.345 3.6549C12.0325 3.34234 11.6085 3.16675 11.1665 3.16675H9.49984" stroke="currentcolor" stroke-width="1.5" stroke-linecap="round" stroke-linejoin="round"/>
  <path d="M4.5 3.16667C4.5 2.72464 4.6756 2.30072 4.98816 1.98816C5.30072 1.67559 5.72464 1.5 6.16667 1.5H7.83333C8.27536 1.5 8.69928 1.67559 9.01184 1.98816C9.3244 2.30072 9.5 2.72464 9.5 3.16667C9.5 3.60869 9.3244 4.03262 9.01184 4.34518C8.69928 4.65774 8.27536 4.83333 7.83333 4.83333H6.16667C5.72464 4.83333 5.30072 4.65774 4.98816 4.34518C4.6756 4.03262 4.5 3.60869 4.5 3.16667Z" stroke="currentcolor" stroke-width="1.5" stroke-linecap="round" stroke-linejoin="round"/>
  <path d="M4.5 9H9.5" stroke="currentcolor" stroke-width="1.5" stroke-linecap="round" stroke-linejoin="round"/>
  <path d="M4.5 12.3333H9.5" stroke="currentcolor" stroke-width="1.5" stroke-linecap="round" stroke-linejoin="round"/>
</svg>
