<svg width="16" height="16" viewBox="0 0 16 16" fill="none" xmlns="http://www.w3.org/2000/svg">
  <path d="M6.3335 9.66665C6.60506 9.94382 6.9292 10.164 7.28694 10.3143C7.64467 10.4647 8.0288 10.5421 8.41683 10.5421C8.80486 10.5421 9.18899 10.4647 9.54672 10.3143C9.90446 10.164 10.2286 9.94382 10.5002 9.66665L13.8335 6.33332C14.386 5.78079 14.6964 5.03139 14.6964 4.24999C14.6964 3.46859 14.386 2.71919 13.8335 2.16666C13.281 1.61412 12.5316 1.30371 11.7502 1.30371C10.9688 1.30371 10.2194 1.61412 9.66683 2.16666L9.25016 2.58332" stroke="currentcolor" stroke-width="1.5" stroke-linecap="round" stroke-linejoin="round"/>
  <path d="M9.66666 6.33343C9.39509 6.05627 9.07095 5.83608 8.71322 5.68576C8.35549 5.53544 7.97136 5.45801 7.58332 5.45801C7.19529 5.45801 6.81116 5.53544 6.45343 5.68576C6.0957 5.83608 5.77156 6.05627 5.49999 6.33343L2.16666 9.66677C1.61412 10.2193 1.30371 10.9687 1.30371 11.7501C1.30371 12.5315 1.61412 13.2809 2.16666 13.8334C2.71919 14.386 3.46859 14.6964 4.24999 14.6964C5.03139 14.6964 5.78079 14.386 6.33332 13.8334L6.74999 13.4168" stroke="currentcolor" stroke-width="1.5" stroke-linecap="round" stroke-linejoin="round"/>
</svg>
